<?xml version="1.0" encoding="utf-8"?>
<!-- Generator: Adobe Illustrator 14.0.0, SVG Export Plug-In . SVG Version: 6.00 Build 43363)  -->
<!DOCTYPE svg PUBLIC "-//W3C//DTD SVG 1.1//EN" "http://www.w3.org/Graphics/SVG/1.1/DTD/svg11.dtd">
<svg version="1.1" id="Layer_1" xmlns="http://www.w3.org/2000/svg" xmlns:xlink="http://www.w3.org/1999/xlink" x="0px" y="0px"
	 width="243.613px" height="243.581px" viewBox="0 0 243.613 243.581" enable-background="new 0 0 243.613 243.581"
	 xml:space="preserve">
<g>
	<defs>
		<rect id="SVGID_1_" y="0" width="243.613" height="243.581"/>
	</defs>
	<clipPath id="SVGID_2_">
		<use xlink:href="#SVGID_1_"  overflow="visible"/>
	</clipPath>
	<path clip-path="url(#SVGID_2_)" fill="#375C8F" d="M243.613,121.802C243.613,54.53,189.06,0,121.815,0C54.533,0,0,54.53,0,121.802
		c0,67.243,54.533,121.778,121.815,121.778C189.06,243.581,243.613,189.045,243.613,121.802"/>
	<path clip-path="url(#SVGID_2_)" fill="#FFFFFF" d="M121.735,4.751C57.014,4.751,4.541,57.229,4.541,121.939
		c0,64.733,52.473,117.198,117.195,117.198c64.733,0,117.202-52.465,117.202-117.198C238.938,57.229,186.469,4.751,121.735,4.751
		 M233.103,127.041l-0.153-1.74c-3.268-30.086-17.587-22.437-17.587-22.437c-7.339,3.48-6.512,13.103-0.958,18.732
		c5.412,5.445,7.141,17.686,7.141,17.686c1.989,37.558-15.907,57.002-15.907,57.002c-20.518,23.161-50.516,37.767-83.902,37.767
		l-9.037-0.389l3.95-0.342l1.759-0.165c30.071-3.275,22.43-17.602,22.43-17.602c-3.488-7.322-13.101-6.524-18.722-0.933
		c-5.467,5.381-17.7,7.111-17.7,7.111c-37.547,2.01-57.005-15.902-57.005-15.902c-23.177-20.525-37.768-50.491-37.768-83.89
		l0.374-9.037l0.353,3.946l0.153,1.738c3.299,30.097,17.604,22.459,17.604,22.459c7.328-3.499,6.518-13.113,0.963-18.745
		c-5.409-5.452-7.146-17.664-7.146-17.664c-2-37.572,15.906-57.032,15.906-57.032C58.373,24.471,88.357,9.862,121.735,9.862
		l9.064,0.359l-3.955,0.362l-1.75,0.145c-30.079,3.293-22.451,17.61-22.451,17.61c3.502,7.326,13.106,6.511,18.727,0.954
		c5.453-5.394,17.707-7.129,17.707-7.129c37.54-2.006,56.991,15.895,56.991,15.895c23.174,20.538,37.774,50.507,37.774,83.882
		l-0.389,9.068L233.103,127.041z"/>
	<path clip-path="url(#SVGID_2_)" fill="#FFFFFF" d="M169.478,129.579c-25.784-0.937-24.348,20.533-24.348,20.533
		c0.996,8.544,3.898,12.828,6.598,15.441c5.32,5.09,10.573,1.758,10.573,1.758c4.622-5.255-0.47-8.604-0.47-8.604
		c-10.512-11.916,2.872-16.243,2.872-16.243c14.308-1.418,14.805,16.243,14.805,16.243c0.941,21.013-22.941,19.575-22.941,19.575
		c-23.399-3.328-21.479-26.736-21.479-26.736c-2.38-17.181,16.729-32.943,16.729-32.943c26.729,4.778,25.765-8.108,25.765-8.108
		c1.928-9.547-22.743-4.458-22.743-4.458c-2.248-1.595-3.181-6.036-3.181-6.036c5.692-0.965,16.851-12.913,16.851-12.913
		c19.744-23.704-0.946-33.405-0.946-33.405c-17.191-2.88-24.831,14.792-24.831,14.792c-4.468,13.701-2.87,29.925-2.87,29.925
		l-30.553,18.777l0.465-8.132c22.447-15.265,11.965-22.423,11.965-22.423c-13.35-5.254-18.166,16.706-18.166,16.706
		c-18.162,18.613-21.963,2.864-21.963,2.864c12.721-2.715,21.963-15.271,21.963-15.271c21.494-23.889,6.201-35.329,6.201-35.329
		c-16.232-7.655-30.555,13.374-30.555,13.374c-8.098,12.556-7.631,27.694-7.631,27.694c-7.66-2.02-8.352-13.074-8.065-19.591
		c0,0,3.561-10.503-3.746-4.055c-4.592,4.078-4.431,13.132-4.431,13.132c0.949,15.271,15.775,20.199,15.775,20.199
		c2.378,14.328,11.023,14.835,14.794,15.596c6.196,1.295,15.758-5.721,15.758-5.721l-0.482,7.65
		c-26.581,8.902-37.1,21.952-37.1,21.952c-18.129,18.618-9.22,36.753-9.22,36.753c5.096,11.309,14.336,10.983,14.336,10.983
		c3.65,0,5.403,0.349,7.95-0.303c1.954-0.529,4.765-0.949,7.008-2.547c3.204-2.287,6.736-4.377,9.42-7.185
		c18.847-19.619,16.68-56.808,16.68-56.808l32.94-20.047c0.176,2.543,1.752,3.826,1.752,3.826
		c-23.875,14.009-25.627,40.11-25.627,40.11c-2.066,37.234,36.125,42.65,36.125,42.65c8.91,0,14.349-1.771,19.094-3.828
		c20.641-8.896,18.794-30.235,18.794-30.235C192.704,132.137,169.478,129.579,169.478,129.579 M164.056,65.295
		c5.088,3.493,2.212,8.617-0.313,12.732c-4.233,6.838-12.423,13.354-12.423,13.354C151.953,63.695,164.056,65.295,164.056,65.295
		 M101.67,64.974c2.534,0.954,1.759,4.468,1.759,4.468c0.373,11.228-20.858,24.807-20.858,24.807
		C84.947,66.557,101.67,64.974,101.67,64.974 M95.933,157.774c-11.942,29.123-25.304,22.901-25.304,22.901
		c-2.154-1.436-4.474-2.319-5.57-4.616c-1.097-2.306-0.971-6.052-0.971-6.052c0.481-17.671,36.147-35.171,36.147-35.171
		C100.707,145.821,95.933,157.774,95.933,157.774"/>
</g>
</svg>
