<?xml version="1.0" encoding="utf-8"?>
<!-- Generator: Adobe Illustrator 14.0.0, SVG Export Plug-In . SVG Version: 6.00 Build 43363)  -->
<!DOCTYPE svg PUBLIC "-//W3C//DTD SVG 1.1//EN" "http://www.w3.org/Graphics/SVG/1.1/DTD/svg11.dtd">
<svg version="1.1" id="Layer_1" xmlns="http://www.w3.org/2000/svg" xmlns:xlink="http://www.w3.org/1999/xlink" x="0px" y="0px"
	 width="17.56px" height="17.116px" viewBox="0 0 17.56 17.116" enable-background="new 0 0 17.56 17.116" xml:space="preserve">
<path fill="#FFFFFF" d="M6.807,2.113c2.599,0,4.713,2.133,4.713,4.756c0,0.886-0.25,1.755-0.72,2.514l-0.427,0.688l-0.602,0.492
	c-0.849,0.695-1.873,1.062-2.964,1.062c-2.599,0-4.712-2.133-4.712-4.756C2.095,4.247,4.208,2.113,6.807,2.113 M6.807,0
	C3.048,0,0,3.076,0,6.87c0,3.794,3.048,6.87,6.807,6.87c1.625,0,3.113-0.576,4.283-1.534c0.054,0.096,0.102,0.195,0.182,0.276
	l4.241,4.28c0.234,0.235,0.54,0.354,0.848,0.354c0.306,0,0.613-0.118,0.848-0.355c0.468-0.473,0.468-1.238,0-1.711l-4.241-4.28
	c-0.116-0.117-0.25-0.204-0.393-0.263c0.656-1.055,1.04-2.299,1.04-3.637C13.614,3.076,10.567,0,6.807,0L6.807,0z"/>
</svg>
