<?xml version="1.0" encoding="utf-8"?>
<!-- Generator: Adobe Illustrator 15.1.0, SVG Export Plug-In . SVG Version: 6.00 Build 0)  -->
<!DOCTYPE svg PUBLIC "-//W3C//DTD SVG 1.1//EN" "http://www.w3.org/Graphics/SVG/1.1/DTD/svg11.dtd">
<svg version="1.1" id="Layer_2" xmlns="http://www.w3.org/2000/svg" xmlns:xlink="http://www.w3.org/1999/xlink" x="0px" y="0px"
	 width="145.75px" height="60px" viewBox="0 0 145.75 60" enable-background="new 0 0 145.75 60" xml:space="preserve">
<path fill="#0657A4" d="M13.556,34.048c-7.845,0-12.829-4.408-13.006-11.512L0.535,21.82h3.618l0.034,0.594
	c0.32,5.059,3.998,8.283,9.369,8.283c2.1,0,8.955-0.409,8.955-5.75c0-4.312-4.195-5.162-9.05-6.139l-0.81-0.162
	C6.839,17.471,1.617,15.873,1.617,9.324c0-7.898,8.961-8.514,11.708-8.514c7.587,0,11.939,3.795,11.939,10.406v0.698h-3.635
	l-0.008-0.623c-0.065-5.905-4.548-7.129-8.296-7.129c-3.9,0-8.064,1.354-8.064,5.163c0,4.063,4.321,4.941,8.896,5.866l0.667,0.137
	c6.195,1.214,11.329,2.78,11.329,9.62C26.154,33.396,16.514,34.048,13.556,34.048"/>
<path fill="#0657A4" d="M115.082,34.048c-7.847,0-12.832-4.408-13.009-11.512l-0.012-0.716h3.615l0.036,0.594
	c0.319,5.059,3.997,8.283,9.37,8.283c2.1,0,8.952-0.409,8.952-5.75c0-4.312-4.194-5.162-9.049-6.139l-0.81-0.162
	c-5.815-1.175-11.037-2.773-11.037-9.322c0-7.898,8.962-8.514,11.705-8.514c7.589,0,11.944,3.795,11.944,10.406v0.698h-3.633
	l-0.01-0.623c-0.062-5.905-4.546-7.129-8.301-7.129c-3.897,0-8.062,1.354-8.062,5.163c0,4.063,4.323,4.941,8.902,5.866l0.664,0.137
	c6.195,1.214,11.328,2.78,11.328,9.62C127.674,33.396,118.034,34.048,115.082,34.048"/>
<path fill="#0657A4" d="M87.124,33.338V1.523h3.641v4.843c2.117-2.986,6.227-5.033,10.562-5.033c0.197,0,0.404,0.003,0.602,0.009
	l0.67,0.026v3.709l-0.703-0.087c-0.437-0.054-0.808-0.077-1.182-0.077c-1.455,0-4.262,0.368-6.726,2.828
	c-2.229,2.237-3.224,3.96-3.224,8.269v17.328H87.124z"/>
<path fill="#0657A4" d="M52.063,21.823l-0.066,0.389c-1.01,5.316-4.824,8.485-10.206,8.485c-2.771,0-5.184-0.963-6.979-2.793
	c-2.173-2.199-3.433-5.633-3.509-9.48h24.529l0.03-0.669c0.254-5.346-1.2-9.969-4.102-13.014c-2.489-2.606-5.842-3.932-9.969-3.932
	c-9.762,0-14.133,8.618-14.133,17.151c0,9.774,5.545,16.088,14.133,16.088c7.668,0,12.577-4.114,13.843-11.674l0.083-0.551H52.063z
	 M41.791,4.161c6.421,0,10.021,5.391,10.4,10.917H31.379C32.083,9.544,35.785,4.161,41.791,4.161"/>
<path fill="#0657A4" d="M71.379,0.811c-7.628,0-11.994,3.812-12.303,10.8l-0.012,0.302h3.641l0.02-0.302
	c0.272-4.807,3.343-7.448,8.655-7.448c6.448,0,7.764,4.165,7.764,5.276c0,4.52,0,4.889-9.826,5.64
	c-7.854,0.553-11.835,3.814-11.835,9.691c0,5.979,3.86,9.278,10.877,9.278c5.263,0,8.807-2.374,10.725-4.987v4.281h3.646V9.438
	C82.73,3.874,78.698,0.811,71.379,0.811 M79.087,21.03c-0.002,0.1-0.332,9.667-10.667,9.667c-4.432,0-7.291-2.324-7.291-5.927
	c0-3.84,2.239-5.678,7.728-6.351c1.019-0.125,2.072-0.209,3.09-0.292c2.757-0.225,5.385-0.436,7.141-1.374V21.03z"/>
<path fill="#0657A4" d="M128.766,1.529c1.06,0,1.947,0.833,1.947,1.931c0,1.117-0.888,1.955-1.947,1.955
	c-1.065,0-1.96-0.838-1.96-1.955C126.806,2.362,127.701,1.529,128.766,1.529 M128.766,5.128c0.9,0,1.593-0.715,1.593-1.668
	c0-0.928-0.693-1.645-1.593-1.645c-0.91,0-1.606,0.717-1.606,1.645C127.16,4.413,127.856,5.128,128.766,5.128 M128.008,2.333h0.878
	c0.542,0,0.794,0.213,0.794,0.652c0,0.409-0.26,0.58-0.597,0.616l0.651,1.004h-0.379l-0.621-0.977h-0.374v0.977h-0.352V2.333z
	 M128.36,3.342h0.369c0.313,0,0.599-0.017,0.599-0.373c0-0.301-0.259-0.349-0.499-0.349h-0.468V3.342z"/>
<path fill="#333333" d="M1.019,43.029h7.107c3.224,0,4.973,1.794,4.973,4.791s-1.749,4.813-4.973,4.79h-4.95v6.631H1.019V43.029z
	 M3.176,50.795h4.223c2.431,0.022,3.542-1.045,3.542-2.975s-1.112-2.975-3.542-2.975H3.176V50.795z"/>
<path fill="#333333" d="M17.689,43.029h2.383l6.335,16.212h-2.384l-1.771-4.883h-6.856l-1.817,4.883h-2.225L17.689,43.029z
	 M16.075,52.542h5.495l-2.702-7.561h-0.044L16.075,52.542z"/>
<path fill="#333333" d="M27.687,43.029h7.63c3.042,0,4.928,1.657,4.928,4.245c0,1.952-0.864,3.565-2.816,4.109v0.046
	c1.883,0.362,2.27,1.749,2.43,3.337c0.136,1.588,0.045,3.36,0.953,4.474h-2.406c-0.614-0.66-0.272-2.408-0.59-3.997
	c-0.228-1.589-0.612-2.929-2.702-2.929h-5.268v6.926h-2.158V43.029z M34.34,50.499c2.021,0,3.746-0.522,3.746-2.882
	c0-1.59-0.861-2.771-2.884-2.771h-5.357v5.653H34.34z"/>
<path fill="#333333" d="M46.551,44.846h-5.405v-1.816h12.965v1.816h-5.405v14.396h-2.155V44.846z"/>
<path fill="#333333" d="M65.04,47.775c-0.249-2.318-1.794-3.316-4.018-3.316c-1.817,0-3.633,0.659-3.633,2.771
	c0,1.997,2.588,2.293,5.199,2.883c2.588,0.591,5.179,1.499,5.179,4.677c0,3.452-3.385,4.836-6.336,4.836
	c-3.633,0-6.697-1.771-6.697-5.721h2.042c0,2.724,2.271,3.905,4.723,3.905c1.953,0,4.109-0.613,4.109-2.952
	c0-2.224-2.588-2.611-5.177-3.178s-5.199-1.318-5.199-4.29c0-3.292,2.929-4.747,5.881-4.747c3.315,0,5.833,1.567,5.97,5.133H65.04z"
	/>
<path fill="#737373" d="M69.496,43.029h5.561c4.996,0,7.79,2.497,7.79,7.718c0,5.426-2.386,8.494-7.79,8.494h-5.561V43.029z
	 M71.653,57.423h3.586c1.476,0,5.449-0.408,5.449-6.38c0-3.859-1.431-6.198-5.404-6.198h-3.631V57.423z"/>
<path fill="#737373" d="M85.1,43.029h2.156v16.212H85.1V43.029z"/>
<path fill="#737373" d="M90.191,43.029h7.628c3.042,0,4.927,1.657,4.927,4.245c0,1.952-0.862,3.565-2.816,4.109v0.046
	c1.888,0.362,2.271,1.749,2.43,3.337c0.136,1.588,0.046,3.36,0.955,4.474h-2.409c-0.611-0.66-0.271-2.408-0.589-3.997
	c-0.228-1.589-0.613-2.929-2.703-2.929h-5.268v6.926h-2.156V43.029z M96.843,50.499c2.021,0,3.748-0.522,3.748-2.882
	c0-1.59-0.863-2.771-2.883-2.771h-5.36v5.653H96.843z"/>
<path fill="#737373" d="M105.147,43.029h11.193v1.816h-9.034V50h8.421v1.815h-8.421v5.608h9.105v1.818h-11.264V43.029z"/>
<path fill="#737373" d="M129.751,47.911c-0.454-2.293-2.293-3.452-4.541-3.452c-3.861,0-5.496,3.18-5.496,6.562
	c0,3.701,1.634,6.789,5.518,6.789c2.839,0,4.474-1.998,4.678-4.678h2.156c-0.408,4.042-2.929,6.494-7.015,6.494
	c-5.04,0-7.492-3.724-7.492-8.446c0-4.7,2.678-8.537,7.672-8.537c3.384,0,6.176,1.816,6.677,5.268H129.751z"/>
<path fill="#737373" d="M137.164,44.846h-5.405v-1.816h12.965v1.816h-5.402v14.396h-2.159V44.846z"/>
</svg>
