<?xml version="1.0" encoding="utf-8"?>
<!-- Generator: Adobe Illustrator 14.0.0, SVG Export Plug-In . SVG Version: 6.00 Build 43363)  -->
<!DOCTYPE svg PUBLIC "-//W3C//DTD SVG 1.1//EN" "http://www.w3.org/Graphics/SVG/1.1/DTD/svg11.dtd">
<svg version="1.1" id="Layer_1" xmlns="http://www.w3.org/2000/svg" xmlns:xlink="http://www.w3.org/1999/xlink" x="0px" y="0px"
	 width="217.34px" height="26.037px" viewBox="0 0 217.34 26.037" enable-background="new 0 0 217.34 26.037" xml:space="preserve">
<g>
	<defs>
		<rect id="SVGID_1_" width="217.34" height="26.037"/>
	</defs>
	<clipPath id="SVGID_2_">
		<use xlink:href="#SVGID_1_"  overflow="visible"/>
	</clipPath>
	<path clip-path="url(#SVGID_2_)" fill="#0657A4" d="M10.199,26.035c-6.145,0-10.049-3.452-10.188-9.018L0,16.458h2.834l0.026,0.465
		c0.251,3.963,3.132,6.487,7.339,6.487c1.645,0,7.014-0.319,7.014-4.504c0-3.377-3.285-4.043-7.088-4.809L9.49,13.972
		c-4.553-0.92-8.643-2.172-8.643-7.302C0.847,0.482,7.866,0,10.017,0c5.944,0,9.352,2.972,9.352,8.15v0.547h-2.848l-0.006-0.488
		c-0.05-4.625-3.562-5.584-6.498-5.584c-3.054,0-6.316,1.06-6.316,4.044c0,3.182,3.385,3.87,6.969,4.595l0.522,0.107
		c4.853,0.951,8.874,2.178,8.874,7.535C20.066,25.523,12.515,26.035,10.199,26.035"/>
	<path clip-path="url(#SVGID_2_)" fill="#0657A4" d="M89.721,26.035c-6.146,0-10.051-3.452-10.189-9.018l-0.01-0.56h2.832
		l0.028,0.465c0.25,3.963,3.131,6.487,7.339,6.487c1.645,0,7.012-0.319,7.012-4.504c0-3.377-3.285-4.043-7.088-4.809l-0.635-0.126
		c-4.555-0.92-8.644-2.172-8.644-7.302C80.366,0.482,87.385,0,89.533,0c5.945,0,9.356,2.972,9.356,8.15v0.547h-2.846l-0.008-0.488
		c-0.048-4.625-3.56-5.584-6.502-5.584c-3.052,0-6.314,1.06-6.314,4.044c0,3.182,3.386,3.87,6.973,4.595l0.519,0.107
		c4.853,0.951,8.873,2.178,8.873,7.535C99.583,25.523,92.034,26.035,89.721,26.035"/>
	<path clip-path="url(#SVGID_2_)" fill="#0657A4" d="M67.822,25.479V0.559h2.852v3.794c1.658-2.339,4.877-3.942,8.273-3.942
		c0.154,0,0.316,0.002,0.471,0.007l0.525,0.021v2.905l-0.551-0.068c-0.341-0.042-0.632-0.061-0.925-0.061
		c-1.14,0-3.338,0.289-5.268,2.215c-1.746,1.752-2.525,3.102-2.525,6.477v13.572H67.822z"/>
	<path clip-path="url(#SVGID_2_)" fill="#0657A4" d="M40.36,16.46l-0.052,0.305c-0.791,4.164-3.778,6.646-7.994,6.646
		c-2.17,0-4.061-0.754-5.466-2.187c-1.702-1.723-2.689-4.412-2.749-7.426h19.213l0.023-0.524c0.2-4.187-0.94-7.808-3.212-10.193
		C38.173,1.04,35.546,0,32.314,0c-7.646,0-11.07,6.75-11.07,13.434c0,7.656,4.343,12.601,11.07,12.601
		c6.006,0,9.852-3.222,10.843-9.144l0.065-0.432H40.36z M32.314,2.625c5.029,0,7.85,4.222,8.146,8.551H24.16
		C24.71,6.842,27.61,2.625,32.314,2.625"/>
	<path clip-path="url(#SVGID_2_)" fill="#0657A4" d="M55.49,0.001c-5.975,0-9.395,2.985-9.637,8.459l-0.01,0.237h2.852l0.016-0.237
		c0.212-3.765,2.618-5.834,6.779-5.834c5.051,0,6.081,3.262,6.081,4.133c0,3.54,0,3.829-7.696,4.418
		c-6.153,0.432-9.27,2.987-9.27,7.591c0,4.683,3.024,7.267,8.52,7.267c4.122,0,6.898-1.858,8.4-3.905v3.353h2.856V6.759
		C64.381,2.4,61.222,0.001,55.49,0.001 M61.527,15.839c-0.002,0.077-0.26,7.571-8.355,7.571c-3.472,0-5.711-1.819-5.711-4.642
		c0-3.008,1.753-4.448,6.052-4.976c0.798-0.098,1.623-0.163,2.421-0.228c2.159-0.177,4.218-0.342,5.593-1.077V15.839z"/>
	<path clip-path="url(#SVGID_2_)" fill="#0657A4" d="M100.439,0.564c0.83,0,1.526,0.653,1.526,1.513
		c0,0.875-0.696,1.531-1.526,1.531c-0.834,0-1.535-0.656-1.535-1.531C98.904,1.217,99.605,0.564,100.439,0.564 M100.439,3.383
		c0.705,0,1.248-0.56,1.248-1.306c0-0.728-0.543-1.289-1.248-1.289c-0.713,0-1.257,0.561-1.257,1.289
		C99.182,2.823,99.726,3.383,100.439,3.383 M99.846,1.194h0.687c0.424,0,0.622,0.167,0.622,0.51c0,0.321-0.204,0.455-0.468,0.483
		l0.51,0.786H100.9l-0.486-0.765h-0.293v0.765h-0.275V1.194z M100.121,1.984h0.289c0.245,0,0.469-0.013,0.469-0.292
		c0-0.236-0.203-0.273-0.391-0.273h-0.367V1.984z"/>
	<path clip-path="url(#SVGID_2_)" fill="#333333" d="M104.781,13.037h5.566c2.525,0,3.894,1.405,3.894,3.753
		s-1.368,3.77-3.894,3.752h-3.877v5.193h-1.689V13.037z M106.47,19.12h3.307c1.904,0.018,2.775-0.818,2.775-2.33
		s-0.871-2.33-2.775-2.33h-3.307V19.12z"/>
	<path clip-path="url(#SVGID_2_)" fill="#333333" d="M117.837,13.037h1.866l4.962,12.698h-1.867l-1.388-3.824h-5.37l-1.423,3.824
		h-1.743L117.837,13.037z M116.573,20.488h4.304l-2.116-5.922h-0.035L116.573,20.488z"/>
	<path clip-path="url(#SVGID_2_)" fill="#333333" d="M125.668,13.037h5.977c2.383,0,3.859,1.298,3.859,3.326
		c0,1.529-0.677,2.793-2.206,3.219v0.036c1.476,0.284,1.778,1.37,1.903,2.614c0.106,1.244,0.035,2.632,0.746,3.504h-1.885
		c-0.48-0.517-0.213-1.886-0.462-3.131c-0.179-1.244-0.479-2.294-2.116-2.294h-4.127v5.425h-1.689V13.037z M130.879,18.888
		c1.583,0,2.935-0.409,2.935-2.258c0-1.245-0.675-2.17-2.259-2.17h-4.197v4.428H130.879z"/>
	<polygon clip-path="url(#SVGID_2_)" fill="#333333" points="140.443,14.46 136.21,14.46 136.21,13.037 146.365,13.037 
		146.365,14.46 142.132,14.46 142.132,25.735 140.443,25.735 	"/>
	<path clip-path="url(#SVGID_2_)" fill="#333333" d="M154.926,16.755c-0.195-1.815-1.405-2.598-3.147-2.598
		c-1.423,0-2.846,0.516-2.846,2.17c0,1.564,2.027,1.796,4.072,2.258c2.027,0.463,4.057,1.174,4.057,3.664
		c0,2.703-2.651,3.788-4.963,3.788c-2.846,0-5.246-1.387-5.246-4.481h1.6c0,2.134,1.779,3.059,3.699,3.059
		c1.529,0,3.219-0.48,3.219-2.312c0-1.742-2.027-2.045-4.055-2.489s-4.072-1.032-4.072-3.36c0-2.579,2.294-3.718,4.606-3.718
		c2.598,0,4.569,1.228,4.677,4.021H154.926z"/>
	<path clip-path="url(#SVGID_2_)" fill="#737373" d="M158.415,13.038h4.355c3.914,0,6.102,1.956,6.102,6.044
		c0,4.25-1.869,6.653-6.102,6.653h-4.355V13.038z M160.104,24.312h2.811c1.154,0,4.268-0.319,4.268-4.997
		c0-3.022-1.121-4.854-4.232-4.854h-2.846V24.312z"/>
	<rect x="170.638" y="13.037" clip-path="url(#SVGID_2_)" fill="#737373" width="1.688" height="12.698"/>
	<path clip-path="url(#SVGID_2_)" fill="#737373" d="M174.626,13.037h5.975c2.382,0,3.859,1.298,3.859,3.326
		c0,1.529-0.675,2.793-2.206,3.219v0.036c1.478,0.284,1.778,1.37,1.903,2.614c0.106,1.244,0.036,2.632,0.748,3.504h-1.887
		c-0.479-0.517-0.212-1.886-0.461-3.131c-0.179-1.244-0.48-2.294-2.118-2.294h-4.125v5.425h-1.688V13.037z M179.836,18.888
		c1.583,0,2.936-0.409,2.936-2.258c0-1.245-0.677-2.17-2.259-2.17h-4.198v4.428H179.836z"/>
	<polygon clip-path="url(#SVGID_2_)" fill="#737373" points="186.341,13.037 195.107,13.037 195.107,14.46 188.031,14.46 
		188.031,18.497 194.628,18.497 194.628,19.919 188.031,19.919 188.031,24.312 195.163,24.312 195.163,25.735 186.341,25.735 	"/>
	<path clip-path="url(#SVGID_2_)" fill="#737373" d="M205.612,16.86c-0.355-1.796-1.797-2.703-3.557-2.703
		c-3.025,0-4.305,2.49-4.305,5.14c0,2.898,1.279,5.317,4.322,5.317c2.223,0,3.504-1.565,3.664-3.664h1.688
		c-0.319,3.166-2.294,5.087-5.495,5.087c-3.947,0-5.867-2.917-5.867-6.616c0-3.681,2.098-6.687,6.01-6.687
		c2.65,0,4.836,1.423,5.229,4.126H205.612z"/>
	<polygon clip-path="url(#SVGID_2_)" fill="#737373" points="211.418,14.46 207.185,14.46 207.185,13.037 217.34,13.037 
		217.34,14.46 213.108,14.46 213.108,25.735 211.418,25.735 	"/>
</g>
</svg>
