<?xml version="1.0" encoding="utf-8"?>
<!-- Generator: Adobe Illustrator 14.0.0, SVG Export Plug-In . SVG Version: 6.00 Build 43363)  -->
<!DOCTYPE svg PUBLIC "-//W3C//DTD SVG 1.1//EN" "http://www.w3.org/Graphics/SVG/1.1/DTD/svg11.dtd">
<svg version="1.1" id="Layer_1" xmlns="http://www.w3.org/2000/svg" xmlns:xlink="http://www.w3.org/1999/xlink" x="0px" y="0px"
	 width="193.146px" height="193.145px" viewBox="0 0 193.146 193.145" enable-background="new 0 0 193.146 193.145"
	 xml:space="preserve">
<g>
	<defs>
		<rect id="SVGID_1_" y="0" width="193.146" height="193.145"/>
	</defs>
	<clipPath id="SVGID_2_">
		<use xlink:href="#SVGID_1_"  overflow="visible"/>
	</clipPath>
	<path clip-path="url(#SVGID_2_)" fill="#304E88" d="M94.282,78.091c-18.267,0.979-32.773,16.095-32.773,34.606
		c0,7.68,3.099,15.37,7.329,21.118l8.34-8.276c-2.481-3.662-3.932-8.085-3.932-12.842c0-12.026,9.257-21.876,21.036-22.843v8.586
		l13.603-13.605L94.282,71.232V78.091z"/>
	<path clip-path="url(#SVGID_2_)" fill="#304E88" d="M102.954,134.591v-8.032l-13.605,13.608l13.605,13.603v-7.086
		c15.886-3.158,27.871-17.174,27.871-33.986c0-6.96-1.462-12.838-4.993-18.266l-8.758,8.879c1.291,2.867,2.013,6.046,2.013,9.387
		C119.087,122.989,112.298,131.7,102.954,134.591"/>
	<path clip-path="url(#SVGID_2_)" fill="#304E88" d="M96.577,0C43.238,0,0,43.236,0,96.574c0,53.334,43.239,96.571,96.577,96.571
		c53.333,0,96.57-43.236,96.57-96.571C193.146,43.236,149.91,0,96.577,0 M96.562,161.585c-24.418,0-47.223-21.242-47.103-45.657
		c0.143-28.583,46.393-92.702,47.103-92.702c0.717,0,46.245,62.153,47.113,92.702C144.367,140.331,120.985,161.585,96.562,161.585"
		/>
</g>
</svg>
