<?xml version="1.0" encoding="utf-8"?>
<!-- Generator: Adobe Illustrator 16.0.4, SVG Export Plug-In . SVG Version: 6.00 Build 0)  -->
<!DOCTYPE svg PUBLIC "-//W3C//DTD SVG 1.1//EN" "http://www.w3.org/Graphics/SVG/1.1/DTD/svg11.dtd">
<svg version="1.1" id="Layer_1" xmlns="http://www.w3.org/2000/svg" xmlns:xlink="http://www.w3.org/1999/xlink" x="0px" y="0px"
	 width="1000px" height="1000px" viewBox="0 0 1000 1000" enable-background="new 0 0 1000 1000" xml:space="preserve">
<g>
	<path fill="#C02529" d="M453.27,149.188c-2.058,9.769-4.38,28.225-3.571,62.185c0.717,30.119,7.503,82.477,10.155,96.935
		c5.625-21.809,7.682-43.082,9.833-90.812C473.129,141.072,454.109,145.204,453.27,149.188z"/>
	<path fill="#C02529" d="M515.735,529.902c-13.366-17.331-40.417-69.795-56.201-101.269
		C422.956,529.476,386.942,608.2,355.209,668.335c10.015-4.652,29.395-13.107,58.223-23.362
		c36.186-12.871,94.253-30.937,171.77-46.81C563.87,579.182,529.34,547.542,515.735,529.902z"/>
	<path fill="#C02529" d="M198.688,792.268c-41.311,44.953-50.822,62.825-53.002,68.882c4.166-0.062,17.208-4.546,49.67-43.831
		c19.725-23.869,42.723-55.597,67.275-90.179l-8.499,8.2C253.856,735.608,226.141,762.396,198.688,792.268z"/>
	<path fill="#C02529" d="M-0.5,0v999.5H999V0H-0.5z M813.476,683.027c-37.082-0.869-94.852-8.417-160.377-48.23
		c-2.234-0.138-6.042-0.302-11.438-0.302c-31.767,0-123.177,5.746-285.53,58.976l-6.316-15.016
		c-20.032,37.215-38.215,66.86-53.56,89.845c-55.362,82.929-106.39,128.606-143.683,128.617c0,0-0.009,0-0.013,0
		c-10.949,0-20.769-3.965-28.4-11.466c-9.531-9.368-13.806-21.32-12.365-34.563c1.556-14.282,9.461-29.817,24.169-47.494
		c10.875-13.068,25.5-27.235,43.468-42.103c30.237-25.02,59.301-43.309,60.524-44.076l52.343-32.812
		c65.308-102.026,134.834-294.495,145.497-324.516c-5.608-15.001-24.232-68.099-29.686-125.157
		c-3.083-32.251-2.785-59.325,0.885-80.471c3.271-18.844,9.238-33.138,17.733-42.484c7.06-7.768,15.985-12.045,25.129-12.045
		c64.942,0,56.006,148.423,28.137,256.161c2.039,8.533,11.252,43.643,33.795,85.854c15.1,28.274,33.15,54.176,53.651,76.987
		c24.682,27.461,53.02,50.506,84.28,68.544c11.598-1.226,47.767-4.669,88.365-4.669c39.131,0,70.857,3.222,94.295,9.576
		c15.567,4.222,27.36,9.712,36.053,16.787c10.842,8.822,16.562,20.244,16.551,33.03l-23.121,0.597
		c0.094,1.763-8.783-12.241-79.431-16.828c-17.627-1.146-33.026-1.725-45.769-1.725c-3.497,0-6.673,0.043-9.553,0.121
		c2.997,1.263,6.265,2.564,9.814,3.885c23.787,8.848,65.416,20.359,128.652,24.959l41.705-0.545
		C909.281,652.466,875.414,684.479,813.476,683.027z"/>
	<path fill="#FFFFFF" d="M738.924,628.052c-3.55-1.32-6.817-2.622-9.814-3.885c2.88-0.078,6.056-0.121,9.553-0.121
		c12.742,0,28.142,0.579,45.769,1.725c70.647,4.587,79.524,18.591,79.431,16.828l23.121-0.597
		c0.012-12.786-5.709-24.208-16.551-33.03c-8.692-7.075-20.485-12.565-36.053-16.787c-23.438-6.354-55.164-9.576-94.295-9.576
		c-40.599,0-76.768,3.443-88.365,4.669c-31.261-18.038-59.599-41.083-84.28-68.544c-20.501-22.812-38.552-48.713-53.651-76.987
		c-22.543-42.212-31.756-77.322-33.795-85.854C507.861,248.153,516.798,99.73,451.855,99.73c-9.145,0-18.07,4.277-25.129,12.045
		c-8.495,9.346-14.461,23.64-17.733,42.484c-3.67,21.146-3.967,48.22-0.885,80.471c5.454,57.058,24.078,110.155,29.686,125.157
		c-10.663,30.021-80.189,222.489-145.497,324.516l-52.343,32.812c-1.223,0.768-30.287,19.057-60.524,44.076
		c-17.967,14.867-32.592,29.034-43.468,42.103c-14.708,17.677-22.614,33.212-24.169,47.494c-1.44,13.243,2.834,25.195,12.365,34.563
		c7.631,7.501,17.451,11.466,28.4,11.466c0.004,0,0.013,0,0.013,0c37.293-0.011,88.321-45.688,143.683-128.617
		c15.345-22.984,33.528-52.63,53.56-89.845l6.316,15.016c162.353-53.229,253.763-58.976,285.53-58.976
		c5.396,0,9.203,0.164,11.438,0.302c65.525,39.813,123.295,47.361,160.377,48.23c61.938,1.452,95.806-30.562,95.806-30.562
		l-41.705,0.545C804.34,648.411,762.711,636.899,738.924,628.052z M262.632,727.14c-24.553,34.582-47.551,66.31-67.275,90.179
		c-32.463,39.285-45.504,43.77-49.67,43.831c2.18-6.057,11.691-23.929,53.002-68.882c27.453-29.872,55.168-56.659,55.445-56.928
		L262.632,727.14z M355.209,668.335c31.732-60.135,67.746-138.859,104.325-239.702c15.785,31.474,42.835,83.938,56.201,101.269
		c13.604,17.64,48.135,49.279,69.467,68.261c-77.517,15.873-135.583,33.938-171.77,46.81
		C384.604,655.228,365.225,663.683,355.209,668.335z M469.686,217.497c-2.151,47.729-4.208,69.002-9.833,90.812
		c-2.651-14.458-9.438-66.816-10.155-96.935c-0.809-33.96,1.513-52.417,3.571-62.185
		C454.109,145.204,473.129,141.072,469.686,217.497z"/>
</g>
</svg>
