<?xml version="1.0" encoding="utf-8"?>
<!-- Generator: Adobe Illustrator 16.0.4, SVG Export Plug-In . SVG Version: 6.00 Build 0)  -->
<!DOCTYPE svg PUBLIC "-//W3C//DTD SVG 1.1//EN" "http://www.w3.org/Graphics/SVG/1.1/DTD/svg11.dtd">
<svg version="1.1" id="Layer_1" xmlns="http://www.w3.org/2000/svg" xmlns:xlink="http://www.w3.org/1999/xlink" x="0px" y="0px"
	 width="1000px" height="1000px" viewBox="0 0 1000 1000" enable-background="new 0 0 1000 1000" xml:space="preserve">
<g>
	<path fill="#676767" d="M619.863,505.849c-118.683-31.076-177.35,13.554-208.181,87.446l343.049,95.709
		C766.627,608.161,739.749,537.241,619.863,505.849z"/>
	<path fill="#676767" d="M763.135,941.644c0.644,0.916,1.332,2.315,2.001,2.315c13.262,18.024,30.485,31.54,50.245,40.557
		c10.013,4.504,20.658,8.216,31.778,10.12c7.284,1.249,14.705,1.699,22.055,1.699c19.101,0,37.311-2.806,53.754-11.819
		c9.319-4.498,18.062-9.157,26.062-15.403l0.04,0.352c24.68-19.287,42.304-47.469,47.962-80.424
		c9.979-58.187-20.648-114.091-71.264-138.688c-10.74-5.221-22.366-9.061-34.712-11.18c-7.29-1.251-14.706-1.885-22.054-1.885
		c-18.599,0-36.354,3.938-52.451,11.045l-0.038-0.011C777.802,765.426,748.76,801,741.188,845.13
		C735.323,879.301,743.11,913.334,763.135,941.644z M816.781,858.088c4.385-25.567,26.349-44.115,52.222-44.115
		c3.017,0,5.773,0.27,8.782,0.787c5.065,0.868,11.682,2.249,13.935,4.395v-0.021c22.531,10.069,33.501,33.053,29.422,56.84
		c-2.312,13.466-9.382,24.62-19.447,32.51c-9.041,7.093-20.307,11.505-32.555,11.505c-3.015,0-6.036-0.153-9.046-0.67
		c-13.983-2.399-26.172-10.044-34.36-21.625C817.547,886.114,814.379,872.07,816.781,858.088z"/>
	<path fill="#676767" d="M224.492,940.621l0.146,0.07c0.258,0.41,0.507,0.86,0.779,1.244c20.015,28.307,49.857,47.171,84.031,53.036
		c7.284,1.249,14.704,1.528,22.052,1.528c19.103,0,37.317-2.971,53.755-11.984c19.92-9.017,37.208-22.532,50.25-40.557
		c11.876-15.773,20.244-34.487,23.82-55.303c4.737-27.643,0.283-54.375-11.09-77.885c-7.938-16.405-19.248-31.04-33.208-42.854
		c-17.082-14.448-38.086-24.697-61.687-28.746c-7.285-1.251-14.706-1.885-22.054-1.885c-63.342,0-117.095,45.363-127.815,107.856
		c-2.312,13.498-2.468,27.029-0.609,40.21c0.004,0,0.004,0.003,0.009,0.003C205.644,904.988,212.943,923.851,224.492,940.621z
		 M279.07,858.116c4.382-25.571,26.348-44.128,52.217-44.128c3.015,0,6.069,0.262,9.085,0.777
		c28.854,4.951,48.304,32.455,43.356,61.306c-4.385,25.572-26.353,44.136-52.228,44.136c-3.014,0-6.069-0.264-9.084-0.781
		c-13.979-2.398-26.186-10.097-34.374-21.676C279.855,886.172,276.67,872.095,279.07,858.116z"/>
	<path fill="#676767" d="M249.297,469.659l53.413,83.6c7.382,11.554,19.648,18.092,32.383,18.668
		c0.605,0.03,1.219,0.057,1.834,0.057c7.469,0,15.033-2.064,21.795-6.384c18.876-12.062,24.401-37.138,12.339-56.013L106.865,96.072
		C94.809,77.2,69.729,71.671,50.852,83.73c-18.873,12.061-24.396,37.138-12.334,56.013L249.297,469.659z"/>
	<path fill="#676767" d="M489.177,944.371h219.384c-16.263-33.161-21.743-70.47-15.37-107.582
		c7.344-42.814,29.515-79.725,60.706-105.873L326.438,611.658c-22.308-5.801-45.592-15.458-59.302-36.916l-45.128-70.631
		c-31.825-8.405-82.35-17.68-123.047-6.431C34.36,515.533-23.297,643.114,11.467,707.013
		c41.009,75.364,100.111,123.902,141.707,151.05c0.361-7.078,1.097-14.174,2.312-21.266c14.623-85.248,87.967-147.13,174.401-147.13
		c10.017,0,20.126,0.864,30.046,2.567c96.217,16.508,161.071,108.22,144.575,204.441C501.605,913.602,496.35,929.59,489.177,944.371
		z"/>
</g>
</svg>
