<?xml version="1.0" encoding="utf-8"?>
<!-- Generator: Adobe Illustrator 16.0.4, SVG Export Plug-In . SVG Version: 6.00 Build 0)  -->
<!DOCTYPE svg PUBLIC "-//W3C//DTD SVG 1.1//EN" "http://www.w3.org/Graphics/SVG/1.1/DTD/svg11.dtd">
<svg version="1.1" id="Layer_1" xmlns="http://www.w3.org/2000/svg" xmlns:xlink="http://www.w3.org/1999/xlink" x="0px" y="0px"
	 width="1000px" height="1000px" viewBox="0 0 1000 1000" enable-background="new 0 0 1000 1000" xml:space="preserve">
<path fill="#676767" d="M897.423-1.354c19.319,0,34.992,15.667,34.992,34.985v930.739c0,19.318-15.673,34.985-34.992,34.985H102.563
	c-19.317,0-34.978-15.667-34.978-34.985V33.63c0-19.317,15.661-34.985,34.978-34.985H897.423 M500.002,925.268
	c198.171,0,358.833-160.649,358.833-358.836c0-198.173-160.662-358.823-358.833-358.823c-198.174,0-358.838,160.65-358.838,358.823
	C141.164,764.618,301.828,925.268,500.002,925.268 M274.816,55.481c0-10.713-8.682-19.395-19.394-19.395h-126.06
	c-10.712,0-19.393,8.682-19.393,19.395v36.366c0,10.711,8.681,19.394,19.393,19.394h126.06c10.712,0,19.394-8.683,19.394-19.394
	V55.481z M112.825,200.204c0,13.418,10.875,24.292,24.293,24.292c13.417,0,24.292-10.874,24.292-24.292
	c0-13.418-10.875-24.292-24.292-24.292C123.7,175.912,112.825,186.786,112.825,200.204 M720.223,565.529
	c-28.776,0-54.673-12.352-72.665-32.04c-17.989,19.688-43.884,32.04-72.664,32.04c-28.764,0-54.66-12.352-72.651-32.04
	c-17.99,19.688-43.886,32.04-72.664,32.04c-28.79,0-54.686-12.352-72.688-32.065c-17.991,19.714-43.888,32.065-72.689,32.065
	c-34.904,0-65.562-18.197-83.026-45.614c-2.343,15.171-3.57,30.701-3.57,46.517c0,167.016,135.394,302.397,302.397,302.397
	c167.001,0,302.394-135.382,302.394-302.397c0-13.943-1.027-27.638-2.855-41.079C781.624,549.719,752.771,565.529,720.223,565.529"
	/>
</svg>
