<?xml version="1.0" encoding="utf-8"?>
<!-- Generator: Adobe Illustrator 16.0.0, SVG Export Plug-In . SVG Version: 6.00 Build 0)  -->
<!DOCTYPE svg PUBLIC "-//W3C//DTD SVG 1.1//EN" "http://www.w3.org/Graphics/SVG/1.1/DTD/svg11.dtd">
<svg version="1.1" id="Layer_1" xmlns="http://www.w3.org/2000/svg" xmlns:xlink="http://www.w3.org/1999/xlink" x="0px" y="0px"
	 width="500px" height="500px" viewBox="0 0 500 500" enable-background="new 0 0 500 500" xml:space="preserve">
<g>
	<path d="M124.819,309.628c-11.232,6.457-24.898,9.667-41.005,9.636c-12.957-0.025-24.598-2.282-34.931-6.814
		c-10.334-4.532-19.046-10.737-26.145-18.635c-7.088-7.919-12.517-17.222-16.285-27.871c-3.777-10.679-5.644-22.172-5.62-34.491
		c0.025-12.627,1.937-24.356,5.755-35.164c3.809-10.808,9.275-20.245,16.394-28.28c7.129-8.043,15.866-14.34,26.218-18.9
		c10.351-4.558,22.001-6.83,34.958-6.805c13.109,0.025,24.786,2.343,35.044,6.941c10.258,4.6,18.93,10.93,26.029,19.001
		c7.088,8.064,12.516,17.521,16.284,28.344c3.776,10.822,5.643,22.559,5.618,35.186c-0.024,12.319-1.936,23.766-5.753,34.354
		c-3.809,10.556-9.272,19.877-16.393,27.922l21.045,19.203l-17.328,17.974L124.819,309.628z M119.439,270.539
		c3.168-4.256,5.706-9.553,7.618-15.862c1.91-6.311,2.87-13.971,2.887-22.974c0.014-7.423-0.801-14.606-2.445-21.559
		c-1.645-6.954-4.283-13.157-7.906-18.62c-3.625-5.452-8.35-9.8-14.184-13.05c-5.835-3.25-12.946-4.884-21.312-4.9
		c-8.377-0.016-15.485,1.589-21.332,4.817c-5.848,3.227-10.6,7.557-14.235,12.996c-3.645,5.448-6.308,11.641-7.979,18.589
		c-1.672,6.946-2.515,14.126-2.529,21.548c-0.014,7.104,0.802,14.018,2.447,20.73c1.645,6.722,4.284,12.761,7.908,18.147
		c3.613,5.386,8.349,9.674,14.185,12.926c5.834,3.247,12.936,4.881,21.312,4.896c2.678,0.006,5.523-0.064,8.531-0.213
		c2.999-0.149,5.13-0.859,6.396-2.108l-15.84-14.489l17.33-18.446L119.439,270.539z"/>
	<path d="M252.112,313.909c-7.669,3.301-16.32,4.942-25.959,4.925c-7.576-0.015-14.716-1.13-21.432-3.358
		c-6.704-2.229-12.501-5.519-17.39-9.847c-4.887-4.366-8.744-9.656-11.575-15.907c-2.832-6.254-4.244-13.388-4.229-21.448
		c0.012-6.014,1.053-11.487,3.117-16.457c2.062-4.971,4.876-9.467,8.431-13.49c3.565-4.022,7.64-7.599,12.225-10.752
		c4.585-3.153,9.333-5.91,14.235-8.263c-4.579-5.542-8.394-11.072-11.458-16.61c-3.073-5.531-4.604-12.011-4.59-19.434
		c0.011-5.841,1.246-11.13,3.704-15.869c2.458-4.728,5.743-8.79,9.857-12.174c4.113-3.384,8.811-5.987,14.117-7.789
		c5.286-1.803,10.782-2.708,16.47-2.697c6.467,0.013,12.51,0.891,18.116,2.638c5.599,1.757,10.49,4.329,14.665,7.731
		c4.179,3.411,7.485,7.639,9.925,12.695c2.439,5.065,3.643,10.9,3.629,17.542c-0.02,9.947-2.907,18.309-8.685,25.094
		c-5.778,6.774-12.941,12.449-21.473,17.01l21.733,26.812c1.741-3.149,3.099-6.425,4.067-9.826c0.932-3.391,1.671-6.822,2.141-10.3
		l29.15,0.057c-0.824,7.584-2.573,14.926-5.269,22.026c-2.692,7.108-6.407,13.655-11.161,19.642l34.277,40.109l-41.219-0.079
		l-13.732-16.858C267.004,305.647,259.781,310.61,252.112,313.909z M218.478,245.626c-2.838,1.729-5.376,3.777-7.588,6.135
		c-2.222,2.367-4.001,4.975-5.346,7.807c-1.346,2.831-2.027,5.991-2.034,9.481c-0.006,2.987,0.664,5.881,1.999,8.659
		c1.334,2.741,3.103,5.135,5.317,7.106c2.203,1.971,4.764,3.555,7.693,4.756c2.917,1.183,5.955,1.786,9.115,1.792
		c5.996,0.012,11.253-1.365,15.758-4.114c4.507-2.747,8.737-6.345,12.698-10.753l-28.83-35.355
		C224.249,242.397,221.325,243.886,218.478,245.626z M250.016,172.002c-3.079-3.158-6.669-4.745-10.768-4.752
		c-4.115-0.008-7.665,1.363-10.668,4.124c-3.014,2.76-4.515,6.353-4.523,10.768c-0.01,5.369,1.397,9.951,4.235,13.754
		c2.837,3.794,5.827,7.665,8.98,11.623c4.748-2.989,8.813-6.22,12.223-9.692c3.4-3.464,5.106-8.28,5.118-14.44
		C254.62,178.971,253.088,175.17,250.016,172.002z"/>
	<path d="M434.176,147.012l62.908,169.276l-38.6-0.075l-12.727-37.695l-63.253-0.123l-13.337,37.645l-37.422-0.072l64.277-169.029
		L434.176,147.012z M436.097,250.775l-21.203-62.11l-0.462-0.001l-22.176,62.025L436.097,250.775z"/>
</g>
</svg>
