<?xml version="1.0" encoding="utf-8"?>
<!-- Generator: Adobe Illustrator 16.0.0, SVG Export Plug-In . SVG Version: 6.00 Build 0)  -->
<!DOCTYPE svg PUBLIC "-//W3C//DTD SVG 1.1//EN" "http://www.w3.org/Graphics/SVG/1.1/DTD/svg11.dtd">
<svg version="1.1" id="Layer_1" xmlns="http://www.w3.org/2000/svg" xmlns:xlink="http://www.w3.org/1999/xlink" x="0px" y="0px"
	 width="1000px" height="1000px" viewBox="0 0 1000 1000" enable-background="new 0 0 1000 1000" xml:space="preserve">
<path fill="#676767" d="M536.675,664.959c43.904,0,81.499-26.975,97.128-65.252H439.551
	C455.184,637.984,492.779,664.959,536.675,664.959z M859.568,603.127c-1.969-0.983-3.845-2.166-5.683-3.42h-196.64
	c-16.643,50.67-64.33,87.262-120.571,87.262c-56.236,0-103.921-36.592-120.567-87.262H225.629
	c-9.874,13.681-19.316,27.65-26.573,43.075c7.931-1.135,14.729,1.133,22.66,1.133c7.931,1.135,14.729,3.397,22.661,3.397
	c-4.535,12.461-9.065,23.794-14.729,35.122c-3.396,7.931-5.664,16.996-7.931,24.924c14.729-2.261,30.591-4.532,45.32-4.532
	c-3.401,20.394-7.931,41.92-11.332,62.316c14.729-4.534,29.458-9.066,45.32-12.462c-3.401,21.521,0,41.919,0,63.444
	c13.595-6.801,27.19-15.862,41.919-20.396c4.535,20.396,6.797,41.922,13.596,61.183c11.327-10.195,22.659-19.261,35.12-28.328
	c1.134,4.535,3.401,7.935,5.665,11.331c5.664,15.862,12.465,31.721,20.396,46.45c9.061-12.462,19.26-23.79,29.458-35.116
	c11.328,18.125,23.789,35.116,36.251,52.113l10.197-20.394c3.397-6.798,9.064-12.462,12.466-19.261
	c7.928,6.799,13.591,15.859,21.521,22.657c9.062,6.798,15.864,14.732,23.791,21.525c4.533-14.728,7.931-30.585,14.729-44.183
	c16.995,12.463,33.987,24.929,53.251,33.989c-1.134-7.933,1.133-14.729,1.133-22.659c1.13-7.932,3.397-14.729,3.397-22.656
	c12.461,4.53,23.793,9.058,35.125,14.725c7.927,3.4,16.988,5.664,24.923,7.932c-2.268-14.729-4.533-30.592-4.533-45.321
	c20.392,3.402,41.918,7.935,62.314,11.333c-4.534-14.729-9.068-29.459-12.462-45.32c21.526,3.402,41.915,0,63.445,0
	c-6.801-13.596-15.862-27.189-20.393-41.919c20.393-4.529,41.92-6.797,61.178-13.595c-10.197-11.328-19.258-22.66-28.328-35.117
	c4.535-1.138,7.937-3.405,11.332-5.667c15.863-5.666,31.722-12.462,46.453-20.394c-12.461-9.069-23.792-19.264-35.121-29.459
	c18.13-11.331,35.121-23.792,52.113-36.253L859.568,603.127z M957.92,536.924h-47.259
	c-13.761-161.137-140.5-290.027-300.666-307.109c-30.366-25.262-71.899-37.49-97.674-26.095l-6.191,2.738l-84.087-74.249
	c-8.515-7.454-37.742-25.892-72.434-10.553L29.246,263.298c-18.11,8.006-26.305,29.182-18.294,47.296
	c8.006,18.115,29.186,26.305,47.297,18.299c86.474-38.236,130.384-58.18,217.07-95.851c19.907-8.654,43.583-22.776,65.328-13.102
	c11.96,5.321,20.848,13.241,26.791,23.534c3.991,6.915-0.094,16.224-7.193,19.873l-105.801,54.388
	c-32.444,14.345-55.82,49.94-56.648,105.691c-31.815,36.244-57.639,74.886-74.852,113.498h-73.29L25.601,577.74h173.335
	c0.076,0.021,0.155,0.046,0.23,0.068h211.857c-0.007-0.068,22.261-0.068,22.261-0.068c0.011,0.068,206.778,0.068,206.778,0.068
	c0.008-0.068,22.274-0.068,22.274-0.068c-0.011,0.068,191.733,0.068,191.733,0.068c0.026-0.022,0.05-0.047,0.075-0.068H995v-77.259
	h-23.326L957.92,536.924z"/>
</svg>
