<?xml version="1.0" encoding="utf-8"?>
<!-- Generator: Adobe Illustrator 16.0.4, SVG Export Plug-In . SVG Version: 6.00 Build 0)  -->
<!DOCTYPE svg PUBLIC "-//W3C//DTD SVG 1.1//EN" "http://www.w3.org/Graphics/SVG/1.1/DTD/svg11.dtd">
<svg version="1.1" id="Layer_1" xmlns="http://www.w3.org/2000/svg" xmlns:xlink="http://www.w3.org/1999/xlink" x="0px" y="0px"
	 width="1000px" height="1000px" viewBox="0 0 1000 1000" enable-background="new 0 0 1000 1000" xml:space="preserve">
<path fill="#676767" d="M706.133,782.207c-52.662,49.387-123.482,79.636-201.375,79.636c-162.659,0-294.523-131.866-294.523-294.533
	c0-162.661,131.864-294.525,294.523-294.525c77.893,0,148.713,30.25,201.375,79.631V782.207z M900.711,157.09H109.379
	c-19.233,0-34.837,15.593-34.837,34.824v769.749c0,19.245,15.604,34.837,34.837,34.837h791.332
	c19.232,0,34.836-15.592,34.836-34.837V191.914C935.547,172.683,919.943,157.09,900.711,157.09 M505.044,922.86
	c-197.295,0-357.249-159.942-357.249-357.25c0-197.298,159.953-357.242,357.249-357.242c197.296,0,357.237,159.944,357.237,357.242
	C862.281,762.918,702.34,922.86,505.044,922.86 M936.295,35.828v72.984c0,19.237-15.604,34.827-34.836,34.827H110.115
	c-19.233,0-34.812-15.59-34.812-34.827V35.828C75.303,16.594,90.881,1,110.115,1h791.344C920.691,1,936.295,16.594,936.295,35.828z
	 M170.371,72.26c0-16.017-12.996-29.011-29.012-29.011c-16.015,0-29.012,12.994-29.012,29.011c0,16.032,12.997,29.019,29.012,29.019
	C157.375,101.279,170.371,88.292,170.371,72.26z M247.616,72.26c0-16.017-12.998-29.011-29.024-29.011
	c-16.015,0-29.012,12.994-29.012,29.011c0,16.032,12.997,29.019,29.012,29.019C234.619,101.279,247.616,88.292,247.616,72.26z
	 M781.843,101.227c0-9.798-7.944-17.749-17.749-17.749c-9.803,0-17.748,7.951-17.748,17.749c0,9.807,7.945,17.752,17.748,17.752
	C773.898,118.979,781.843,111.033,781.843,101.227z M831.734,101.227c0-9.798-7.957-17.749-17.761-17.749
	c-9.792,0-17.749,7.951-17.749,17.749c0,9.807,7.957,17.752,17.749,17.752C823.777,118.979,831.734,111.033,831.734,101.227z
	 M881.614,101.227c0-9.798-7.958-17.749-17.749-17.749c-9.804,0-17.748,7.951-17.748,17.749c0,9.807,7.944,17.752,17.748,17.752
	C873.656,118.979,881.614,111.033,881.614,101.227z"/>
</svg>
