<?xml version="1.0" encoding="utf-8"?>
<!-- Generator: Adobe Illustrator 15.0.0, SVG Export Plug-In . SVG Version: 6.00 Build 0)  -->
<!DOCTYPE svg PUBLIC "-//W3C//DTD SVG 1.1//EN" "http://www.w3.org/Graphics/SVG/1.1/DTD/svg11.dtd">
<svg version="1.1" id="Layer_1" xmlns="http://www.w3.org/2000/svg" xmlns:xlink="http://www.w3.org/1999/xlink" x="0px" y="0px"
	 width="1000px" height="1000px" viewBox="0 0 1000 1000" enable-background="new 0 0 1000 1000" xml:space="preserve">
<g>
	<path fill="#676767" d="M167.124,232.749V569.59c0,12.966,10.506,23.468,23.464,23.468h619.244
		c12.95,0,23.451-10.502,23.451-23.468V232.749H167.124z M363.251,526.088H229.293c-8.316,0-15.058-6.746-15.058-15.062
		c0-8.319,6.742-15.058,15.058-15.058h133.958c8.316,0,15.065,6.738,15.065,15.058C378.316,519.342,371.567,526.088,363.251,526.088
		z M363.251,453.586H229.293c-8.316,0-15.058-6.73-15.058-15.05c0-8.32,6.742-15.058,15.058-15.058h133.958
		c8.316,0,15.065,6.738,15.065,15.058C378.316,446.855,371.567,453.586,363.251,453.586z M363.251,381.099H229.293
		c-8.316,0-15.058-6.746-15.058-15.062c0-8.32,6.742-15.058,15.058-15.058h133.958c8.316,0,15.065,6.738,15.065,15.058
		C378.316,374.354,371.567,381.099,363.251,381.099z M363.251,308.602H229.293c-8.316,0-15.058-6.739-15.058-15.055
		c0-8.319,6.742-15.062,15.058-15.062h133.958c8.316,0,15.065,6.742,15.065,15.062C378.316,301.863,371.567,308.602,363.251,308.602
		z M565.76,526.088H431.806c-8.312,0-15.058-6.746-15.058-15.062c0-8.319,6.745-15.058,15.058-15.058H565.76
		c8.322,0,15.061,6.738,15.061,15.058C580.82,519.342,574.082,526.088,565.76,526.088z M565.76,453.586H431.806
		c-8.312,0-15.058-6.73-15.058-15.05c0-8.32,6.745-15.058,15.058-15.058H565.76c8.322,0,15.061,6.738,15.061,15.058
		C580.82,446.855,574.082,453.586,565.76,453.586z M565.76,381.099H431.806c-8.312,0-15.058-6.746-15.058-15.062
		c0-8.32,6.745-15.058,15.058-15.058H565.76c8.322,0,15.061,6.738,15.061,15.058C580.82,374.354,574.082,381.099,565.76,381.099z
		 M565.76,308.602H431.806c-8.312,0-15.058-6.739-15.058-15.055c0-8.319,6.745-15.062,15.058-15.062H565.76
		c8.322,0,15.061,6.742,15.061,15.062C580.82,301.863,574.082,308.602,565.76,308.602z M771.13,526.088H637.176
		c-8.323,0-15.068-6.746-15.068-15.062c0-8.319,6.745-15.058,15.068-15.058H771.13c8.315,0,15.069,6.738,15.069,15.058
		C786.199,519.342,779.445,526.088,771.13,526.088z M771.13,453.586H637.176c-8.323,0-15.068-6.73-15.068-15.05
		c0-8.32,6.745-15.058,15.068-15.058H771.13c8.315,0,15.069,6.738,15.069,15.058C786.199,446.855,779.445,453.586,771.13,453.586z
		 M771.13,381.099H637.176c-8.323,0-15.068-6.746-15.068-15.062c0-8.32,6.745-15.058,15.068-15.058H771.13
		c8.315,0,15.069,6.738,15.069,15.058C786.199,374.354,779.445,381.099,771.13,381.099z M771.13,308.602H637.176
		c-8.323,0-15.068-6.739-15.068-15.055c0-8.319,6.745-15.062,15.068-15.062H771.13c8.315,0,15.069,6.742,15.069,15.062
		C786.199,301.863,779.445,308.602,771.13,308.602z"/>
	<g>
		<path fill="#676767" d="M422.205,620.162c-6.167,0-11.163,4.986-11.163,11.162v78.244c0,47.086-38.311,85.396-85.408,85.396
			c-36.456,0-66.094-29.643-66.094-66.091c0-27.914,22.708-50.631,50.646-50.631c21.094,0,38.266,17.165,38.266,38.267
			c0,15.67-12.729,28.402-28.392,28.402c-11.294,0-20.47-9.187-20.47-20.47c0-6.183-5.003-11.163-11.155-11.163
			c-6.171,0-11.163,4.98-11.163,11.163c0,23.572,19.193,42.772,42.788,42.772c27.96,0,50.703-22.746,50.703-50.705
			c0-33.398-27.167-60.592-60.577-60.592c-40.227,0-72.964,32.729-72.964,72.956c0,48.753,39.659,88.409,88.412,88.409
			c59.394,0,107.718-48.324,107.718-107.715v-78.244C433.353,625.148,428.354,620.162,422.205,620.162z"/>
		<path fill="#676767" d="M690.361,703.003c-29.478,0-53.441,23.956-53.441,53.41c0,24.819,20.178,44.967,44.982,44.967
			c6.16,0,11.162-4.987,11.162-11.147c0-6.175-5.002-11.155-11.162-11.155c-12.5,0-22.672-10.171-22.672-22.664
			c0-17.142,13.958-31.1,31.131-31.1c22.964,0,41.631,18.697,41.631,41.661c0,30.273-24.594,54.883-54.867,54.883
			c-39.355,0-71.364-32.023-71.364-71.379V638.475c0-6.174-5.003-11.17-11.163-11.17s-11.155,4.996-11.155,11.17v112.004
			c0,51.668,42.03,93.689,93.683,93.689c42.562,0,77.193-34.623,77.193-77.193C754.318,731.699,725.63,703.003,690.361,703.003z"/>
		<path fill="#676767" d="M540.451,806.173c-20.268,0-36.741,16.481-36.741,36.749c0,6.159,4.98,11.162,11.141,11.162
			c6.167,0,11.163-5.003,11.163-11.162c0-7.955,6.482-14.424,14.438-14.424c11.464,0,20.809,9.338,20.809,20.809
			c0,15.881-12.928,28.809-28.809,28.809c-21.401,0-38.814-17.405-38.814-38.8V807.99v-36.463V685.26
			c0-6.168-4.988-11.163-11.163-11.163c-6.16,0-11.147,4.995-11.147,11.163v86.268v36.463v31.325
			c0,33.698,27.403,61.11,61.125,61.11c28.178,0,51.127-22.934,51.127-51.119C583.578,825.531,564.22,806.173,540.451,806.173z"/>
	</g>
	<path fill="#676767" d="M809.832,100.248H190.588c-12.958,0-23.464,10.502-23.464,23.468v91.732h666.159v-91.732
		C833.283,110.75,822.782,100.248,809.832,100.248z M233.789,177.4c-10.802,0-19.554-8.755-19.554-19.55
		c0-10.806,8.752-19.554,19.554-19.554c10.791,0,19.547,8.748,19.547,19.554C253.336,168.645,244.58,177.4,233.789,177.4z
		 M285.821,177.4c-10.787,0-19.542-8.755-19.542-19.55c0-10.806,8.755-19.554,19.542-19.554c10.795,0,19.554,8.748,19.554,19.554
		C305.375,168.645,296.616,177.4,285.821,177.4z"/>
</g>
</svg>
