<?xml version="1.0" encoding="utf-8"?>
<!-- Generator: Adobe Illustrator 16.0.0, SVG Export Plug-In . SVG Version: 6.00 Build 0)  -->
<!DOCTYPE svg PUBLIC "-//W3C//DTD SVG 1.1//EN" "http://www.w3.org/Graphics/SVG/1.1/DTD/svg11.dtd">
<svg version="1.1" id="Layer_1" xmlns="http://www.w3.org/2000/svg" xmlns:xlink="http://www.w3.org/1999/xlink" x="0px" y="0px"
	 width="1000px" height="1000px" viewBox="0 0 1000 1000" enable-background="new 0 0 1000 1000" xml:space="preserve">
<path fill="#676767" d="M373.508,377.552c7.408-1,13.242-9.887,15.154-13.163c0.277-1.792,1.824-3.163,3.683-3.163h212.014
	c1.859,0,3.378,1.344,3.673,3.109c1.877,3.235,7.747,12.211,15.2,13.216h118.591L705.282,253.65h-403.79l-37.379,123.902H373.508z"
	/>
<polygon fill="#676767" points="807.831,198.903 807.831,6.104 188.675,6.104 188.675,198.903 134.871,377.552 225.001,377.552 
	272.076,220.671 735.872,220.671 781.472,377.552 864.819,377.552 "/>
<path fill="#676767" d="M133.79,406.737v492.172h61.069v63.607c0,16.353,13.243,29.613,29.605,29.613
	c16.344,0,29.605-13.261,29.605-29.613v-63.607h495.09v63.607c0,16.353,13.233,29.613,29.596,29.613
	c16.353,0,29.614-13.261,29.614-29.613v-63.607h61.051V406.737H133.79z M660.005,662.768h-17.729l11.653,11.651
	c2.706,2.717,2.706,7.141,0,9.866c-1.367,1.357-3.146,2.037-4.943,2.037c-1.777,0-3.564-0.68-4.939-2.037l-21.51-21.518h-16.452
	l11.662,11.651c2.706,2.734,2.706,7.149,0,9.866c-1.366,1.357-3.164,2.046-4.941,2.046c-1.796,0-3.574-0.688-4.933-2.046
	l-21.518-21.518h-60.022l41.282,41.284h32.411c3.86,0,6.97,3.146,6.97,6.978c0,3.87-3.109,6.98-6.97,6.98h-18.443l11.616,11.634
	h32.411c3.86,0,6.988,3.128,6.988,6.971c0,3.86-3.128,6.987-6.988,6.987h-18.453l13.529,13.521c2.717,2.726,2.717,7.141,0,9.865
	c-1.357,1.367-3.153,2.047-4.941,2.047c-1.787,0-3.574-0.68-4.925-2.047l-12.555-12.537v16.469c0,3.87-3.117,6.988-6.97,6.988
	c-3.852,0-6.96-3.118-6.96-6.988v-30.427l-11.645-11.616v16.46c0,3.86-3.117,6.988-6.969,6.988c-3.86,0-6.98-3.128-6.98-6.988
	v-30.418l-41.292-41.285v57.638l22.464,22.5c2.743,2.717,2.743,7.14,0,9.857c-1.339,1.366-3.137,2.046-4.915,2.046
	c-1.796,0-3.574-0.68-4.933-2.046l-12.616-12.608v16.441l22.464,22.483c2.743,2.717,2.743,7.149,0,9.864
	c-1.339,1.377-3.137,2.057-4.915,2.057c-1.796,0-3.574-0.68-4.933-2.057L517.449,787.2v21.241c0,3.843-3.12,6.97-6.971,6.97
	c-3.852,0-6.97-3.127-6.97-6.97v-20.73L491.4,799.809c-1.349,1.359-3.137,2.038-4.933,2.038c-1.779,0-3.567-0.679-4.923-2.038
	c-2.726-2.725-2.726-7.147,0-9.864l21.964-21.965v-16.451l-12.108,12.1c-1.349,1.366-3.137,2.046-4.933,2.046
	c-1.779,0-3.567-0.68-4.923-2.046c-2.726-2.718-2.726-7.141,0-9.866l21.964-21.973v-59.908l-42.464,42.447v30.436
	c0,3.861-3.118,6.971-6.979,6.971c-3.843,0-6.98-3.109-6.98-6.971v-16.486l-11.625,11.643v30.428c0,3.86-3.12,6.988-6.98,6.988
	c-3.852,0-6.979-3.128-6.979-6.988V753.86l-17.523,17.542c-1.368,1.367-3.145,2.046-4.933,2.046c-1.779,0-3.574-0.679-4.942-2.046
	c-2.726-2.727-2.726-7.148,0-9.856l18.516-18.533h-18.453c-3.842,0-6.969-3.11-6.969-6.971s3.127-6.979,6.969-6.979h32.42
	l11.626-11.626H419.76c-3.85,0-6.979-3.128-6.979-6.979c0-3.869,3.128-6.979,6.979-6.979h32.411l40.703-40.712h-59.201
	l-21.525,21.518c-1.358,1.357-3.156,2.046-4.925,2.046c-1.787,0-3.583-0.688-4.94-2.046c-2.726-2.717-2.726-7.132,0-9.866
	l11.661-11.651h-16.452l-21.525,21.518c-1.367,1.357-3.146,2.046-4.933,2.046c-1.788,0-3.565-0.688-4.933-2.046
	c-2.717-2.717-2.717-7.132,0-9.866l11.661-11.651h-24.789c-3.86,0-6.987-3.129-6.987-6.972c0-3.859,3.127-6.978,6.987-6.978h26.174
	l-13.037-13.056c-2.726-2.717-2.726-7.132,0-9.865c2.726-2.717,7.14-2.717,9.874,0l22.911,22.921h16.434l-13.046-13.038
	c-2.726-2.734-2.726-7.149,0-9.883c2.724-2.717,7.14-2.717,9.866,0l22.92,22.921h57.566l-41.857-41.866h-30.435
	c-3.852,0-6.98-3.128-6.98-6.971c0-3.858,3.128-6.986,6.98-6.986h16.478l-11.626-11.636h-30.435c-3.852,0-6.98-3.117-6.98-6.969
	c0-3.861,3.128-6.989,6.98-6.989h16.477l-17.532-17.514c-2.715-2.734-2.715-7.149,0-9.875c2.734-2.725,7.15-2.725,9.865,0
	l18.517,18.506v-18.443c0-3.843,3.127-6.97,6.97-6.97c3.86,0,6.987,3.127,6.987,6.97v32.402l11.636,11.635V565.65
	c0-3.842,3.127-6.97,6.978-6.97c3.843,0,6.972,3.128,6.972,6.97v32.412l41.883,41.882v-59.64l-22.501-22.482
	c-2.717-2.717-2.717-7.131,0-9.865c2.726-2.707,7.148-2.707,9.875,0l12.627,12.618v-16.443l-22.501-22.482
	c-2.717-2.726-2.717-7.148,0-9.865c2.735-2.734,7.148-2.734,9.875,0l12.627,12.608v-22.991c0-3.852,3.118-6.971,6.97-6.971
	c3.851,0,6.971,3.119,6.971,6.971v22.464l12.09-12.081c2.726-2.717,7.148-2.717,9.874,0s2.726,7.148,0,9.865l-21.964,21.946v16.461
	l12.09-12.1c2.726-2.707,7.148-2.707,9.874,0c2.726,2.734,2.726,7.148,0,9.865l-21.964,21.965v58.397l40.703-40.695v-32.41
	c0-3.843,3.126-6.97,6.987-6.97c3.852,0,6.979,3.127,6.979,6.97v18.452l11.608-11.625v-32.412c0-3.842,3.138-6.97,6.986-6.97
	c3.853,0,6.981,3.128,6.981,6.97v18.453l13.511-13.511c2.734-2.734,7.139-2.734,9.883,0c2.717,2.717,2.717,7.148,0,9.865
	l-12.537,12.528h16.47c3.86,0,6.979,3.127,6.979,6.97c0,3.86-3.118,6.988-6.979,6.988h-30.419l-11.634,11.626h16.477
	c3.852,0,6.979,3.128,6.979,6.979c0,3.86-3.128,6.987-6.979,6.987H569l-42.429,42.438h58.389l22.912-22.921
	c2.727-2.717,7.14-2.717,9.874,0c2.706,2.733,2.706,7.148,0,9.865l-13.064,13.056h16.451l22.913-22.921
	c2.741-2.717,7.147-2.717,9.883,0c2.706,2.733,2.706,7.148,0,9.865l-13.048,13.056h19.124c3.851,0,6.97,3.118,6.97,6.978
	C666.975,659.639,663.855,662.768,660.005,662.768z"/>
</svg>
