<?xml version="1.0" encoding="utf-8"?>
<!-- Generator: Adobe Illustrator 16.0.0, SVG Export Plug-In . SVG Version: 6.00 Build 0)  -->
<!DOCTYPE svg PUBLIC "-//W3C//DTD SVG 1.1//EN" "http://www.w3.org/Graphics/SVG/1.1/DTD/svg11.dtd">
<svg version="1.1" id="Layer_1" xmlns="http://www.w3.org/2000/svg" xmlns:xlink="http://www.w3.org/1999/xlink" x="0px" y="0px"
	 width="1000px" height="1000px" viewBox="0 0 1000 1000" enable-background="new 0 0 1000 1000" xml:space="preserve">
<path fill="#676767" d="M992.288,210.672v-70.65c0-14.867-12.063-26.916-26.921-26.916H34.575
	c-14.862,0-26.902,12.049-26.902,26.916v70.65H992.288z"/>
<path fill="#676767" d="M721.597,234.818c-12.979,1.764-23.201,17.314-26.545,23.057c-0.481,3.137-3.179,5.546-6.437,5.546h-371.3
	c-3.228,0-5.917-2.366-6.408-5.469c-3.304-5.651-13.575-21.366-26.603-23.134H7.673v621.513c0,14.868,12.063,26.92,26.916,26.92
	h930.778c14.857,0,26.921-12.052,26.921-26.92V234.818H721.597z M715.517,574.666h-37.056l18.48,18.461
	c3.843,3.845,3.843,10.098,0,13.951c-1.938,1.927-4.461,2.9-6.995,2.9c-2.535,0-5.06-0.974-6.986-2.9l-32.412-32.412H627.27
	l18.469,18.461c3.864,3.845,3.864,10.098,0,13.951c-1.927,1.927-4.45,2.9-6.975,2.9s-5.05-0.974-6.985-2.9l-32.442-32.412h-81.445
	l59.236,59.236h43.069c5.445,0,9.857,4.403,9.857,9.866c0,5.444-4.412,9.866-9.857,9.866H596.87l16.465,16.467h43.07
	c5.454,0,9.875,4.404,9.875,9.857s-4.421,9.886-9.875,9.886h-23.318l24.793,24.801c3.845,3.845,3.845,10.098,0,13.942
	c-1.928,1.936-4.451,2.899-6.995,2.899c-2.523,0-5.05-0.964-6.977-2.899l-26.178-26.179v26.11c0,5.454-4.413,9.866-9.866,9.866
	c-5.456,0-9.886-4.412-9.886-9.866v-45.854L581.511,666.2v26.11c0,5.454-4.413,9.866-9.855,9.866c-5.465,0-9.886-4.412-9.886-9.866
	v-45.862l-59.248-59.238v84.366l31.825,31.797c3.845,3.873,3.845,10.117,0,13.98c-1.936,1.926-4.461,2.881-7.005,2.881
	c-2.494,0-5.039-0.955-6.955-2.881l-17.865-17.854v23.278l31.825,31.816c3.845,3.854,3.845,10.116,0,13.971
	c-1.936,1.917-4.461,2.871-7.005,2.871c-2.494,0-5.039-0.954-6.955-2.871l-17.865-17.863v32.527c0,5.454-4.422,9.876-9.875,9.876
	c-5.464,0-9.877-4.422-9.877-9.876v-31.757l-17.083,17.083c-1.927,1.917-4.451,2.881-6.976,2.881c-2.523,0-5.068-0.964-6.996-2.881
	c-3.854-3.845-3.854-10.107,0-13.961l31.055-31.046v-23.297l-17.083,17.103c-1.927,1.926-4.451,2.881-6.976,2.881
	c-2.523,0-5.068-0.955-6.996-2.881c-3.854-3.863-3.854-10.107,0-13.98l31.055-31.045v-82.632l-57.569,57.57v45.864
	c0,5.442-4.423,9.876-9.877,9.876c-5.444,0-9.866-4.434-9.866-9.876v-26.122L389,683.457v45.873c0,5.452-4.421,9.886-9.877,9.886
	c-5.462,0-9.884-4.434-9.884-9.886v-26.111l-19.127,19.136c-1.916,1.926-4.461,2.89-6.984,2.89c-2.526,0-5.049-0.964-6.976-2.89
	c-3.865-3.854-3.865-10.099,0-13.972l17.729-17.729h-23.318c-5.454,0-9.866-4.412-9.866-9.866c0-5.463,4.413-9.866,9.866-9.866
	h43.07l16.448-16.467h-23.309c-5.443,0-9.875-4.422-9.875-9.875c0-5.454,4.433-9.866,9.875-9.866h43.059l60.066-60.047h-82.631
	l-32.413,32.412c-1.936,1.927-4.461,2.9-6.985,2.9c-2.525,0-5.048-0.974-6.975-2.9c-3.865-3.854-3.865-10.106,0-13.951l18.45-18.461
	h-23.278l-32.412,32.412c-1.918,1.927-4.461,2.9-6.986,2.9c-2.523,0-5.049-0.974-6.976-2.9c-3.863-3.854-3.863-10.106,0-13.951
	l18.452-18.461h-27.064c-5.445,0-9.869-4.433-9.869-9.886c0-5.444,4.424-9.866,9.869-9.866h25.088l-16.476-16.477
	c-3.863-3.854-3.863-10.117,0-13.971c3.854-3.854,10.108-3.854,13.962,0l30.448,30.447h23.278l-16.485-16.496
	c-3.865-3.854-3.865-10.098,0-13.951c3.843-3.854,10.098-3.854,13.96,0l30.439,30.447h84.924l-58.409-58.428h-45.862
	c-5.444,0-9.877-4.423-9.877-9.856c0-5.469,4.433-9.886,9.877-9.886h26.11l-16.457-16.448h-45.854c-5.462,0-9.875-4.427-9.875-9.875
	c0-5.455,4.413-9.872,9.875-9.872h26.112l-19.136-19.136c-3.863-3.854-3.863-10.102,0-13.971c3.845-3.854,10.097-3.854,13.962,0
	l17.728,17.739v-23.312c0-5.444,4.421-9.876,9.875-9.876c5.444,0,9.868,4.432,9.868,9.876v43.059l16.455,16.457v-23.302
	c0-5.453,4.424-9.876,9.886-9.876c5.455,0,9.868,4.423,9.868,9.876v43.045l58.407,58.409v-81.562l-31.796-31.811
	c-3.845-3.854-3.845-10.097,0.009-13.957c3.854-3.858,10.108-3.858,13.962,0l17.825,17.831v-23.27l-31.796-31.806
	c-3.845-3.854-3.845-10.111,0.009-13.966c3.854-3.85,10.108-3.85,13.962,0.005l17.825,17.835v-30.038
	c0-5.439,4.413-9.866,9.877-9.866c5.453,0,9.875,4.427,9.875,9.866v29.325l17.104-17.117c3.883-3.854,10.127-3.854,13.988,0
	c3.835,3.858,3.835,10.117-0.02,13.961l-31.072,31.078v23.269l17.104-17.107c3.872-3.858,10.127-3.858,13.988,0
	c3.835,3.859,3.835,10.103-0.02,13.957l-31.072,31.069v84.799l60.066-60.075v-43.064c0-5.453,4.422-9.871,9.866-9.871
	c5.462,0,9.877,4.417,9.877,9.871v23.322l16.466-16.466v-43.05c0-5.458,4.433-9.88,9.886-9.88c5.434,0,9.866,4.423,9.866,9.88
	v23.308l24.801-24.792c3.854-3.863,10.097-3.863,13.951,0c3.846,3.85,3.846,10.103,0,13.957l-26.198,26.193h26.102
	c5.455,0,9.857,4.427,9.857,9.876c0,5.453-4.402,9.876-9.857,9.876H611.37l-16.466,16.452h26.11c5.453,0,9.857,4.417,9.857,9.871
	c0,5.449-4.404,9.875-9.857,9.875h-45.854l-57.588,57.601h83.747l30.458-30.457c3.863-3.864,10.098-3.864,13.96,0
	c3.864,3.863,3.864,10.098,0,13.961l-16.485,16.496h23.27l30.457-30.457c3.854-3.864,10.108-3.864,13.971,0
	c3.845,3.863,3.845,10.098,0,13.961l-16.515,16.496h35.081c5.464,0,9.878,4.422,9.878,9.866
	C725.395,570.233,720.98,574.666,715.517,574.666z"/>
</svg>
