<?xml version="1.0" encoding="utf-8"?>
<!-- Generator: Adobe Illustrator 15.0.0, SVG Export Plug-In . SVG Version: 6.00 Build 0)  -->
<!DOCTYPE svg PUBLIC "-//W3C//DTD SVG 1.1//EN" "http://www.w3.org/Graphics/SVG/1.1/DTD/svg11.dtd">
<svg version="1.1" id="Layer_1" xmlns="http://www.w3.org/2000/svg" xmlns:xlink="http://www.w3.org/1999/xlink" x="0px" y="0px"
	 width="1000px" height="1000px" viewBox="0 0 1000 1000" enable-background="new 0 0 1000 1000" xml:space="preserve">
<g>
	<path fill="#676767" d="M740.077,255.906c8.458,0,15.332-6.874,15.332-15.332c0-8.463-6.874-15.325-15.332-15.325
		c-8.474,0-15.332,6.862-15.332,15.325C724.745,249.032,731.604,255.906,740.077,255.906z"/>
	<path fill="#676767" d="M740.077,296.715c8.458,0,15.332-6.874,15.332-15.343c0-8.458-6.874-15.329-15.332-15.329
		c-8.474,0-15.332,6.87-15.332,15.329C724.745,289.841,731.604,296.715,740.077,296.715z"/>
	<path fill="#676767" d="M783.872,137.021H215.398c-15.715,0-28.463,12.741-28.463,28.459v668.695
		c0,15.715,12.748,28.455,28.463,28.455h568.474c15.729,0,28.47-12.74,28.47-28.455V165.48
		C812.342,149.762,799.602,137.021,783.872,137.021z M715.723,220.126c0-6.937,5.619-12.56,12.575-12.56h23.558
		c6.941,0,12.575,5.623,12.575,12.56v81.697c0,6.94-5.634,12.563-12.575,12.563h-23.558c-6.956,0-12.575-5.623-12.575-12.563
		V220.126z M609.819,621.36c0-7.79,6.317-14.107,14.093-14.107h127.095c7.79,0,14.115,6.317,14.115,14.107v2.201
		c0,7.79-6.325,14.107-14.115,14.107H623.912c-7.775,0-14.093-6.317-14.093-14.107V621.36z M422.079,621.36
		c0-7.79,6.314-14.107,14.104-14.107h127.091c7.782,0,14.123,6.317,14.123,14.107v2.201c0,7.79-6.341,14.107-14.123,14.107H436.183
		c-7.79,0-14.104-6.317-14.104-14.107V621.36z M331.15,220.825l38.604,98.309h-0.019c2.193,5.089,3.425,10.686,3.425,16.586
		c0,23.197-18.81,42.007-42.011,42.007c-23.197,0-41.996-18.81-41.996-42.007c0-5.949,1.266-11.595,3.508-16.736h-0.042
		L331.15,220.825z M250.472,252.48l18.491-47.138l18.547,47.217h-0.012c1.052,2.426,1.657,5.123,1.657,7.951
		c0,11.14-9.033,20.173-20.192,20.173c-11.14,0-20.155-9.033-20.155-20.173c0-2.858,0.608-5.559,1.694-8.03H250.472z
		 M234.347,621.36c0-7.79,6.314-14.107,14.096-14.107h127.096c7.79,0,14.115,6.317,14.115,14.107v2.201
		c0,7.79-6.325,14.107-14.115,14.107H248.443c-7.782,0-14.096-6.317-14.096-14.107V621.36z M234.347,681.502
		c0-7.812,6.314-14.115,14.096-14.115h127.096c7.79,0,14.115,6.303,14.115,14.115v2.193c0,7.789-6.325,14.107-14.115,14.107H248.443
		c-7.782,0-14.096-6.318-14.096-14.107V681.502z M389.556,800.611c0,7.783-6.321,14.107-14.111,14.107H248.35
		c-7.779,0-14.1-6.324-14.1-14.107v-2.208c0-7.798,6.321-14.108,14.1-14.108h127.095c7.79,0,14.111,6.311,14.111,14.108V800.611z
		 M389.556,740.471c0,7.782-6.321,14.107-14.111,14.107H248.35c-7.779,0-14.1-6.325-14.1-14.107v-2.201
		c0-7.79,6.321-14.107,14.1-14.107h127.095c7.79,0,14.111,6.317,14.111,14.107V740.471z M389.556,566.793
		c0,7.783-6.321,14.107-14.111,14.107H248.35c-7.779,0-14.1-6.324-14.1-14.107v-2.201c0-7.805,6.321-14.114,14.1-14.114h127.095
		c7.79,0,14.111,6.31,14.111,14.114V566.793z M389.556,506.656c0,7.786-6.321,14.104-14.111,14.104H248.35
		c-7.779,0-14.1-6.317-14.1-14.104v-2.201c0-7.794,6.321-14.107,14.1-14.107h127.095c7.79,0,14.111,6.313,14.111,14.107V506.656z
		 M389.556,449.884c0,7.783-6.321,14.104-14.111,14.104H248.35c-7.779,0-14.1-6.321-14.1-14.104v-2.201
		c0-7.806,6.321-14.115,14.1-14.115h127.095c7.79,0,14.111,6.31,14.111,14.115V449.884z M422.079,681.502
		c0-7.812,6.314-14.115,14.104-14.115h127.091c7.782,0,14.123,6.303,14.123,14.115v2.193c0,7.789-6.341,14.107-14.123,14.107
		H436.183c-7.79,0-14.104-6.318-14.104-14.107V681.502z M577.292,800.611c0,7.783-6.325,14.107-14.115,14.107H436.085
		c-7.783,0-14.1-6.324-14.1-14.107v-2.208c0-7.798,6.317-14.108,14.1-14.108h127.091c7.79,0,14.115,6.311,14.115,14.108V800.611z
		 M577.292,740.471c0,7.782-6.325,14.107-14.115,14.107H436.085c-7.783,0-14.1-6.325-14.1-14.107v-2.201
		c0-7.79,6.317-14.107,14.1-14.107h127.091c7.79,0,14.115,6.317,14.115,14.107V740.471z M577.292,566.793
		c0,7.783-6.325,14.107-14.115,14.107H436.085c-7.783,0-14.1-6.324-14.1-14.107v-2.201c0-7.805,6.317-14.114,14.1-14.114h127.091
		c7.79,0,14.115,6.31,14.115,14.114V566.793z M577.292,506.656c0,7.786-6.325,14.104-14.115,14.104H436.085
		c-7.783,0-14.1-6.317-14.1-14.104v-2.201c0-7.794,6.317-14.107,14.1-14.107h127.091c7.79,0,14.115,6.313,14.115,14.107V506.656z
		 M577.292,449.884c0,7.783-6.325,14.104-14.115,14.104H436.085c-7.783,0-14.1-6.321-14.1-14.104v-2.201
		c0-7.806,6.317-14.115,14.1-14.115h127.091c7.79,0,14.115,6.31,14.115,14.115V449.884z M609.819,681.502
		c0-7.812,6.317-14.115,14.093-14.115h127.095c7.79,0,14.115,6.303,14.115,14.115v2.193c0,7.789-6.325,14.107-14.115,14.107H623.912
		c-7.775,0-14.093-6.318-14.093-14.107V681.502z M765.031,800.611c0,7.783-6.324,14.107-14.122,14.107H623.821
		c-7.782,0-14.093-6.324-14.093-14.107v-2.208c0-7.798,6.311-14.108,14.093-14.108h127.088c7.798,0,14.122,6.311,14.122,14.108
		V800.611z M765.031,740.471c0,7.782-6.324,14.107-14.122,14.107H623.821c-7.782,0-14.093-6.325-14.093-14.107v-2.201
		c0-7.79,6.311-14.107,14.093-14.107h127.088c7.798,0,14.122,6.317,14.122,14.107V740.471z M765.031,566.793
		c0,7.783-6.324,14.107-14.122,14.107H623.821c-7.782,0-14.093-6.324-14.093-14.107v-2.201c0-7.805,6.311-14.114,14.093-14.114
		h127.088c7.798,0,14.122,6.31,14.122,14.114V566.793z M765.031,506.656c0,7.786-6.324,14.104-14.122,14.104H623.821
		c-7.782,0-14.093-6.317-14.093-14.104v-2.201c0-7.794,6.311-14.107,14.093-14.107h127.088c7.798,0,14.122,6.313,14.122,14.107
		V506.656z M765.031,449.884c0,7.783-6.324,14.104-14.122,14.104H623.821c-7.782,0-14.093-6.321-14.093-14.104v-2.201
		c0-7.806,6.311-14.115,14.093-14.115h127.088c7.798,0,14.122,6.31,14.122,14.115V449.884z"/>
</g>
</svg>
