<?xml version="1.0" encoding="utf-8"?>
<!-- Generator: Adobe Illustrator 16.0.4, SVG Export Plug-In . SVG Version: 6.00 Build 0)  -->
<!DOCTYPE svg PUBLIC "-//W3C//DTD SVG 1.1//EN" "http://www.w3.org/Graphics/SVG/1.1/DTD/svg11.dtd">
<svg version="1.1" id="Layer_1" xmlns="http://www.w3.org/2000/svg" xmlns:xlink="http://www.w3.org/1999/xlink" x="0px" y="0px"
	 width="1000px" height="1000px" viewBox="0 0 1000 1000" enable-background="new 0 0 1000 1000" xml:space="preserve">
<g>
	<path fill="#676767" d="M993.464,834.329l-66.044-66.04c-6.175-6.18-16.19-6.18-22.369,0l-22.372,22.375l-24.089-24.09
		l108.733-108.738l-43.9-41.861L816.63,724.613L682.394,590.378v0.003L222.79,130.778c-2.738-4.705-7.781-7.903-13.616-7.903H15.82
		c-8.74,0-15.82,7.083-15.82,15.82v24.09c0,8.74,7.081,15.82,15.82,15.82h80.854v98.431c0,8.739,7.086,15.82,15.819,15.82h169.579
		c3.729,0,7.107-1.344,9.811-3.499l380.36,380.364l0,0l100.021,100.021l-93.708,95.327v132.496h63.217V883.389l72.072-72.07
		l24.083,24.087l-22.369,22.371c-6.18,6.179-6.18,16.2,0,22.375l66.039,66.041c6.18,6.178,16.2,6.178,22.375,0l89.49-89.491
		C999.639,850.523,999.639,840.508,993.464,834.329z M128.314,261.217v-82.612h52.816l82.61,82.612H128.314z"/>
</g>
</svg>
