<?xml version="1.0" encoding="utf-8"?>
<!-- Generator: Adobe Illustrator 15.0.0, SVG Export Plug-In . SVG Version: 6.00 Build 0)  -->
<!DOCTYPE svg PUBLIC "-//W3C//DTD SVG 1.1//EN" "http://www.w3.org/Graphics/SVG/1.1/DTD/svg11.dtd">
<svg version="1.1" id="Layer_1" xmlns="http://www.w3.org/2000/svg" xmlns:xlink="http://www.w3.org/1999/xlink" x="0px" y="0px"
	 width="1000px" height="1000px" viewBox="0 0 1000 1000" enable-background="new 0 0 1000 1000" xml:space="preserve">
<path fill="#676767" d="M742.447,536.296h-67.014V0H324.557v536.296h-66.993L36.2,864.573v97.912
	c0,20.727,16.789,37.515,37.505,37.515h852.58c20.727,0,37.515-16.788,37.515-37.515v-97.912L742.447,536.296z M731.058,960.512
	c-14.361,0-26.034-11.643-26.034-26.044c0-14.361,11.673-26.044,26.034-26.044c14.381,0,26.043,11.683,26.043,26.044
	C757.101,948.869,745.438,960.512,731.058,960.512z M804.254,960.512c-14.372,0-26.054-11.643-26.054-26.044
	c0-14.361,11.682-26.044,26.054-26.044c14.361,0,26.033,11.683,26.033,26.044C830.287,948.869,818.615,960.512,804.254,960.512z
	 M877.431,960.512c-14.383,0-26.055-11.643-26.055-26.044c0-14.361,11.672-26.044,26.055-26.044
	c14.382,0,26.054,11.683,26.054,26.044C903.484,948.869,891.812,960.512,877.431,960.512z"/>
</svg>
