<?xml version="1.0" encoding="utf-8"?>
<!-- Generator: Adobe Illustrator 16.0.0, SVG Export Plug-In . SVG Version: 6.00 Build 0)  -->
<!DOCTYPE svg PUBLIC "-//W3C//DTD SVG 1.1//EN" "http://www.w3.org/Graphics/SVG/1.1/DTD/svg11.dtd">
<svg version="1.1" id="Layer_1" xmlns="http://www.w3.org/2000/svg" xmlns:xlink="http://www.w3.org/1999/xlink" x="0px" y="0px"
	 width="1000px" height="1000px" viewBox="0 0 1000 1000" enable-background="new 0 0 1000 1000" xml:space="preserve">
<g>
	<path fill="#676767" d="M21.573,449.016h270.755c0,0,4.591,15.301,9.179,18.358c4.588,3.057,10.709-15.302,9.179-18.358
		c-1.531-3.057,16.823,0,16.823,0s9.175,12.927,7.648,18.702c-1.525,5.774,0.17,62.372,0.17,62.372s21.246,18.358,28.894,22.945
		c7.648,4.588,38.244,0,38.244,0l10.708,52.009l-22.946,15.211l-62.719-56.511c0,0-13.767-9.184-13.767-19.888
		c0-10.706-1.531-42.831-1.531-42.831l-12.235,4.592l-13.767,168.265c0,0-12.241,42.831-15.298,48.949
		c-3.056,6.118-21.415,18.354-44.36,18.354s-145.32,0-145.32,0s-32.125-3.057-32.125-26.004c0-22.946-9.175-125.407-10.706-144.542
		C36.87,551.505,21.573,449.016,21.573,449.016z"/>
	<path fill="#676767" d="M10.867,437.845l265.653-1.673c0,0,21.325,7.002,30.725,4.063c9.4-2.939,18.209,1.306,18.209,1.306v-23.629
		L272,419.325H10.867V437.845z"/>
	<path fill="#676767" d="M6.484,408.524h172.061c0,0,24.839-191.688,55.745-190.398H91.661c0,0-25.845,7.716-32.895,24.749
		c-7.049,17.033-54.628,165.65-54.628,165.65"/>
	<path fill="#676767" d="M189.116,408.524h23.163c0,0,14.958-123.127,18.354-137.797c2.982-12.882,17.08-22.168,26.477-21.581
		c9.396,0.588-13.625-23.316-16.564-23.316c-0.706,0-4.394,1.305-12.938,15.73C210.468,270.499,206.256,303.933,189.116,408.524z"/>
	<path fill="#676767" d="M264.699,256.033c0,0-17.94,0-24.674,17.972c-5.097,13.609-15.79,134.519-15.79,134.519h40.464V386.79
		c0,0-12.737,2.351-10.481-0.588C256.474,383.263,264.699,256.033,264.699,256.033z"/>
	<path fill="#676767" d="M934.45,712.895c-41.403-13.128-99.972-42.413-115.12-56.55
		c-15.146-14.139-201.964-160.562-201.964-160.562l-7.068-75.737l-63.618-47.46l-45.441,11.107c0,0-27.38-0.398-25.917-8.074
		c4.04-21.207-16.496-27.269-20.535-25.25c-4.04,2.02-22.887-7.739-22.887-7.739l-8.078,12.117l-21.333-11.782
		c0,0-9.633-29.64-24.449-38.038c-14.638-8.299-24.237,14.895-24.237,14.895l-65.637-32.062c0,0-6.06-26.421-11.109-27.853
		c-5.049-1.432-9.763,114.697-9.763,114.697l10.434,15.147c0,0,5.388,21.388,17.506,18.772c12.117-2.615,20.046-3.467,30.22,3.522
		c10.172,6.99,125.292,80.706,145.489,99.893s73.717,66.648,73.717,66.648l-5.051,7.068l140.365,123.198
		c0,0,75.737,73.717,80.787,84.825c5.048,11.108-26.256,17.167-26.256,28.275s3.029,25.245,3.029,25.245h157.531v-8.079
		c0,0,100.982-7.068,101.992-37.363S975.854,726.021,934.45,712.895z M588.54,458.72c-5.05-6.059-69.126-55.84-69.126-55.84
		l25.076-8.158l44.05,33.552V458.72z"/>
</g>
</svg>
