<?xml version="1.0" encoding="utf-8"?>
<!-- Generator: Adobe Illustrator 16.0.4, SVG Export Plug-In . SVG Version: 6.00 Build 0)  -->
<!DOCTYPE svg PUBLIC "-//W3C//DTD SVG 1.1//EN" "http://www.w3.org/Graphics/SVG/1.1/DTD/svg11.dtd">
<svg version="1.1" id="Layer_1" xmlns="http://www.w3.org/2000/svg" xmlns:xlink="http://www.w3.org/1999/xlink" x="0px" y="0px"
	 width="1000px" height="1000px" viewBox="0 0 1000 1000" enable-background="new 0 0 1000 1000" xml:space="preserve">
<g>
	<path fill="none" d="M493.474,556.537c145.793,0,223.748-9.215,223.748-57.821c-78.7,0-332.155,0-447.495,0
		C269.727,547.322,347.68,556.537,493.474,556.537z"/>
	<path fill="#5D5E5E" d="M123.727,851.787h748.537c11.334,0,20.544-12.747,20.544-28.47l-87.066-349.692
		c0-15.718-9.221-28.465-20.563-28.465H210.804c-11.332,0-20.544,12.748-20.544,28.465l-87.067,349.692
		C103.193,839.04,112.385,851.787,123.727,851.787z M717.222,498.716c0,48.606-77.955,57.821-223.748,57.821
		c-145.793,0-223.747-9.215-223.747-57.821C385.067,498.716,638.521,498.716,717.222,498.716z"/>
	<path fill="#5D5E5E" d="M649.622,211.48c9.644,9.972,25.553,10.271,35.55,0.618c9.986-9.644,10.264-25.557,0.62-35.55
		c-47.11-48.782-113.089-76.766-181.015-76.766c-76.152,0-149.5,35.21-196.201,94.192c-8.618,10.88-6.781,26.696,4.105,35.314
		c4.615,3.658,10.12,5.431,15.589,5.431c7.415,0,14.76-3.266,19.724-9.536c37.249-47.039,95.857-75.121,156.783-75.121
		C559.139,150.063,611.932,172.449,649.622,211.48z"/>
	<path fill="#5D5E5E" d="M501.281,204.915c-40.77,0-80.056,18.875-105.098,50.487c-8.617,10.885-6.786,26.697,4.1,35.319
		c4.621,3.658,10.125,5.431,15.595,5.431c7.415,0,14.76-3.265,19.725-9.531c15.349-19.385,40.519-31.424,65.679-31.424
		c22.793,0,44.928,9.383,60.733,25.749c9.644,9.982,25.558,10.272,35.55,0.619c9.986-9.648,10.263-25.562,0.619-35.549
		C572.955,219.896,537.636,204.915,501.281,204.915z"/>
	<path fill="#5D5E5E" d="M877.852,869.334H118.149c-13.395,0-24.256,10.86-24.256,24.26v76.826
		c0,13.395,10.861,24.256,24.256,24.256h759.703c13.396,0,24.256-10.861,24.256-24.256v-76.826
		C902.107,880.194,891.248,869.334,877.852,869.334z"/>
	<path fill="#5D5E5E" d="M252.87,161.823c6.644,0,13.277-2.618,18.217-7.812c60.301-63.38,145.14-99.731,232.758-99.731
		c81.694,0,162.591,32.378,221.945,88.835c10.064,9.57,25.983,9.176,35.544-0.889c9.57-10.061,9.174-25.974-0.889-35.545
		C691.835,41.425,598.308,4,503.845,4C402.522,4,304.408,46.046,234.663,119.354c-9.57,10.056-9.177,25.97,0.884,35.541
		C240.413,159.524,246.648,161.823,252.87,161.823z"/>
</g>
</svg>
