<?xml version="1.0" encoding="utf-8"?>
<!-- Generator: Adobe Illustrator 16.0.4, SVG Export Plug-In . SVG Version: 6.00 Build 0)  -->
<!DOCTYPE svg PUBLIC "-//W3C//DTD SVG 1.1//EN" "http://www.w3.org/Graphics/SVG/1.1/DTD/svg11.dtd">
<svg version="1.1" id="Layer_1" xmlns="http://www.w3.org/2000/svg" xmlns:xlink="http://www.w3.org/1999/xlink" x="0px" y="0px"
	 width="1000px" height="1000px" viewBox="0 0 1000 1000" enable-background="new 0 0 1000 1000" xml:space="preserve">
<path fill="#676767" d="M976.004,731.221l-42.893-29.705c17.614-39.631,23.41-83.216,25.22-111.926
	c1.11-17.653-11.208-40.177-26.52-49.038c-104.279-60.332-247.598-91.615-310.358-103.155c-17.409-3.196-43.18,3.161-57.447,13.625
	l-29.192,21.393l-23.784-31.958l42.03-31.271c7.2-5.359,8.692-15.537,3.335-22.742c-5.358-7.2-15.537-8.686-22.75-3.335
	l-110.11,81.931c-7.2,5.358-8.685,15.543-3.334,22.743c5.364,7.205,15.542,8.698,22.742,3.34l42.031-31.277l23.64,31.776
	l-15.461,11.327C478.884,513.408,470.56,536,478.322,551.91c9.08,18.627,21.518,36.211,34.505,54.875
	c19.695,28.293,23.379,61.519,23.379,61.519H378.888l-45.783-91.914l16.829-20.046c0,0-17.84-39.369-62.131-39.369H183.354
	c-9.01,0-12.476-9.849-12.476-13.539c0-8.098,6.925-15.022,6.925-15.022c16.628-14.549-11.695-95.738-18.096-115.676
	c-14.456-45.027-58.296-43.635-58.296,1.38v154.289c0,38.097,28.287,44.528,28.287,44.528s-30.485,11.345-45.39,38.008
	c-6.863,12.277-11.208,24.278-13.98,34.125c-24.365,13.576-46.408,31.54-64.84,53.477c-9.104,10.834-7.712,27.006,3.134,36.111
	c10.821,9.096,26.988,7.705,36.11-3.129c14.78-17.578,32.62-31.709,52.252-42.381c2.01-1.129,4.047-2.197,6.107-3.259
	c1.993-0.993,3.978-1.985,6.001-2.896c16.76-7.526,34.631-12.547,53.138-14.688c6.869-0.794,13.819-1.248,20.825-1.248
	c8.142,0,16.098,0.735,23.966,1.792c27.562,3.702,53.244,13.524,75.474,28.285c48.456,32.172,80.708,87.025,81.131,149.227
	c0,0.336,0.094,0.654,0.106,0.98c-0.356,27.703-7.099,53.838-18.719,77.172v10.771l31.996,31.982h217.763l87.275-64.24
	c-0.643-5.412-1.079-10.896-1.079-16.484c0-75.861,61.711-137.574,137.579-137.574c44.153,0,83.416,21,108.612,53.439h44.292
	c14.161,0,25.639-11.479,25.639-25.633v-5.334C997.09,757.295,987.647,739.275,976.004,731.221z M897.536,614.652
	c-14.142-12.676-7.873-41.35,22.78-58.508c0.612,0.349,1.242,0.692,1.859,1.049c9.043,5.227,17.604,20.975,16.967,31.196
	c-0.706,11.159-2.068,24.465-4.44,38.733C923.562,625.729,906.167,622.408,897.536,614.652z M184.773,690.104
	c-85.572,0-154.939,69.365-154.939,154.938c0,85.578,69.367,154.959,154.939,154.959c85.577,0,154.952-69.381,154.952-154.959
	C339.725,759.469,270.35,690.104,184.773,690.104z M184.773,921.527c-42.155,0-76.468-34.312-76.468-76.486
	c0-42.154,34.312-76.453,76.468-76.453c42.173,0,76.485,34.299,76.485,76.453C261.258,887.215,226.946,921.527,184.773,921.527z
	 M184.773,792.707c-28.905,0-52.346,23.43-52.346,52.334c0,28.912,23.441,52.365,52.346,52.365
	c28.911,0,52.363-23.453,52.363-52.365C237.136,816.137,213.684,792.707,184.773,792.707z M894.472,802.406
	c-20.119-18.164-46.689-29.316-75.925-29.316c-29.248,0-55.817,11.152-75.936,29.316c-22.992,20.768-37.523,50.709-37.523,84.135
	c0,62.666,50.778,113.459,113.459,113.459c62.649,0,113.445-50.793,113.445-113.459
	C931.992,853.115,917.463,823.174,894.472,802.406z M818.547,948.988c-34.443,0-62.468-28.016-62.468-62.447
	c0-34.424,28.024-62.438,62.468-62.438c34.424,0,62.431,28.014,62.431,62.438C880.978,920.973,852.971,948.988,818.547,948.988z
	 M818.547,848.227c-21.187,0-38.345,17.141-38.345,38.314c0,21.168,17.158,38.332,38.345,38.332c21.161,0,38.31-17.164,38.31-38.332
	C856.856,865.367,839.708,848.227,818.547,848.227z"/>
</svg>
