<?xml version="1.0" encoding="utf-8"?>
<!-- Generator: Adobe Illustrator 16.0.4, SVG Export Plug-In . SVG Version: 6.00 Build 0)  -->
<!DOCTYPE svg PUBLIC "-//W3C//DTD SVG 1.1//EN" "http://www.w3.org/Graphics/SVG/1.1/DTD/svg11.dtd">
<svg version="1.1" id="Layer_1" xmlns="http://www.w3.org/2000/svg" xmlns:xlink="http://www.w3.org/1999/xlink" x="0px" y="0px"
	 width="1000px" height="1000px" viewBox="0 0 1000 1000" enable-background="new 0 0 1000 1000" xml:space="preserve">
<path fill="#676767" d="M898.212,0h-791.79C87.179,0,71.58,15.603,71.58,34.847v73.024c0,19.247,15.599,34.846,34.842,34.846h791.79
	c19.245,0,34.843-15.6,34.843-34.846V34.847C933.055,15.603,917.457,0,898.212,0z M198.037,100.333
	c-16.038,0-29.029-12.994-29.029-29.034c0-16.027,12.991-29.028,29.029-29.028c16.023,0,29.026,13,29.026,29.028
	C227.063,87.339,214.06,100.333,198.037,100.333z M275.324,100.333c-16.037,0-29.042-12.994-29.042-29.034
	c0-16.027,13.004-29.028,29.042-29.028c16.023,0,29.027,13,29.027,29.028C304.351,87.339,291.347,100.333,275.324,100.333z
	 M584.422,92.168c0,10.667-8.648,19.319-19.319,19.319H439.532c-10.672,0-19.319-8.652-19.319-19.319V55.943
	c0-10.667,8.647-19.319,19.319-19.318h125.571c10.671,0,19.319,8.651,19.319,19.318V92.168z M729.323,100.333
	c-16.024,0-29.028-12.994-29.028-29.034c0-16.027,13.004-29.028,29.028-29.028c16.023,0,29.027,13,29.027,29.028
	C758.351,87.339,745.347,100.333,729.323,100.333z M806.599,100.333c-16.025,0-29.028-12.994-29.028-29.034
	c0-16.027,13.003-29.028,29.028-29.028c16.036,0,29.04,13,29.04,29.028C835.639,87.339,822.635,100.333,806.599,100.333z
	 M897.8,156.175H106.01c-19.244,0-34.843,15.602-34.843,34.843v770.18c0,19.245,15.599,34.845,34.843,34.845H897.8
	c19.243,0,34.843-15.6,34.843-34.843V191.018C932.643,171.777,917.043,156.175,897.8,156.175z M822.983,705.185
	c0,9.99-8.1,18.091-18.084,18.091H198.921c-9.996,0-18.095-8.101-18.095-18.091V329.64c0-9.991,8.1-18.09,18.095-18.09h605.978
	c9.984,0,18.084,8.099,18.084,18.09V705.185z"/>
</svg>
