<?xml version="1.0" encoding="utf-8"?>
<!-- Generator: Adobe Illustrator 16.0.4, SVG Export Plug-In . SVG Version: 6.00 Build 0)  -->
<!DOCTYPE svg PUBLIC "-//W3C//DTD SVG 1.1//EN" "http://www.w3.org/Graphics/SVG/1.1/DTD/svg11.dtd">
<svg version="1.1" id="Layer_1" xmlns="http://www.w3.org/2000/svg" xmlns:xlink="http://www.w3.org/1999/xlink" x="0px" y="0px"
	 width="1000px" height="1000px" viewBox="0 0 1000 1000" enable-background="new 0 0 1000 1000" xml:space="preserve">
<path fill="#676767" d="M739.085,77.473c0-9.822,7.964-17.789,17.789-17.789c9.812,0,17.788,7.966,17.788,17.789
	c0,9.828-7.976,17.791-17.788,17.791C747.049,95.263,739.085,87.301,739.085,77.473 M789.073,77.473
	c0,9.828,7.962,17.791,17.789,17.791c9.826,0,17.788-7.962,17.788-17.791c0-9.822-7.962-17.789-17.788-17.789
	C797.035,59.684,789.073,67.65,789.073,77.473 M839.062,77.473c0,9.828,7.977,17.791,17.789,17.791
	c9.824,0,17.787-7.962,17.787-17.791c0-9.822-7.963-17.789-17.787-17.789C847.038,59.684,839.062,67.65,839.062,77.473
	 M125.242,74.247c0,16.066,13.013,29.076,29.075,29.076c16.05,0,29.076-13.01,29.076-29.076c0-16.053-13.025-29.075-29.076-29.075
	C138.255,45.172,125.242,58.194,125.242,74.247 M202.643,74.247c0,16.066,13.025,29.076,29.076,29.076
	c16.062,0,29.088-13.01,29.088-29.076c0-16.053-13.025-29.075-29.088-29.075C215.668,45.172,202.643,58.194,202.643,74.247
	 M69.142,145.494V35.45c0-19.275,15.625-34.904,34.9-34.904h793.083c19.274,0,34.901,15.629,34.901,34.904v110.044L69.142,145.494z
	 M104.955,93.535c0,10.687,8.662,19.353,19.351,19.353l752.557,0.001c10.7,0,19.352-8.666,19.352-19.353V57.253
	c0-10.688-8.651-19.354-19.352-19.354l-752.557,0c-10.688,0-19.351,8.666-19.351,19.354V93.535z M790.074,157.588
	c-16.826,2.279-30.09,22.457-34.425,29.891c-0.613,4.073-4.102,7.196-8.337,7.196H265.955c-4.211,0-7.662-3.065-8.324-7.081
	c-4.274-7.338-17.588-27.715-34.5-30.006H69.142V964.1c0,19.275,15.625,34.9,34.9,34.9h793.083c19.274,0,34.901-15.625,34.901-34.9
	V157.588H790.074z"/>
</svg>
