<?xml version="1.0" encoding="utf-8"?>
<!-- Generator: Adobe Illustrator 16.0.4, SVG Export Plug-In . SVG Version: 6.00 Build 0)  -->
<!DOCTYPE svg PUBLIC "-//W3C//DTD SVG 1.1//EN" "http://www.w3.org/Graphics/SVG/1.1/DTD/svg11.dtd">
<svg version="1.1" id="Layer_1" xmlns="http://www.w3.org/2000/svg" xmlns:xlink="http://www.w3.org/1999/xlink" x="0px" y="0px"
	 width="1000px" height="1000px" viewBox="0 0 1000 1000" enable-background="new 0 0 1000 1000" xml:space="preserve">
<path fill="#5D5E5E" d="M744.566,608.282l7.399,6.404l39.146-172.647c0,0,17.154-9.563,39.729-22
	c54.17-29.85,47.384-102.483,47.384-102.483l-148.838,45.371l-83.097,211.069l24.325,2.44
	C694.569,578.842,726.358,592.533,744.566,608.282z M862.443,735.087l-115.182-99.656l-14.976-12.955
	c-15.155-13.11-43.604-25.36-63.546-27.363l-29.594-2.971l-220.732-22.158c-18.553-1.862-33.829,10.672-35.864,28.566
	c-4.469-6.516-8.956-13.057-13.455-19.612c-124.394-181.275-256.964-373.44-256.964-373.44c-1.658-1.771-2.417-3.291-2.782-4.527
	c-0.657-3.221-0.216-8.547,4.456-12.756l33.076-26.176c10.407,6.433,24.089,6.157,34.243-1.871l123.475-97.73
	c12.944-10.22,15.14-29.042,4.903-41.962l-6.142-7.743C293.127-0.224,274.321-2.4,261.38,7.841l-123.476,97.725
	c-10.095,7.978-13.541,21.138-9.756,32.697L95.03,164.464c-14.414,10.908-19.995,28.511-14.679,45.17
	c1.83,6.063,5.153,11.704,9.687,16.539l273.508,398.164l18.767,27.32v23.749c0,7.533,1.336,16.396,3.622,25.394h161.967
	c34.598,0,58.326,31.918,81.274,62.786c21.919,29.486,42.625,57.341,69.747,57.341h190.962V795.11
	C889.885,775.071,877.6,748.198,862.443,735.087z M612.103,776.276c-20.722-27.878-40.294-54.207-64.201-54.207H393.073
	c3.059,7.241,6.582,13.881,10.342,19.141l35.853,50.151c8.333-1.879,16.99-2.903,25.889-2.903c21.354,0,41.37,5.71,58.604,15.683
	c35.031,20.266,58.604,58.14,58.604,101.522c0,22.556-6.387,43.615-17.428,61.493l2.378,3.326
	c11.655,16.301,37.349,29.518,57.39,29.518h228.896c20.039,0,36.283-16.246,36.283-36.284v-121.52H698.923
	C661.108,842.196,636.196,808.684,612.103,776.276z M512.326,823.95c-13.874-8.025-29.982-12.622-47.17-12.622
	c-3.768,0-7.479,0.245-11.133,0.677c-6.859,0.806-13.492,2.349-19.818,4.547c-36.891,12.812-63.381,47.857-63.381,89.111
	c0,4.364,0.303,8.656,0.878,12.863c6.273,46.015,45.722,81.474,93.455,81.474c30.177,0,57.023-14.185,74.292-36.232
	c4.165-5.317,7.792-11.078,10.753-17.226c5.956-12.368,9.293-26.234,9.293-40.879C559.494,870.744,540.521,840.263,512.326,823.95z
	 M499.417,907.771c-0.23,3.781-1.064,7.401-2.425,10.755c-5.089,12.586-17.421,21.465-31.835,21.465
	c-14.408,0-26.742-8.879-31.832-21.465c-1.604-3.972-2.493-8.314-2.493-12.863c0-18.959,15.369-34.329,34.325-34.329
	c3.148,0,6.192,0.432,9.086,1.225c14.551,3.983,25.244,17.292,25.244,33.104C499.486,906.371,499.459,907.072,499.417,907.771z"/>
</svg>
