<?xml version="1.0" encoding="utf-8"?>
<!-- Generator: Adobe Illustrator 16.0.4, SVG Export Plug-In . SVG Version: 6.00 Build 0)  -->
<!DOCTYPE svg PUBLIC "-//W3C//DTD SVG 1.1//EN" "http://www.w3.org/Graphics/SVG/1.1/DTD/svg11.dtd">
<svg version="1.1" id="Layer_1" xmlns="http://www.w3.org/2000/svg" xmlns:xlink="http://www.w3.org/1999/xlink" x="0px" y="0px"
	 width="1000px" height="1000px" viewBox="0 0 1000 1000" enable-background="new 0 0 1000 1000" xml:space="preserve">
<g>
	<path fill="none" d="M536.854,83.521V44.427h-77.952v39.292c13.059-1.31,26.666-2.011,40.856-2.011
		C512.595,81.708,524.951,82.339,536.854,83.521z"/>
	<path fill="none" d="M733.08,817.545c-6.773-2.606-14.104-4.094-21.795-4.094c-7.973,0-15.572,1.577-22.548,4.367
		c-11.062,4.421-20.511,11.985-27.264,21.604c-5.434,7.753-9.079,16.823-10.41,26.644c-0.363,2.69-0.615,5.421-0.615,8.211
		c0,30.285,22.177,55.338,51.173,59.979c3.15,0.506,6.363,0.842,9.664,0.842c25.105,0,46.641-15.215,55.923-36.917
		c3.143-7.336,4.892-15.417,4.892-23.903C772.1,848.38,755.888,826.315,733.08,817.545z"/>
	<path fill="#5D5E5E" d="M943.788,372.62h-119.76c0.288-4.244,0.566-8.487,0.685-12.77c0.15-5.252-4.08-9.565-9.339-9.565H175.146
		c-5.259,0-9.493,4.313-9.344,9.565c0.119,4.283,0.397,8.526,0.685,12.77H46.73c-5.243,0-9.482,4.243-9.482,9.482v18.564v6.464
		c0,5.235,4.239,9.483,9.482,9.483h58.708c5.25,0,9.526-4.228,9.592-9.483l0.02-1.725c0.027-2.625,2.165-4.739,4.796-4.739h49.743
		c17.25,112.379,91.2,205.996,191.77,250.781c-1.524,2.999-2.972,6.063-4.265,9.222L251.985,946.037
		c-7.077,19.212,2.757,40.521,21.974,47.594c4.219,1.557,8.545,2.29,12.805,2.29c15.082,0,29.272-9.28,34.779-24.265l38.521-104.61
		h191.041c1.535-31.271,12.156-60.135,29.391-84.035H391.012l34.881-94.712c2.241-5.263,5.491-9.911,9.344-13.961
		c19.472,3.584,39.513,5.54,60.023,5.54c28.943,0,56.993-3.78,83.744-10.789c6.725,5.054,12.223,11.775,15.657,19.879l23.92,56.51
		c20.167-14.018,43.745-23.359,69.208-26.683l-24.854-58.722c-2.987-7.067-6.647-13.686-10.77-19.923
		c88.758-48.152,152.854-135.854,168.763-239.484h49.745c2.628,0,4.766,2.111,4.806,4.739l0.018,1.725
		c0.065,5.255,4.342,9.483,9.604,9.483h58.688c5.241,0,9.479-4.248,9.479-9.483v-6.464v-18.564
		C953.268,376.863,949.029,372.62,943.788,372.62z"/>
	<path fill="#5D5E5E" d="M711.285,752.307c-1.924,0-3.796,0.198-5.702,0.286c-26.299,1.224-50.427,10.734-69.821,26.082
		c-1.387,1.094-2.735,2.222-4.066,3.369c-24.055,20.78-39.846,50.742-41.998,84.416c-0.167,2.594-0.398,5.181-0.398,7.817
		c0,67.254,54.722,121.966,121.986,121.966c67.251,0,121.968-54.712,121.968-121.966
		C833.253,807.019,778.536,752.307,711.285,752.307z M767.208,898.181c-9.282,21.702-30.817,36.917-55.923,36.917
		c-3.301,0-6.514-0.336-9.664-0.842c-28.996-4.641-51.173-29.693-51.173-59.979c0-2.79,0.252-5.521,0.615-8.211
		c1.331-9.82,4.977-18.891,10.41-26.644c6.753-9.619,16.201-17.184,27.264-21.604c6.976-2.79,14.575-4.367,22.548-4.367
		c7.691,0,15.021,1.487,21.795,4.094c22.808,8.771,39.02,30.835,39.02,56.732C772.1,882.764,770.351,890.845,767.208,898.181z"/>
	<path fill="#5D5E5E" d="M182.179,330.844c0,0,607.15,1.949,622.699-0.05c21.152-2.72,11.968-21.901,11.968-21.901
		S760.38,130.93,577.523,90.026V44.427h42.2c11.229,0,20.335-9.105,20.335-20.335s-9.105-20.335-20.335-20.335H370.782
		c-11.23,0-20.335,9.105-20.335,20.335s9.104,20.335,20.335,20.335h47.448V90.08C238.01,128.909,180.676,290.237,174.539,303.184
		C165.063,323.182,182.179,330.844,182.179,330.844z M458.901,44.427h77.952v39.095c-11.902-1.182-24.259-1.813-37.096-1.813
		c-14.19,0-27.798,0.702-40.856,2.011V44.427z"/>
</g>
</svg>
