<?xml version="1.0" encoding="utf-8"?>
<!-- Generator: Adobe Illustrator 16.0.4, SVG Export Plug-In . SVG Version: 6.00 Build 0)  -->
<!DOCTYPE svg PUBLIC "-//W3C//DTD SVG 1.1//EN" "http://www.w3.org/Graphics/SVG/1.1/DTD/svg11.dtd">
<svg version="1.1" id="Layer_1" xmlns="http://www.w3.org/2000/svg" xmlns:xlink="http://www.w3.org/1999/xlink" x="0px" y="0px"
	 width="1000px" height="1000px" viewBox="0 0 1000 1000" enable-background="new 0 0 1000 1000" xml:space="preserve">
<g>
	<path fill="#5D5E5E" d="M695.257,951.876h-21.492c1.552-2.451,3.072-5.123,4.566-8.215l13.647-42.707
		c0-14.719-14.624-26.648-32.667-26.648h-24.623c0.007-14.318,0.028-14.539,0.028-14.717v-9.547h47.181V733.14l-47.181-5.965
		V487.014c0-25.505-5.271-148.663-90.893-181.191v-48.228H527.51l-6.572-218.264c0,0,4.282-35.254-23.261-35.254
		c-27.542,0-24.623,35.254-24.623,35.254l-6.572,218.264h-16.316v49.109c-83.992,33.788-90.891,155.022-90.891,180.31v240.161
		l-47.182,5.965v116.902h47.182v9.547c0,0.178,0.02,0.398,0.026,14.717h-24.623c-18.041,0-32.68,11.93-32.68,26.648l13.662,42.707
		c1.212,3.092,2.558,5.764,3.969,8.215h-20.895c-11.458,0-20.726,9.277-20.726,20.721v18.822c0,11.441,437.974,11.441,437.974,0
		v-18.822C715.982,961.153,706.713,951.876,695.257,951.876z M595.51,670.661c0,1.211-0.066,2.412-0.166,3.609V851.47H399.183
		V678.657c-0.465-2.656-0.703-5.342-0.703-7.996V498.066c0-25.959,21.418-47.077,47.746-47.077h101.537
		c26.327,0,47.746,21.118,47.746,47.077V670.661z"/>
	<path fill="#5D5E5E" d="M547.764,472.142H446.227c-14.663,0-26.593,11.63-26.593,25.924v172.595c0,1.631,0.169,3.293,0.496,4.941
		l0.206,2.074v152.641h153.855l0.044-157.488c0.066-0.719,0.121-1.439,0.121-2.168V498.066
		C574.356,483.771,562.427,472.142,547.764,472.142z"/>
</g>
</svg>
