<?xml version="1.0" encoding="utf-8"?>
<!-- Generator: Adobe Illustrator 16.0.0, SVG Export Plug-In . SVG Version: 6.00 Build 0)  -->
<!DOCTYPE svg PUBLIC "-//W3C//DTD SVG 1.1//EN" "http://www.w3.org/Graphics/SVG/1.1/DTD/svg11.dtd">
<svg version="1.1" id="Layer_1" xmlns="http://www.w3.org/2000/svg" xmlns:xlink="http://www.w3.org/1999/xlink" x="0px" y="0px"
	 width="1000px" height="1000px" viewBox="0 0 1000 1000" enable-background="new 0 0 1000 1000" xml:space="preserve">
<path fill="#676767" d="M742.691,534.293h-66.263V4h-346.95v530.293h-66.244L44.351,858.896v96.816
	c0,20.495,16.601,37.095,37.085,37.095h843.036c20.494,0,37.095-16.6,37.095-37.095v-96.816L742.691,534.293z M731.429,953.759
	c-14.2,0-25.742-11.512-25.742-25.753c0-14.199,11.542-25.75,25.742-25.75c14.222,0,25.753,11.551,25.753,25.75
	C757.182,942.247,745.65,953.759,731.429,953.759z M803.806,953.759c-14.21,0-25.763-11.512-25.763-25.753
	c0-14.199,11.553-25.75,25.763-25.75c14.201,0,25.742,11.551,25.742,25.75C829.548,942.247,818.007,953.759,803.806,953.759z
	 M876.164,953.759c-14.221,0-25.762-11.512-25.762-25.753c0-14.199,11.541-25.75,25.762-25.75c14.22,0,25.762,11.551,25.762,25.75
	C901.926,942.247,890.384,953.759,876.164,953.759z"/>
</svg>
