<?xml version="1.0" encoding="utf-8"?>
<!-- Generator: Adobe Illustrator 15.1.0, SVG Export Plug-In . SVG Version: 6.00 Build 0)  -->
<!DOCTYPE svg PUBLIC "-//W3C//DTD SVG 1.1//EN" "http://www.w3.org/Graphics/SVG/1.1/DTD/svg11.dtd">
<svg version="1.1" id="Layer_2" xmlns="http://www.w3.org/2000/svg" xmlns:xlink="http://www.w3.org/1999/xlink" x="0px" y="0px"
	 width="1000px" height="1000px" viewBox="0 0 1000 1000" enable-background="new 0 0 1000 1000" xml:space="preserve">
<path fill="#676767" d="M890.204,290.875H783.778H763.04H236.96h-25.257H109.796c0,0-102.78,12.194-102.78,43.55
	c0,31.357,0,60.97,0,60.97s3.486,15.678,15.678,15.678c10.396,0,158.69,0,202.277,0l21.354,16.114h507.237l16.114-16.114
	c34.966,0,196.753,0,207.629,0c12.192,0,15.678-15.678,15.678-15.678s0-29.613,0-60.97
	C992.983,303.069,890.204,290.875,890.204,290.875z M347.343,411.073c-13.948,0-25.257-11.309-25.257-25.26
	c0-13.948,11.31-25.256,25.257-25.256c13.953,0,25.262,11.309,25.262,25.256C372.605,399.764,361.296,411.073,347.343,411.073z
	 M502.382,411.073c-13.95,0-25.259-11.309-25.259-25.26c0-13.948,11.309-25.256,25.259-25.256s25.26,11.309,25.26,25.256
	C527.642,399.764,516.332,411.073,502.382,411.073z M659.162,411.073c-13.951,0-25.26-11.309-25.26-25.26
	c0-13.948,11.309-25.256,25.26-25.256c13.949,0,25.258,11.309,25.258,25.256C684.42,399.764,673.111,411.073,659.162,411.073z"/>
<path fill="#676767" d="M725.475,100.999c-0.536-10.36-3.795-12.195-13.867-12.195c-5.48,0-405.291,0-427.938,0
	c-8.158,0-12.08,2.155-12.855,8.71c-1.049,8.859-15.678,149.812-15.678,149.812v33.098h486.017v-40.066
	C741.152,240.357,726.015,111.437,725.475,100.999z M497.738,113.628c13.952,0,25.262,11.309,25.262,25.258
	c0,13.95-11.31,25.26-25.262,25.26c-13.948,0-25.257-11.31-25.257-25.26C472.481,124.937,483.79,113.628,497.738,113.628z
	 M688.667,249.8c0,4.33-3.511,7.839-7.839,7.839H315.461c-4.33,0-7.839-3.51-7.839-7.839v-5.729c0-4.329,3.509-7.839,7.839-7.839
	h365.367c4.328,0,7.839,3.51,7.839,7.839V249.8z"/>
<path fill="#676767" d="M494.558,438.68H246.325v434.021h6.532l7.007,16.365l0.005,0.002c-17.26,11.361-15.701,34.541-15.701,34.541
	c2.7-3.939,6.009-6.839,9.485-9.012c2.761,10.954,12.651,19.073,24.461,19.073c13.952,0,25.262-11.309,25.262-25.259
	c0-0.473-0.046-0.932-0.072-1.398l0.018,0.007h5.474c0,0,5.749-1.814,5.749-5.032s-10.842-8.28-11.168-14.029
	c-0.333-5.749-7.232-15.258-15.28-15.258h206.461V438.68z M462.769,509.793c0,4.327-3.511,7.839-7.839,7.839H285.956
	c-4.331,0-7.839-3.512-7.839-7.839v-5.729c0-4.33,3.509-7.838,7.839-7.838H454.93c4.328,0,7.839,3.509,7.839,7.838V509.793z"/>
<path fill="#676767" d="M763.263,887.959c-0.331-5.749-7.232-15.258-15.28-15.258h5.58V438.68H505.327v434.021h207.416l7.007,16.365
	l0.006,0.002c-17.261,11.361-15.702,34.541-15.702,34.541c2.7-3.939,6.01-6.839,9.485-9.012
	c2.761,10.954,12.652,19.073,24.461,19.073c13.952,0,25.263-11.309,25.263-25.259c0-0.473-0.046-0.932-0.071-1.398l0.018,0.007
	h5.474c0,0,5.749-1.814,5.749-5.032S763.59,893.708,763.263,887.959z M544.96,517.632c-4.329,0-7.838-3.512-7.838-7.839v-5.729
	c0-4.33,3.509-7.838,7.838-7.838h168.972c4.328,0,7.84,3.509,7.84,7.838v5.729c0,4.327-3.512,7.839-7.84,7.839H544.96z"/>
</svg>
