<?xml version="1.0" encoding="utf-8"?>
<!-- Generator: Adobe Illustrator 16.0.4, SVG Export Plug-In . SVG Version: 6.00 Build 0)  -->
<!DOCTYPE svg PUBLIC "-//W3C//DTD SVG 1.1//EN" "http://www.w3.org/Graphics/SVG/1.1/DTD/svg11.dtd">
<svg version="1.1" id="Layer_1" xmlns="http://www.w3.org/2000/svg" xmlns:xlink="http://www.w3.org/1999/xlink" x="0px" y="0px"
	 width="1000px" height="1000px" viewBox="0 0 1000 1000" enable-background="new 0 0 1000 1000" xml:space="preserve">
<g>
	<path fill="#676767" d="M866.428,877.516c-12.267,0-22.191,9.962-22.191,22.228c0,12.267,9.925,22.213,22.191,22.213
		s22.233-9.946,22.233-22.213C888.661,887.478,878.694,877.516,866.428,877.516z"/>
	<path fill="#676767" d="M354.958,852.691c-14.01,0-25.362,11.373-25.362,25.373c0,14.006,11.352,25.378,25.362,25.378
		c14.015,0,25.377-11.372,25.377-25.378C380.335,864.064,368.973,852.691,354.958,852.691z"/>
	<path fill="#676767" d="M901.558,766.731H775.395c-0.015-4.079-0.084-20.521-0.131-33.912h8.301
		c14.804,0,26.801-10.623,26.801-23.719v-73.657c0-13.096-11.997-23.713-26.801-23.713l-78.522-4.836v-7.789
		c0-8.969-7.267-16.236-16.235-16.236H582.373c-8.709,0-15.754,6.871-16.162,15.48l-46.333-2.854
		c-14.797,0-26.798,10.618-26.798,23.714v89.892c0,13.096,12.001,23.719,26.798,23.719h19.232
		c0.037,11.478,0.09,25.943,0.137,31.551l-67.625-2.765L182.885,446.253l-46.788-159.509c-1.242-4.206-5.649-6.622-9.861-5.38
		l-6.342,1.871c-4.218,1.227-6.633,5.639-5.396,9.851l33.875,115.472L42.147,292.542c-6.717-7.346-18.111-7.844-25.436-1.137
		l-7.748,7.092c-7.336,6.717-7.849,18.106-1.121,25.453L347.32,694.735l-233.404-77.715c-7.034,0-12.747,5.709-12.747,12.747
		v207.566c0,7.049,5.713,12.758,12.747,12.758l125.25,35.656c3.983,60.482,54.319,108.512,115.791,108.512
		c43.917,0,82.21-24.502,101.962-60.54h10.855h184.106H773.35c13.847,38.052,50.201,65.28,93.047,65.28
		c42.877,0,79.294-27.218,93.173-65.28h38.506c0,0,0-37.385,0-83.507C998.075,804.107,954.855,766.731,901.558,766.731z
		 M354.958,950.964c-40.189,0-72.885-32.697-72.885-72.89c0-40.196,32.696-72.898,72.885-72.898
		c40.197,0,72.899,32.702,72.899,72.898C427.857,918.267,395.155,950.964,354.958,950.964z M866.428,961.582
		c-34.161,0-61.817-27.677-61.817-61.823c0-34.162,27.656-61.839,61.817-61.839c34.146,0,61.828,27.677,61.828,61.839
		C928.256,933.905,900.574,961.582,866.428,961.582z"/>
</g>
</svg>
