<?xml version="1.0" encoding="utf-8"?>
<!-- Generator: Adobe Illustrator 16.0.4, SVG Export Plug-In . SVG Version: 6.00 Build 0)  -->
<!DOCTYPE svg PUBLIC "-//W3C//DTD SVG 1.1//EN" "http://www.w3.org/Graphics/SVG/1.1/DTD/svg11.dtd">
<svg version="1.1" id="Layer_1" xmlns="http://www.w3.org/2000/svg" xmlns:xlink="http://www.w3.org/1999/xlink" x="0px" y="0px"
	 width="1000px" height="1000px" viewBox="0 0 1000 1000" enable-background="new 0 0 1000 1000" xml:space="preserve">
<path fill="#676767" d="M898.542,0H103.871C84.556,0,68.899,15.664,68.899,34.977v73.295c0,19.314,15.657,34.97,34.972,34.97
	h794.671c19.316,0,34.972-15.656,34.972-34.97V34.977C933.514,15.664,917.858,0,898.542,0z M850.782,91.125
	c0,10.709-8.68,19.389-19.388,19.389H705.363c-10.708,0-19.389-8.68-19.389-19.389V54.767c0-10.703,8.681-19.389,19.389-19.389
	h126.031c10.708,0,19.388,8.686,19.388,19.389V91.125z M898.13,156.746H103.457c-19.314,0-34.971,15.657-34.971,34.971v772.996
	c0,19.315,15.657,34.972,34.971,34.972H898.13c19.313,0,34.971-15.656,34.971-34.972V191.717
	C933.101,172.403,917.443,156.746,898.13,156.746z M729.6,102.085c-16.081,0-29.133-13.039-29.133-29.146
	c0-16.081,13.052-29.131,29.133-29.131c16.083,0,29.135,13.05,29.135,29.131C758.734,89.046,745.683,102.085,729.6,102.085z
	 M807.158,102.085c-16.084,0-29.135-13.039-29.135-29.146c0-16.081,13.051-29.131,29.135-29.131
	c16.095,0,29.147,13.05,29.147,29.131C836.306,89.046,823.253,102.085,807.158,102.085z"/>
</svg>
