<?xml version="1.0" encoding="utf-8"?>
<!-- Generator: Adobe Illustrator 16.0.0, SVG Export Plug-In . SVG Version: 6.00 Build 0)  -->
<!DOCTYPE svg PUBLIC "-//W3C//DTD SVG 1.1//EN" "http://www.w3.org/Graphics/SVG/1.1/DTD/svg11.dtd">
<svg version="1.1" id="Layer_1" xmlns="http://www.w3.org/2000/svg" xmlns:xlink="http://www.w3.org/1999/xlink" x="0px" y="0px"
	 width="1000px" height="1000px" viewBox="0 0 1000 1000" enable-background="new 0 0 1000 1000" xml:space="preserve">
<g>
	<path fill="#676767" d="M815.982,4.821H192.789c-17.123,0-31.009,13.891-31.009,31.027v927.389
		c0,17.132,13.886,31.018,31.009,31.018h623.193c17.122,0,31.026-13.885,31.026-31.018V35.849
		C847.009,18.712,833.104,4.821,815.982,4.821z M324.597,325.985c0,11.071-8.965,20.05-20.042,20.05h-69.809
		c-11.076,0-20.043-8.979-20.043-20.05V141.313c0-11.071,8.967-20.042,20.043-20.042h69.809c11.076,0,20.042,8.971,20.042,20.042
		V325.985z M540.191,923.781H369.827c-11.067,0-20.052-8.965-20.052-20.042c0-11.065,8.985-20.05,20.052-20.05h170.364
		c11.075,0,20.041,8.984,20.041,20.05C560.232,914.816,551.267,923.781,540.191,923.781z M540.191,839.068l-170.364-0.001
		c-11.067,0-20.052-8.975-20.052-20.041s8.985-20.032,20.052-20.032h170.364c11.075,0,20.041,8.966,20.041,20.032
		C560.232,830.094,551.267,839.068,540.191,839.068z M540.191,754.363H369.827c-11.067,0-20.052-8.975-20.052-20.051
		c0-11.066,8.985-20.041,20.052-20.041h170.364c11.075,0,20.041,8.975,20.041,20.041
		C560.232,745.389,551.267,754.363,540.191,754.363z M540.191,669.641H369.827c-11.067,0-20.052-8.976-20.052-20.041
		c0-11.066,8.985-20.051,20.052-20.051h170.364c11.075,0,20.041,8.984,20.041,20.051
		C560.232,660.665,551.267,669.641,540.191,669.641z M540.191,584.918H369.827c-11.067,0-20.052-8.966-20.052-20.032
		c0-11.067,8.985-20.051,20.052-20.051h170.364c11.075,0,20.041,8.983,20.041,20.051
		C560.232,575.952,551.267,584.918,540.191,584.918z M540.191,500.205H369.827c-11.067,0-20.052-8.967-20.052-20.033
		c0-11.076,8.985-20.042,20.052-20.042h170.364c11.075,0,20.041,8.966,20.041,20.042
		C560.232,491.238,551.267,500.205,540.191,500.205z M540.191,415.496H369.827c-11.067,0-20.052-8.971-20.052-20.042
		c0-11.076,8.985-20.046,20.052-20.046h170.364c11.075,0,20.041,8.971,20.041,20.046
		C560.232,406.525,551.267,415.496,540.191,415.496z M540.191,330.781H369.827c-11.067,0-20.052-8.97-20.052-20.041
		c0-11.072,8.985-20.042,20.052-20.042h170.364c11.075,0,20.041,8.97,20.041,20.042
		C560.232,321.811,551.267,330.781,540.191,330.781z M540.191,246.064H369.827c-11.067,0-20.052-8.966-20.052-20.037
		c0-11.081,8.985-20.046,20.052-20.046h170.364c11.075,0,20.041,8.965,20.041,20.047
		C560.232,237.098,551.267,246.064,540.191,246.064z M540.191,161.35H369.827c-11.067,0-20.052-8.965-20.052-20.037
		c0-11.071,8.985-20.042,20.052-20.042h170.364c11.075,0,20.041,8.971,20.041,20.042C560.232,152.385,551.267,161.35,540.191,161.35
		z M774.025,923.781H603.672c-11.076,0-20.061-8.965-20.061-20.042c0-11.065,8.984-20.05,20.061-20.05h170.354
		c11.076,0,20.043,8.984,20.043,20.05C794.068,914.816,785.102,923.781,774.025,923.781z M774.025,839.068H603.672
		c-11.076,0-20.061-8.975-20.061-20.042c0-11.066,8.984-20.032,20.061-20.032h170.354c11.076,0,20.043,8.966,20.043,20.032
		C794.068,830.094,785.102,839.068,774.025,839.068z M774.025,754.363H603.672c-11.076,0-20.061-8.975-20.061-20.051
		c0-11.066,8.984-20.041,20.061-20.041h170.354c11.076,0,20.043,8.975,20.043,20.041
		C794.068,745.389,785.102,754.363,774.025,754.363z M774.025,669.641H603.672c-11.076,0-20.061-8.976-20.061-20.041
		c0-11.066,8.984-20.051,20.061-20.051h170.354c11.076,0,20.043,8.984,20.043,20.051
		C794.068,660.665,785.102,669.641,774.025,669.641z M774.025,584.918H603.672c-11.076,0-20.061-8.966-20.061-20.032
		c0-11.067,8.984-20.051,20.061-20.051h170.354c11.076,0,20.043,8.984,20.043,20.051S785.102,584.918,774.025,584.918z
		 M774.025,500.205H603.672c-11.076,0-20.061-8.967-20.061-20.033c0-11.076,8.984-20.042,20.061-20.042h170.354
		c11.076,0,20.043,8.966,20.043,20.042C794.068,491.238,785.102,500.205,774.025,500.205z M774.025,415.496H603.672
		c-11.076,0-20.061-8.971-20.061-20.042c0-11.076,8.984-20.046,20.061-20.046h170.354c11.076,0,20.043,8.971,20.043,20.046
		C794.068,406.525,785.102,415.496,774.025,415.496z M774.025,330.782l-170.354,0c-11.076,0-20.061-8.97-20.061-20.041
		c0-11.072,8.984-20.042,20.061-20.042h170.354c11.076,0,20.043,8.97,20.043,20.042
		C794.068,321.811,785.102,330.782,774.025,330.782z M774.025,246.064H603.672c-11.076,0-20.061-8.966-20.061-20.037
		c0-11.082,8.984-20.047,20.061-20.047h170.354c11.076,0,20.043,8.965,20.043,20.047
		C794.068,237.098,785.102,246.064,774.025,246.064z M774.025,161.35H603.672c-11.076,0-20.061-8.965-20.061-20.037
		c0-11.072,8.984-20.042,20.061-20.042h170.354c11.076,0,20.043,8.971,20.043,20.042C794.068,152.385,785.102,161.35,774.025,161.35
		z"/>
	<path fill="#676767" d="M285.313,263.91c-1.483-12.281-17.333-20.893-10.721-40.476c-21.97,9.425-32.228,36.574-33.864,59.894
		c-5.465-4.825-8.448-11.531-8.448-11.531s-5.201,6.706-3.936,23.166c1.219,15.955,10.338,29.703,23.823,35.568
		c-1.753-2.746-2.773-5.993-2.773-9.488c0-7.184,2.446-15.132,7.092-22.952c2.555-4.292,5.711-8.421,9.24-12.145
		c1.765,3.146,4.237,6.311,6.82,9.634c5.765,7.412,12.303,15.81,12.303,25.462c0,3.592-1.082,6.952-2.929,9.738
		c13.096-5.282,21.771-17.745,23.862-34.545c2.854-23.047-14.497-46.826-14.497-46.826S289.604,259.549,285.313,263.91z"/>
</g>
</svg>
