<?xml version="1.0" encoding="utf-8"?>
<!-- Generator: Adobe Illustrator 15.0.0, SVG Export Plug-In . SVG Version: 6.00 Build 0)  -->
<!DOCTYPE svg PUBLIC "-//W3C//DTD SVG 1.1//EN" "http://www.w3.org/Graphics/SVG/1.1/DTD/svg11.dtd">
<svg version="1.1" id="Layer_1" xmlns="http://www.w3.org/2000/svg" xmlns:xlink="http://www.w3.org/1999/xlink" x="0px" y="0px"
	 width="1000px" height="1000px" viewBox="0 0 1000 1000" enable-background="new 0 0 1000 1000" xml:space="preserve">
<path fill="#676767" d="M970.976,446.375H812.977c0.057-39.677,0.162-91.976,0.17-95.854c0-20.459-16.658-29.504-46.451-29.513
	l-48.438-17.858l-94.727-0.033l-52.995,17.798c-29.817-0.016-45.044,7.588-45.052,28.052c0,4.167-0.049-12.789-0.122,42.554H386.633
	l-212.7-302.348L38.196,74.386C25.378,72.994,13.904,82.234,12.5,95.031c-1.392,12.797,7.857,24.301,20.646,25.688l16.642,1.811
	l49.179,69.844c2.274,3.223,5.879,4.94,9.542,4.94c2.315,0,4.663-0.688,6.698-2.12c5.265-3.707,6.526-10.974,2.819-16.239
	l-37.361-53.06l67.269,7.333l187.545,266.589c-1.664,2.682-2.661,5.807-2.661,9.184v69.918h-31.083
	c-9.656,0-17.473,7.825-17.473,17.488v35.591c0,2.108,0.424,4.094,1.107,5.966c-0.021,0.325-0.126,0.635-0.126,0.977l-0.012,10.481
	h15.95c0.184,0,0.362,0.065,0.554,0.065h120.41c0.028,0,0.057-0.017,0.073-0.017l89.303,0.033
	c20.475,0.008,42.822,13.492,54.117,37.076l51.742,126.221L594.967,730.2c-10.01-24.023-34.799-83.821-46.436-114.453
	c-15.365-40.373-38.412-42.31-71.078-42.326c-32.699-0.008-153.784-0.073-182.622-0.089c-28.829-0.017-53.82-0.025-53.82-0.025
	l-34.627,34.579l0.037,0.017l-71.379,71.37v108.431h28.557v-94.938l75.761-73.739l179.761,68.4l-11.043,11.629
	c-13.668-6.729-29.696-8.797-45.581-4.614c-5.05,1.318-9.758,3.271-14.177,5.623l-16.817-15.975
	c-0.728-0.667-1.514-1.204-2.299-1.782c-2.384-2.222-5.249-4.012-8.573-5.054l-64.144-19.979
	c-11.816-3.703-49.382,34.644-37.569,38.338l84.069,23.227l15.446,14.648c-5.033,12.581-6.291,26.822-2.567,40.95
	c1.489,5.632,3.727,10.856,6.481,15.674l-18.896,19.922c-0.646,0.684-1.147,1.456-1.696,2.197c-2.267,2.393-4.102,5.281-5.151,8.643
	l-19.991,64.16c-3.703,11.792,34.656,49.349,38.326,37.565l23.238-84.099l18.367-19.368c12.187,4.516,25.81,5.484,39.311,1.92
	c3.943-1.025,7.67-2.457,11.239-4.126l22.262,21.135c0.704,0.659,1.481,1.18,2.258,1.741c2.393,2.246,5.257,4.069,8.606,5.111
	l64.148,19.994c11.816,3.688,49.39-34.643,37.573-38.354l-84.103-23.21l-19.189-18.213c6.152-13.313,7.882-28.792,3.845-44.075
	c-0.879-3.354-2.083-6.527-3.434-9.611l18.339-19.312c0.631-0.676,1.127-1.416,4.684-5.322l35.237,13.989
	c-0.061,17.619,0.175,42.269-2.132,56.096l102.295,0.081v-2.278l0.936,1.432l65.959-50.977l2.14-1.66
	c-3.157,12.004-4.857,24.609-4.857,37.614c0,81.233,65.86,147.103,147.103,147.103c81.258,0,147.11-65.869,147.11-147.103
	c0-61.198-37.354-113.655-90.527-135.823l105.632-41.057c9.66,0,17.48-7.82,17.48-17.473V463.855
	C988.456,454.199,980.636,446.375,970.976,446.375z M808.761,811.8c-28.003,0-50.692-22.696-50.692-50.691
	c0-28.011,22.689-50.716,50.692-50.716s50.7,22.705,50.7,50.716C859.461,789.104,836.764,811.8,808.761,811.8z"/>
</svg>
