<?xml version="1.0" encoding="utf-8"?>
<!-- Generator: Adobe Illustrator 16.0.0, SVG Export Plug-In . SVG Version: 6.00 Build 0)  -->
<!DOCTYPE svg PUBLIC "-//W3C//DTD SVG 1.1//EN" "http://www.w3.org/Graphics/SVG/1.1/DTD/svg11.dtd">
<svg version="1.1" id="Layer_1" xmlns="http://www.w3.org/2000/svg" xmlns:xlink="http://www.w3.org/1999/xlink" x="0px" y="0px"
	 width="1000px" height="1000px" viewBox="0 0 1000 1000" enable-background="new 0 0 1000 1000" xml:space="preserve">
<path fill="#676767" d="M914.943,7.199h-294.55c-29.089,0-50.342,8.322-63.146,24.738c-15.445,19.762-12.473,43.52-11.021,51.073
	v48.483h-89.463V83.01c1.461-7.553,4.417-31.312-11.007-51.073c-12.812-16.416-34.066-24.738-63.154-24.738H88.045
	c-8.655,0-15.665,7.01-15.665,15.664c0,8.654,7.01,15.668,15.665,15.668h294.558c12.943,0,30.108,2.174,38.334,12.534
	c8.492,10.692,4.963,26.448,4.954,26.483l-0.463,1.872v52.074H394.96c-10.386,0-18.799,8.418-18.799,18.8v33.397h-58.878
	l-58.817,58.817h-24.507c-10.386,0-18.804,8.418-18.804,18.8v171.007c0,10.381,8.418,18.804,18.804,18.804h34.136v521.456
	c0,10.383,8.418,18.795,18.804,18.795h429.194c10.4,0,18.805-8.412,18.805-18.795V451.118h34.145
	c10.391,0,18.804-8.422,18.804-18.804V261.307c0-10.382-8.413-18.8-18.804-18.8h-29.43l-58.818-58.817h-53.963v-33.397
	c0-10.382-8.414-18.8-18.795-18.8h-30.462V81.348l-0.035-1.929l-0.411-1.749c-0.035-0.158-3.56-15.914,4.934-26.605
	c8.229-10.355,25.389-12.534,38.332-12.534h294.55c8.659,0,15.674-7.014,15.674-15.668C930.617,14.209,923.603,7.199,914.943,7.199z
	 M439.22,676.669c-17.355,0-31.395-14.08-31.395-31.397c0-4.461,0.941-8.676,2.647-12.516h-0.052l28.8-73.371l28.854,73.502h-0.014
	c1.627,3.778,2.571,7.959,2.571,12.385C470.631,662.589,456.568,676.669,439.22,676.669z M596.116,736.51h-0.044
	c3.42,7.933,5.343,16.652,5.343,25.836c0,36.112-29.272,65.386-65.394,65.386c-36.126,0-65.39-29.273-65.39-65.386
	c0-9.271,1.98-18.061,5.47-26.063h-0.073l59.993-152.811L596.116,736.51z"/>
</svg>
