<?xml version="1.0" encoding="utf-8"?>
<!-- Generator: Adobe Illustrator 16.0.0, SVG Export Plug-In . SVG Version: 6.00 Build 0)  -->
<!DOCTYPE svg PUBLIC "-//W3C//DTD SVG 1.1//EN" "http://www.w3.org/Graphics/SVG/1.1/DTD/svg11.dtd">
<svg version="1.1" id="Layer_1" xmlns="http://www.w3.org/2000/svg" xmlns:xlink="http://www.w3.org/1999/xlink" x="0px" y="0px"
	 width="1000px" height="1000px" viewBox="0 0 1000 1000" enable-background="new 0 0 1000 1000" xml:space="preserve">
<g>
	<path fill="none" d="M297.868,429.33l12.615-6.303L57.262,273.472c-0.5-0.299-0.875-0.587-1.156-0.808
		c-3.661-2.124-7.163-3.338-9.648-3.338c-1.57,0-2.315,0.468-2.739,0.82c-3.128,2.594-4.172,4.583-4.106,5.579
		c0.056,0.844,1.044,1.667,1.44,1.928l256.812,151.678L297.868,429.33z"/>
	<path fill="none" d="M466.75,404.526l-0.013-0.005c-6.53,15.098-18.139,27.462-32.661,35.01h90.595l-3.043-19.761L466.75,404.526z"
		/>
	<path fill="#666666" d="M969.497,469.863c-9.01-17.967-27.55-30.332-49.019-30.332h-136.01
		c29.773-23.592,48.898-60.044,48.898-100.985c0-27.834-8.856-53.585-23.869-74.646h5.09c7.973,0,14.439-6.466,14.439-14.441v-47.68
		c0-7.972-6.467-14.441-14.439-14.441h-26.081v-9.296c0-12.8-10.381-23.18-23.18-23.18h-85.87c-12.797,0-23.178,10.38-23.178,23.18
		v41.109c-2.399,0.972-4.768,1.992-7.094,3.102l-177.27,26.161c-5.251-8.692-14.768-14.519-25.662-14.519
		c-14.003,0-25.735,9.611-29.042,22.59l-20.345,3.004c-2.139-14.474-14.578-25.594-29.644-25.594
		c-16.57,0-30.002,13.433-30.002,30.005c0,1.478,0.141,2.918,0.347,4.339l-0.347,0.051l1.239,4.098
		c0.073,0.246,0.143,0.493,0.224,0.737l15.087,49.958c-14.613,13.065-23.866,32.005-23.866,53.148
		c0,10.837,2.457,21.087,6.784,30.283l-0.002,0.001L71.288,249.768c-0.196-0.117-0.396-0.219-0.608-0.314
		c-6.403-3.701-10.772-6.118-12.988-7.184c-5.67-2.725-10.753-4.05-15.539-4.05c-5.351,0-10.068,1.685-14.017,5.007
		c-7.453,6.266-12.821,12.03-13.94,13.253c-1.767,1.582-10.602,10.058-9.784,20.728c0.528,6.885,4.765,12.866,12.596,17.785
		c0.801,0.776,1.593,1.388,2.46,1.901l241.514,142.638h-56.242c-21.191,0-39.543,12.041-48.68,29.632
		c-14.851,13.128-25.933,64.311-25.933,125.496c0,64.594,12.345,118.069,28.443,127.361c9.752,15.21,26.766,25.311,46.169,25.311
		h110.526v56.959c0,5.857,4.751,10.609,10.609,10.609h22.69c5.857,0,10.607-4.752,10.607-10.609v-56.959h350.249
		c-0.282,3.225-0.454,6.482-0.454,9.785c0,61.024,49.471,110.496,110.499,110.496c61.024,0,110.494-49.472,110.494-110.496
		c0-3.572-0.182-7.098-0.514-10.583c15.815-2.605,29.322-11.945,37.508-25.015c15.729-10.5,27.693-63.279,27.693-126.859
		C994.648,534.555,983.955,484.071,969.497,469.863z M39.612,275.725c-0.066-0.996,0.978-2.985,4.106-5.579
		c0.424-0.352,1.169-0.82,2.739-0.82c2.485,0,5.987,1.214,9.648,3.338c0.282,0.221,0.656,0.509,1.156,0.808l253.221,149.555
		l-12.615,6.303l-0.003,0.001L41.053,277.652C40.656,277.392,39.668,276.568,39.612,275.725z M434.076,439.531
		c14.522-7.548,26.131-19.912,32.661-35.01l0.013,0.005l54.878,15.244l3.043,19.761H434.076z"/>
</g>
</svg>
