<?xml version="1.0" encoding="utf-8"?>
<!-- Generator: Adobe Illustrator 16.0.0, SVG Export Plug-In . SVG Version: 6.00 Build 0)  -->
<!DOCTYPE svg PUBLIC "-//W3C//DTD SVG 1.1//EN" "http://www.w3.org/Graphics/SVG/1.1/DTD/svg11.dtd">
<svg version="1.1" id="Layer_1" xmlns="http://www.w3.org/2000/svg" xmlns:xlink="http://www.w3.org/1999/xlink" x="0px" y="0px"
	 width="1000px" height="1000px" viewBox="0 0 1000 1000" enable-background="new 0 0 1000 1000" xml:space="preserve">
<g>
	<path fill="#676767" d="M36.778,187.103c-16.331,0-29.708,13.405-29.708,29.738v564.521c0,16.331,13.408,29.738,29.708,29.738
		h626.374c43.871-207.919,48.202-415.958,0-623.998L36.778,187.103z M611.539,661.438c6.519,14.989-13.531,29.737-29.738,29.737
		H101.343c-16.148,0-29.741-13.53-29.741-29.737V336.764c0-16.211,13.407-29.738,29.741-29.738h480.458
		c16.331,0,36.257,14.747,29.738,29.738C554.38,466.438,554.38,531.761,611.539,661.438z"/>
	<path fill="#676767" d="M962.231,187.102H709.221c47.469,208.039,44.604,415.957,0,623.998h253.011
		c16.269,0,29.737-13.407,29.737-29.738V216.84C991.969,200.387,978.562,187.102,962.231,187.102z M832.799,696.902
		c-14.381,0-26.078-11.701-26.078-25.96c0-14.38,11.697-26.08,26.078-26.08c14.323,0,26.02,11.7,26.02,26.08
		C858.818,685.201,847.122,696.902,832.799,696.902z M832.799,595.747c-14.381,0-26.078-11.702-26.078-25.96
		c0-14.382,11.697-26.08,26.078-26.08c14.323,0,26.02,11.698,26.02,26.08C858.818,584.045,847.122,595.747,832.799,595.747z
		 M912.506,696.902c-14.319,0-26.02-11.701-26.02-25.96c0-14.38,11.7-26.08,26.02-26.08c14.382,0,26.083,11.7,26.083,26.08
		C938.589,685.201,926.888,696.902,912.506,696.902z M912.506,595.747c-14.319,0-26.02-11.702-26.02-25.96
		c0-14.382,11.7-26.08,26.02-26.08c14.382,0,26.083,11.698,26.083,26.08C938.589,584.045,926.888,595.747,912.506,595.747z
		 M938.651,352.12c0,3.169-2.626,5.728-5.732,5.728H812.386c-3.106,0-5.665-2.559-5.665-5.728v-74.832
		c0-3.045,2.559-5.728,5.665-5.728h120.533c3.106,0,5.732,2.559,5.732,5.728V352.12z"/>
</g>
</svg>
