<?xml version="1.0" encoding="utf-8"?>
<!-- Generator: Adobe Illustrator 16.0.0, SVG Export Plug-In . SVG Version: 6.00 Build 0)  -->
<!DOCTYPE svg PUBLIC "-//W3C//DTD SVG 1.1//EN" "http://www.w3.org/Graphics/SVG/1.1/DTD/svg11.dtd">
<svg version="1.1" id="Layer_1" xmlns="http://www.w3.org/2000/svg" xmlns:xlink="http://www.w3.org/1999/xlink" x="0px" y="0px"
	 width="1000px" height="1000px" viewBox="0 0 1000 1000" enable-background="new 0 0 1000 1000" xml:space="preserve">
<g>
	<path fill="#676767" d="M992.285,623.652c-1.896-13.18-14.163-22.325-27.352-20.432c-9.904,1.434-17.549,8.728-19.887,17.855
		l-72.276,111.775V595.679h-62.142c-0.042-137.484-0.152-108.201-0.152-114.113c0-24.702-18.385-33.881-54.344-33.881
		l-63.934-21.512H577.89l-58.497,21.512c-35.909,0-56.038,10.916-56.038,35.592c0,4.052,0.068,60.456,0.131,112.402h-28.109v-76.362
		c0-10.434-8.459-18.888-18.892-18.888h-86.58c-10.433,0-18.892,8.454-18.892,18.888v80.279h-28.559
		c-10.433,0-18.892,8.462-18.892,18.896v151.121c0,10.435,8.459,18.896,18.892,18.896h118.802v16.713h59.68
		c0.442,26.661,6.812,51.87,17.813,74.383l-29.801,35.542H310.14c-8.006-0.068-78.205-2.918-78.205-80.21V265.821
		c0-0.691-0.035-1.378-0.112-2.06c-0.277-2.5-3.211-24.924-21.759-43.467c-13.977-13.983-71.421-75.663-72.006-76.286
		c-7.108-7.635-19.055-8.062-26.695-0.947c-7.635,7.106-8.062,19.058-0.951,26.694c2.381,2.559,58.485,62.798,72.941,77.25
		c7.935,7.934,10.301,17.728,10.802,20.257v567.674c0,60.767,31.983,89.85,58.81,103.552c27.935,14.256,55.832,14.435,57.09,14.435
		c0,0,0.003,0,0.009,0v7.694c0,10.426,8.454,18.889,18.889,18.889h27.524c10.43,0,18.889-8.463,18.889-18.889v-7.694h82.398
		c5.589,0,10.886-2.474,14.474-6.757l27.823-33.169c32.266,39.908,81.559,65.468,136.919,65.468
		c96.324,0,174.496-77.293,176.092-173.243h60.699c14.007,0,25.447-10.526,27.128-24.066l0.351,0.034l87.717-141.712
		C991.755,634.88,993.129,629.394,992.285,623.652z M636.979,873.702c-39.441,0-71.382-31.958-71.382-71.406
		c0-39.551,31.924-71.424,71.382-71.424c39.473,0,71.447,31.873,71.447,71.424C708.426,841.727,676.485,873.702,636.979,873.702z"/>
	<path fill="#676767" d="M161.176,358.712c-8.697,0-15.744,7.046-15.744,15.744v248.718c0,8.702,7.047,15.749,15.744,15.749
		c8.694,0,15.741-7.047,15.741-15.749V374.457C176.917,365.759,169.87,358.712,161.176,358.712z"/>
	<path fill="#676767" d="M112.552,359.204c-8.697,0-15.744,7.046-15.744,15.744v36.675c-39.303-23.358-57.743-53.683-62.312-90.248
		c-11.47-91.809,60.478-200.794,92.273-233.4l2.73,9.841c0.763,1.664,1.544,3.05,2.325,3.895c2.883,3.123,7.088,5.302,12.225,6.748
		l73.897,73.902c14.677,14.673,42.588,6.995,45.724,6.069c1.514-0.444,2.892-1.267,4.009-2.38l45.475-45.476
		c0.077-0.077,0.125-0.17,0.202-0.247c6.615,5.404,12.583,7.315,18.576,1.322l0.438-0.439l190.143,190.135l-4.623,4.632
		l23.443,23.453l28.954-28.934l-23.459-23.451l-4.53,4.525L352.156,121.426l1.792-1.796c6.066-6.062,7.255-15.386-11.756-34.397
		c-19.004-19.003-45.408-46.277-56.272-57.146c-15.178-15.176-25.798-1.519-63.388,3.4c-23.849,3.126-74.015-11.748-94.503,4.936
		c-3.974,3.237-5.498,11.64-5.542,21.378c-1.139,0.546-2.239,1.211-3.211,2.12C113.098,65.705-5.647,202.928,9.496,324.455
		c5.844,46.892,30.639,84.822,81.229,112.74c1.928,1.066,4.014,1.574,6.07,1.574c0.004,0,0.012,0,0.012,0v184.9
		c0,8.693,7.047,15.74,15.744,15.74c8.694,0,15.741-7.047,15.741-15.74V374.948C128.292,366.25,121.246,359.204,112.552,359.204z
		 M249.474,100.201c21.882-2.308,37.673,13.368,50.491,26.881c-0.055,0.047-0.12,0.085-0.17,0.137l-43.662,43.663
		c-7.106,1.642-20.018,2.93-24.826-1.882l-58.318-58.314C200.795,109.439,233.908,101.843,249.474,100.201z"/>
</g>
</svg>
