<?xml version="1.0" encoding="utf-8"?>
<!-- Generator: Adobe Illustrator 16.0.4, SVG Export Plug-In . SVG Version: 6.00 Build 0)  -->
<!DOCTYPE svg PUBLIC "-//W3C//DTD SVG 1.1//EN" "http://www.w3.org/Graphics/SVG/1.1/DTD/svg11.dtd">
<svg version="1.1" id="Layer_1" xmlns="http://www.w3.org/2000/svg" xmlns:xlink="http://www.w3.org/1999/xlink" x="0px" y="0px"
	 width="1000px" height="1000px" viewBox="0 0 1000 1000" enable-background="new 0 0 1000 1000" xml:space="preserve">
<path fill="#676767" d="M973.892,58.535c-6.278-0.094-12.361,0.198-18.54,1.066c-3.429-5.079-7.587-9.562-11.723-14.064
	c-5.146-4.944-10.621-9.499-16.524-13.526c0.587-6.018,0.715-12.138,0.506-18.516c-5.4,2.929-10.714,6.62-15.514,10.27l-0.999-0.464
	c-0.371-6.218-1.285-12.237-2.612-18.387c-4.892,3.994-9.355,8.075-13.535,12.708c-5.896-1.649-11.954-2.529-18.028-3.225
	c-7.115-0.531-14.251-0.505-21.343,0.241c-3.411-4.946-7.25-9.842-11.504-14.639c-2.199,5.979-3.957,12.006-5.315,17.866
	l-1.062,0.26c-4.229-4.433-8.778-8.409-13.778-12.399c-1.255,6.03-1.913,12.404-2.237,18.468c-5.612,2.42-10.828,5.709-15.873,9.124
	c-5.863,4.002-11.243,8.9-16.229,13.719l-17.229-5.608l5.613,17.228l-0.742,0.737l-17.228-5.612l5.609,17.229L738.7,97.918
	l-17.224-5.612l5.607,17.226l-0.74,0.744l-17.225-5.614l5.609,17.229l-26.91,26.907l-17.226-5.61l5.615,17.223l-0.747,0.744
	l-17.226-5.612l5.61,17.227l-26.903,26.908l-17.229-5.612l5.607,17.226l-0.74,0.746l-17.225-5.616l5.611,17.229l-26.912,26.909
	l-17.218-5.616l5.609,17.229l-0.746,0.743l-17.229-5.61l5.621,17.223L535.18,301.44l-17.23-5.615l5.615,17.228l-0.742,0.743
	l-17.229-5.611l5.611,17.226l-26.907,26.909l-17.225-5.612l5.61,17.226l-0.742,0.743l-17.229-5.613l5.617,17.229l-26.913,26.905
	l-17.23-5.609l5.614,17.222l-0.74,0.746l-17.229-5.612l5.616,17.228l-17.924,17.925c-29.279-9.066-60.469-3.522-81.447,17.458
	l-3.25,3.252l-71.452-26.427c-7.219-2.635-30.247-7.152-48.465,11.064L18.694,618.655c-9.503,9.51-9.509,24.93,0.005,34.441
	c9.509,9.51,24.927,9.51,34.442,0c45.402-45.406,71.735-72.667,117.412-117.769c10.482-10.356,22.017-25.103,38.161-24.304
	c8.462,0.418,16.172,4.854,23.282,10.896c5.571,4.736,5.325,13.39,0.152,18.563l-57.473,57.471
	c-20.582,20.586-26.297,50.991-17.94,79.78c2.036,7.022,1.83,17.709-1.505,24.217l-71.441,139.49
	c-10.04,19.757-12.598,42.103-9.587,63.322c3.11,21.188,11.83,41.748,27.311,57.348l20.802,20.807
	c10.013,10.028,23.449,14.902,36.482,14.637c13.062-0.219,26.134-5.471,36.042-15.391l323.979-323.975
	c15.129-15.125,22.214-35.552,21.606-56.745l3.279-3.435l20.355-20.356l17.224,5.615l-5.614-17.227l0.745-0.745l17.224,5.614
	l-5.612-17.227l26.91-26.914l17.229,5.618l-5.61-17.227l0.739-0.745l17.227,5.617l-5.609-17.231l26.905-26.909l17.225,5.613
	l-5.609-17.226l0.746-0.749l17.226,5.616l-5.616-17.227l26.911-26.906l17.229,5.61l-5.618-17.227l0.744-0.743l17.229,5.611
	l-5.615-17.224l26.905-26.909l17.229,5.613l-5.608-17.228l0.741-0.741l17.226,5.612l-5.611-17.229l26.912-26.906l17.223,5.611
	l-5.616-17.227l0.749-0.742l17.224,5.611l-5.616-17.226l26.911-26.906l17.229,5.608l-5.615-17.225l0.743-0.746l17.229,5.616
	l-5.612-17.229l26.907-26.908l17.224,5.615l-5.608-17.226l0.741-0.746l17.227,5.613c-1.872-5.765-3.74-11.43-5.619-17.278
	c4.195-4.459,8.215-9.05,11.668-14.123c4.071-5.833,7.562-12.095,10.402-18.633c6.258-0.406,12.12-1.435,18.35-2.779
	c-3.939-4.825-8.206-9.296-12.839-13.426l0.264-1.069c5.92-1.494,11.965-3.404,17.654-5.817c-4.9-4.112-9.621-7.78-14.876-11.07
	c0.499-6.103,0.42-12.208-0.038-18.312c-0.678-7.105-2.051-14.104-3.952-20.99c4.252-4.223,8.337-8.851,12.267-13.878
	c-6.014-1.214-12.519-1.771-18.497-2.074l-0.463-0.992C967.851,69.289,970.918,64.129,973.892,58.535z M265.58,804.329
	c8.446,8.312,16.093,30.665-1.566,48.322l-99.343,99.347c-1.99,1.976-4.357,2.841-6.625,2.898c-2.289,0.005-4.079-0.696-5.557-2.152
	l-20.803-20.805c-7.499-7.374-13.361-19.766-15.255-33.272c-0.531-3.59-0.768-7.228-0.743-10.821l6.457,1.552
	c6.079,1.462,12.194-2.285,13.657-8.367l9.761-40.634c1.015-4.228-0.496-8.473-3.552-11.155l50.781-79.41
	c3.947-6.162,11.33-6.965,16.503-1.792L265.58,804.329z M923.726,203.099L538.983,587.846c-0.996-5.472-2.488-10.928-4.489-16.294
	L913.34,192.709c4.209-4.221,8.546-8.521,12.653-12.677c3.258-3.555,6.479-7.114,9.162-11.101
	c10.909-15.707,16.249-35.282,14.492-54.465c-1.747-19.187-10.328-37.373-23.853-51.098c-13.727-13.523-31.912-22.109-51.097-23.851
	c-19.182-1.76-38.757,3.581-54.467,14.488c-3.983,2.686-7.55,5.906-11.099,9.165c-4.155,4.109-8.455,8.445-12.679,12.655
	l-380.593,380.59c-4.39-2.793-8.914-5.201-13.529-7.249L786.064,65.435c8.719-8.531,16.483-17.335,25.764-23.481
	c18.529-12.884,41.615-19.141,64.171-17.07l0,0c22.553,2.018,44.097,12.174,60.188,28.098
	c15.919,16.087,26.073,37.631,28.096,60.184c2.067,22.554-4.185,45.643-17.075,64.171
	C941.063,186.618,932.261,194.379,923.726,203.099z"/>
</svg>
