<?xml version="1.0" encoding="utf-8"?>
<!-- Generator: Adobe Illustrator 16.0.4, SVG Export Plug-In . SVG Version: 6.00 Build 0)  -->
<!DOCTYPE svg PUBLIC "-//W3C//DTD SVG 1.1//EN" "http://www.w3.org/Graphics/SVG/1.1/DTD/svg11.dtd">
<svg version="1.1" id="Layer_1" xmlns="http://www.w3.org/2000/svg" xmlns:xlink="http://www.w3.org/1999/xlink" x="0px" y="0px"
	 width="1000px" height="1000px" viewBox="0 0 1000 1000" enable-background="new 0 0 1000 1000" xml:space="preserve">
<path fill="#676767" d="M838.477,34.056V962.43c0,19.277-15.624,34.9-34.896,34.9H494.37V-0.84h309.211
	C822.853-0.84,838.477,14.784,838.477,34.056z M482.275,997.33H206.929c-19.272,0-34.893-15.623-34.893-34.9V34.056
	c0-19.272,15.621-34.896,34.893-34.896h275.346v225.033c-2.296,16.904-22.664,30.204-29.997,34.478
	c-4.015,0.663-7.087,4.125-7.087,8.324v481.298c0,4.235,3.128,7.724,7.203,8.337c7.428,4.349,27.601,17.597,29.881,34.414V997.33z
	 M381.278,388.784c0-10.689-8.663-19.352-19.352-19.352h-94.32c-10.688,0-19.351,8.663-19.351,19.352v101.572
	c0,10.689,8.664,19.35,19.351,19.35h94.32c10.689,0,19.352-8.661,19.352-19.35V388.784z M558.235,258.67
	c-7.338-4.274-27.702-17.573-29.998-34.478V-1h-12.095v998.336h12.095V791.043c2.282-16.817,22.448-30.065,29.886-34.414
	c4.067-0.613,7.199-4.102,7.199-8.337V266.994C565.322,262.795,562.246,259.333,558.235,258.67z"/>
</svg>
