<?xml version="1.0" encoding="utf-8"?>
<!-- Generator: Adobe Illustrator 16.0.4, SVG Export Plug-In . SVG Version: 6.00 Build 0)  -->
<!DOCTYPE svg PUBLIC "-//W3C//DTD SVG 1.1//EN" "http://www.w3.org/Graphics/SVG/1.1/DTD/svg11.dtd">
<svg version="1.1" id="Layer_1" xmlns="http://www.w3.org/2000/svg" xmlns:xlink="http://www.w3.org/1999/xlink" x="0px" y="0px"
	 width="1000px" height="1000px" viewBox="0 0 1000 1000" enable-background="new 0 0 1000 1000" xml:space="preserve">
<g>
	<path fill="#676767" d="M727.222,663.496c-46.023,0-83.327,37.311-83.327,83.336c0,46.014,37.304,83.32,83.327,83.32
		c46.01,0,83.327-37.307,83.327-83.32C810.549,700.807,773.231,663.496,727.222,663.496z M727.222,801.977
		c-30.459,0-55.152-24.693-55.152-55.152s24.693-55.154,55.152-55.154c30.456,0,55.152,24.695,55.152,55.154
		S757.678,801.977,727.222,801.977z"/>
	<path fill="#676767" d="M727.222,614.555c-73.051,0-132.271,59.225-132.271,132.277c0,73.049,59.22,132.264,132.271,132.264
		s132.255-59.215,132.255-132.264C859.477,673.779,800.272,614.555,727.222,614.555z M727.222,849.137
		c-56.512,0-102.312-45.814-102.312-102.318c0-56.5,45.801-102.311,102.312-102.311c56.499,0,102.31,45.811,102.31,102.311
		C829.531,803.322,783.721,849.137,727.222,849.137z"/>
	<path fill="#676767" d="M270.871,663.496c-46.022,0-83.333,37.311-83.333,83.336c0,46.014,37.311,83.32,83.333,83.32
		c46.01,0,83.328-37.307,83.328-83.32C354.198,700.807,316.881,663.496,270.871,663.496z M270.871,801.977
		c-30.462,0-55.151-24.693-55.151-55.152s24.689-55.154,55.151-55.154c30.458,0,55.153,24.695,55.153,55.154
		S301.329,801.977,270.871,801.977z"/>
	<path fill="#676767" d="M270.865,614.555c-73.045,0-132.263,59.225-132.263,132.277c0,73.049,59.217,132.264,132.263,132.264
		c73.051,0,132.262-59.215,132.262-132.264C403.127,673.779,343.916,614.555,270.865,614.555z M270.871,849.137
		c-56.512,0-102.316-45.814-102.316-102.318c0-56.5,45.804-102.311,102.316-102.311c56.5,0,102.31,45.811,102.31,102.311
		C373.181,803.322,327.371,849.137,270.871,849.137z"/>
	<path fill="#676767" d="M727.222,701.904c-24.808,0-44.928,20.111-44.928,44.92c0,24.807,20.12,44.918,44.928,44.918
		s44.924-20.111,44.924-44.918C772.146,722.016,752.029,701.904,727.222,701.904z"/>
	<path fill="#676767" d="M270.865,124.555c-90.979,0-164.741,73.761-164.741,164.747c0,90.985,73.762,164.734,164.741,164.734
		c90.986,0,164.741-73.749,164.741-164.734C435.606,198.316,361.852,124.555,270.865,124.555z M270.871,416.731
		c-70.381,0-127.435-57.061-127.435-127.441c0-70.375,57.054-127.43,127.435-127.43c70.376,0,127.43,57.054,127.43,127.43
		C398.3,359.67,341.247,416.731,270.871,416.731z"/>
	<path fill="#676767" d="M270.871,232.609c-31.312,0-56.687,25.381-56.687,56.693c0,31.305,25.375,56.681,56.687,56.681
		c31.307,0,56.681-25.376,56.681-56.681C327.551,257.99,302.177,232.609,270.871,232.609z"/>
	<path fill="#676767" d="M270.871,701.904c-24.808,0-44.925,20.111-44.925,44.92c0,24.807,20.118,44.918,44.925,44.918
		c24.808,0,44.92-20.111,44.92-44.918C315.791,722.016,295.679,701.904,270.871,701.904z"/>
	<path fill="#676767" d="M727.222,124.555c-90.986,0-164.747,73.761-164.747,164.747c0,90.985,73.761,164.734,164.747,164.734
		c90.985,0,164.732-73.749,164.732-164.734C891.954,198.316,818.207,124.555,727.222,124.555z M727.222,416.731
		c-70.381,0-127.431-57.061-127.431-127.441c0-70.375,57.05-127.43,127.431-127.43s127.43,57.054,127.43,127.43
		C854.651,359.67,797.603,416.731,727.222,416.731z"/>
	<path fill="#676767" d="M963.178,0H36.198C16.965,0,1.375,15.59,1.375,34.823v926.58c0,19.23,15.59,34.834,34.823,34.834h926.979
		c19.231,0,34.822-15.604,34.822-34.834V34.823C998,15.59,982.409,0,963.178,0z M270.865,909.229
		c-89.694,0-162.402-72.713-162.402-162.41c0-89.689,72.708-162.402,162.402-162.402c89.694,0,162.408,72.713,162.408,162.402
		C433.273,836.516,360.559,909.229,270.865,909.229z M270.865,491.578c-111.716,0-202.277-90.574-202.277-202.288
		c0-111.709,90.561-202.277,202.277-202.277c111.721,0,202.282,90.568,202.282,202.277
		C473.147,401.003,382.586,491.578,270.865,491.578z M727.222,909.229c-89.7,0-162.403-72.713-162.403-162.41
		c0-89.689,72.703-162.402,162.403-162.402c89.688,0,162.402,72.713,162.402,162.402
		C889.624,836.516,816.91,909.229,727.222,909.229z M727.222,491.578c-111.716,0-202.277-90.574-202.277-202.288
		c0-111.709,90.562-202.277,202.277-202.277c111.713,0,202.275,90.568,202.275,202.277
		C929.497,401.003,838.935,491.578,727.222,491.578z"/>
	<path fill="#676767" d="M727.222,185.507c-57.324,0-103.796,46.472-103.796,103.794c0,57.316,46.472,103.782,103.796,103.782
		c57.309,0,103.78-46.465,103.78-103.782C831.002,231.979,784.53,185.507,727.222,185.507z M727.222,358.897
		c-38.441,0-69.607-31.167-69.607-69.607c0-38.441,31.166-69.597,69.607-69.597c38.438,0,69.595,31.156,69.595,69.597
		C796.816,327.729,765.66,358.897,727.222,358.897z"/>
	<path fill="#676767" d="M270.871,185.507c-57.322,0-103.793,46.472-103.793,103.794c0,57.316,46.471,103.782,103.793,103.782
		c57.31,0,103.783-46.465,103.783-103.782C374.653,231.979,328.181,185.507,270.871,185.507z M270.871,358.897
		c-38.439,0-69.607-31.167-69.607-69.607c0-38.441,31.168-69.597,69.607-69.597c38.44,0,69.595,31.156,69.595,69.597
		C340.466,327.729,309.311,358.897,270.871,358.897z"/>
	<path fill="#676767" d="M727.222,232.609c-31.306,0-56.688,25.381-56.688,56.693c0,31.305,25.383,56.681,56.688,56.681
		c31.304,0,56.686-25.376,56.686-56.681C783.907,257.99,758.525,232.609,727.222,232.609z"/>
</g>
</svg>
