<?xml version="1.0" encoding="utf-8"?>
<!-- Generator: Adobe Illustrator 16.0.0, SVG Export Plug-In . SVG Version: 6.00 Build 0)  -->
<!DOCTYPE svg PUBLIC "-//W3C//DTD SVG 1.1//EN" "http://www.w3.org/Graphics/SVG/1.1/DTD/svg11.dtd">
<svg version="1.1" id="Layer_1" xmlns="http://www.w3.org/2000/svg" xmlns:xlink="http://www.w3.org/1999/xlink" x="0px" y="0px"
	 width="1000px" height="1000px" viewBox="0 0 1000 1000" enable-background="new 0 0 1000 1000" xml:space="preserve">
<g>
	<path fill="#676767" d="M84.91,542.684h54.421v-80.038H48.256v64.726c2.176-0.402,4.409-0.681,6.716-0.681
		C67.446,526.691,78.431,533.054,84.91,542.684z"/>
	<path fill="#676767" d="M949.465,247.947v142.6H847.301v17.234h1.052v40.903H716.215V242.986l-88.789-17.309v56.276h-25.312
		v-19.577c0-6.982-5.674-12.633-12.642-12.633h-91.66c-3.266,0-6.215,1.265-8.46,3.302l-25.94-10.489l2.834-7.025l-56.176-22.696
		l-10.536,26.087l56.168,22.696l2.841-7.021l26.636,10.767v16.589H170.695v115.201h160.981
		c-0.055,43.202-0.117,97.327-0.117,100.818c0,19.027,15.512,27.417,43.187,27.417l42.374,15.592v17.68H74.011
		c-5.229-10.357-15.846-17.518-28.246-17.518c-17.519,0-31.727,14.188-31.727,31.745c0,8.747,0.127,20.412-7.409,27.961
		c-4.486,4.489,26.037,4.272,43.922,3.962h92.036v77.658c-15.586,6.858-26.467,22.372-26.467,40.477
		c0,24.423,19.787,44.239,44.237,44.239c24.442,0,44.243-19.801,44.243-44.239c0-18.104-10.887-33.618-26.466-40.461v-77.674h423.09
		c-2.176,10.11-3.406,20.592-3.406,31.366c0,81.745,66.239,148,147.983,148c81.751,0,148.029-66.239,148.029-148
		c0-61.68-37.759-114.473-91.397-136.688h147.032v38.349h47.019V247.947H949.465z M160.357,740.883
		c-9.92,0-17.917-8.011-17.917-17.937c0-9.931,7.996-17.936,17.917-17.936c9.907,0,17.928,8.005,17.928,17.936
		C178.285,732.856,170.265,740.883,160.357,740.883z M627.426,397.154v51.531h-28.371c0.016-13.311,0.016-30.181,0.016-51.531
		H627.426z M745.801,696.179c-33.124,0-59.946-26.83-59.946-59.985c0-33.185,26.822-59.961,59.946-59.961
		c33.171,0,60.009,26.776,60.009,59.961C805.816,669.333,778.993,696.179,745.801,696.179z M619.933,558.661H498.748v-16.705h9.105
		l49.255-16.566c27.604,0,41.739-7.043,41.832-25.9H689.2C660.326,511.449,636.181,532.342,619.933,558.661z M895.363,448.685
		v-40.903h54.102v40.903H895.363z"/>
</g>
</svg>
