<?xml version="1.0" encoding="utf-8"?>
<!-- Generator: Adobe Illustrator 16.0.0, SVG Export Plug-In . SVG Version: 6.00 Build 0)  -->
<!DOCTYPE svg PUBLIC "-//W3C//DTD SVG 1.1//EN" "http://www.w3.org/Graphics/SVG/1.1/DTD/svg11.dtd">
<svg version="1.1" id="Layer_1" xmlns="http://www.w3.org/2000/svg" xmlns:xlink="http://www.w3.org/1999/xlink" x="0px" y="0px"
	 width="1000px" height="1000px" viewBox="0 0 1000 1000" enable-background="new 0 0 1000 1000" xml:space="preserve">
<g>
	<path fill="#676767" d="M698.991,141.443c-48.678,0-88.276,39.603-88.276,88.284c0,48.687,39.599,88.288,88.276,88.288
		c48.676,0,88.282-39.601,88.282-88.288C787.273,181.045,747.667,141.443,698.991,141.443z"/>
	<path fill="#676767" d="M925.251,215.634l-23.172-23.191v-65.185c0-15.088-12.263-27.358-27.38-27.358l-64.428-0.008
		c-2.831-2.529-5.697-5.023-8.65-7.332c-0.604-0.465-1.174-0.938-1.805-1.332c-21.018-16.017-44.725-26.714-69.433-32.012V40.381
		c2.394-4.479,7.88-8.208,13.62-10.43h7.625c5.916,0,10.685-4.938,10.685-11.043c0-6.113-4.769-11.064-10.685-11.064h-58.834
		c-5.899,0.009-10.667,4.956-10.667,11.056c0,6.095,4.768,11.052,10.676,11.052h7.448c5.899,2.288,11.508,6.127,13.797,10.745v15.82
		c-13.841-1.629-27.768-1.626-41.597,0.009c-34.953-31.797-93.331-47.069-126.384-14.028L492.73,95.855
		c-34.33,34.313-16.556,96.106,17.775,130.44c3.487,3.489,5.179,4.566,6.722,4.992c0.034,45.044,17.222,90.084,51.577,124.45
		c15.128,15.127,32.385,26.727,50.746,35.194l-57.738,57.839c-8.555-8.522-22.945-7.97-32.149,1.224
		c-9.21,9.22-9.736,23.62-1.2,32.178l0.543,0.53L178.194,855.784l0.139,0.157c-65.627,66.207-42.3,55.276-104.186,47.521
		c11.858,31.64,23.703,67.196,35.57,86.961c41.885-11.413,89.633-35.375,129.546-73.56l0.019,0.026l3.628-3.4
		c0.306-0.325,0.648-0.589,0.964-0.921v-0.01l368.472-346.525l0.832,0.851c8.563,8.536,22.981,8.011,32.176-1.191
		c9.219-9.229,9.755-23.629,1.191-32.183l-0.22-0.22l194.98-194.701l-0.147-0.149l84.093-84.104
		C935.943,243.653,935.943,226.33,925.251,215.634z M524.991,179.63c-3.077-1.884-5.96-4.102-8.544-6.696
		c-17.985-17.976-17.985-47.244,0-65.225l41.489-41.495c17.976-17.981,47.231-17.981,65.207-0.018
		c0.814,0.815,1.533,1.718,2.279,2.595c-20.561,8.589-39.869,21.192-56.619,37.929C547.718,127.824,533.15,152.964,524.991,179.63z
		 M698.991,339.602c-60.589,0-109.888-49.282-109.888-109.875c0-60.588,49.299-109.879,109.888-109.879
		c60.596,0,109.878,49.291,109.878,109.879C808.869,290.319,759.587,339.602,698.991,339.602z"/>
</g>
</svg>
