<?xml version="1.0" encoding="utf-8"?>
<!-- Generator: Adobe Illustrator 16.0.0, SVG Export Plug-In . SVG Version: 6.00 Build 0)  -->
<!DOCTYPE svg PUBLIC "-//W3C//DTD SVG 1.1//EN" "http://www.w3.org/Graphics/SVG/1.1/DTD/svg11.dtd">
<svg version="1.1" id="Layer_1" xmlns="http://www.w3.org/2000/svg" xmlns:xlink="http://www.w3.org/1999/xlink" x="0px" y="0px"
	 width="1000px" height="1000px" viewBox="0 0 1000 1000" enable-background="new 0 0 1000 1000" xml:space="preserve">
<g>
	<path fill="#5D5E5E" d="M825.816,355.811l11.977,17.342L641.985,592.136L362.349,475.328l-30.985,24.17l-167.839-238.55
		l17.167-165.705c0.444-5.897-4.118-11.029-10.213-11.452c-6.116-0.438-11.427,3.995-11.864,9.892l-13.946,140.453L44.855,92.261
		c-2.429-4.17-6.223-7.64-11.201-9.506C22.227,78.461,9.352,83.937,4.902,94.987c-3.364,8.325-0.98,17.415,5.28,23.247
		l310.93,438.793L433.084,718.28c-48.235,4.461-85.941,43.681-85.941,91.473c0,50.782,42.571,91.955,95.121,91.955
		c36.507,0,68.177-19.889,84.138-49.031l33.188,47.79h181.573c5.228,0.541,10.521,0.862,15.9,0.862
		c81.274,0,147.151-63.67,147.151-142.211c0-30.662-10.139-58.989-27.215-82.216l26.369-83.6h-89.767l77.759-148.717l96.047-44.701
		l9.489-65.31H851.453L825.816,355.811z M442.263,847.034c-21.285,0-38.527-16.666-38.527-37.267
		c0-20.63,17.243-37.266,38.527-37.266c21.316,0,38.58,16.636,38.58,37.266C480.843,830.354,463.601,847.034,442.263,847.034z"/>
</g>
</svg>
