<?xml version="1.0" encoding="utf-8"?>
<!-- Generator: Adobe Illustrator 16.0.0, SVG Export Plug-In . SVG Version: 6.00 Build 0)  -->
<!DOCTYPE svg PUBLIC "-//W3C//DTD SVG 1.1//EN" "http://www.w3.org/Graphics/SVG/1.1/DTD/svg11.dtd">
<svg version="1.1" id="Layer_1" xmlns="http://www.w3.org/2000/svg" xmlns:xlink="http://www.w3.org/1999/xlink" x="0px" y="0px"
	 width="1000px" height="1000px" viewBox="0 0 1000 1000" enable-background="new 0 0 1000 1000" xml:space="preserve">
<g>
	<path fill="#676767" d="M175.051,222.355c0-15.526,12.401-28.155,27.837-28.547c-0.245-0.006-0.488-0.019-0.734-0.019
		c-15.776,0-28.572,12.793-28.572,28.564c0,15.788,12.796,28.572,28.572,28.572c0.247,0,0.49-0.013,0.734-0.019
		C187.453,250.517,175.051,237.896,175.051,222.355z"/>
	<path fill="#676767" d="M697.878,222.355c0-15.526,12.403-28.155,27.83-28.547c-0.245-0.006-0.49-0.019-0.734-0.019
		c-15.768,0-28.564,12.793-28.564,28.564c0,15.788,12.797,28.572,28.564,28.572c0.244,0,0.489-0.013,0.734-0.019
		C710.281,250.517,697.878,237.896,697.878,222.355z"/>
	<path fill="#676767" d="M251.105,222.355c0-15.526,12.399-28.155,27.837-28.547c-0.245-0.006-0.488-0.019-0.735-0.019
		c-15.778,0-28.571,12.793-28.571,28.564c0,15.788,12.793,28.572,28.571,28.572c0.247,0,0.491-0.013,0.735-0.019
		C263.504,250.517,251.105,237.896,251.105,222.355z"/>
	<path fill="#676767" d="M422.265,242.896v-35.653c0-10.494,8.506-19.008,19.005-19.008h-1.469c-10.5,0-19.006,8.514-19.006,19.008
		v35.653c0,10.493,8.507,19.01,19.006,19.01h1.469C430.771,261.906,422.265,253.388,422.265,242.896z"/>
	<path fill="#676767" d="M773.929,222.355c0-15.526,12.401-28.155,27.83-28.547c-0.244-0.006-0.489-0.019-0.733-0.019
		c-15.769,0-28.566,12.793-28.566,28.564c0,15.788,12.797,28.572,28.566,28.572c0.244,0,0.489-0.013,0.733-0.019
		C786.33,250.517,773.929,237.896,773.929,222.355z"/>
	<path fill="#676767" d="M186.689,748.609V457.721c0-9.834,7.974-17.802,17.801-17.802h-1.062c-9.827,0-17.801,7.968-17.801,17.802
		v290.889c0,9.823,7.974,17.804,17.801,17.804h1.062C194.664,766.413,186.689,758.435,186.689,748.609z"/>
	<path fill="#676767" d="M891.174,305.881H112.002c-18.94,0-34.289,15.353-34.289,34.285v622.648
		c0,18.944,15.349,34.289,34.289,34.289h779.171c18.943,0,34.289-15.345,34.289-34.289V340.167
		C925.463,321.235,910.117,305.881,891.174,305.881z M818.612,748.61c0,9.822-7.973,17.803-17.791,17.803h-1.062H204.49h-1.062
		c-9.827,0-17.801-7.98-17.801-17.804V457.721c0-9.834,7.974-17.802,17.801-17.802h1.062h595.27h1.062
		c9.819,0,17.791,7.968,17.791,17.802V748.61z"/>
	<path fill="#676767" d="M800.821,439.919h-1.062c9.818,0,17.789,7.968,17.789,17.802v290.89c0,9.822-7.971,17.803-17.789,17.803
		h1.062c9.819,0,17.791-7.98,17.791-17.803v-290.89C818.612,447.886,810.641,439.919,800.821,439.919z"/>
	<path fill="#676767" d="M891.17,152.194H111.998c-18.932,0-34.289,15.354-34.289,34.289v71.862
		c0,18.938,15.356,34.294,34.289,34.294H891.17c18.94,0,34.298-15.357,34.298-34.294v-71.862
		C925.468,167.548,910.11,152.194,891.17,152.194z M203.623,250.927c-0.247,0-0.49-0.013-0.735-0.019
		c-0.245,0.006-0.488,0.019-0.734,0.019c-15.776,0-28.572-12.784-28.572-28.572c0-15.771,12.796-28.564,28.572-28.564
		c0.247,0,0.49,0.013,0.734,0.019c0.245-0.006,0.488-0.019,0.735-0.019c15.772,0,28.565,12.793,28.565,28.564
		C232.188,238.142,219.395,250.927,203.623,250.927z M279.675,250.927c-0.247,0-0.489-0.013-0.734-0.019
		c-0.245,0.006-0.488,0.019-0.735,0.019c-15.778,0-28.571-12.784-28.571-28.572c0-15.771,12.793-28.564,28.571-28.564
		c0.247,0,0.491,0.013,0.735,0.019c0.245-0.006,0.487-0.019,0.734-0.019c15.775,0,28.565,12.793,28.565,28.564
		C308.242,238.142,295.451,250.927,279.675,250.927z M583.848,242.896c0,10.493-8.504,19.01-19.003,19.01h-1.47H441.271h-1.469
		c-10.5,0-19.006-8.518-19.006-19.01v-35.653c0-10.494,8.507-19.008,19.006-19.008h1.469h122.103h1.47
		c10.5,0,19.003,8.514,19.003,19.008L583.848,242.896L583.848,242.896z M726.441,250.927c-0.245,0-0.49-0.013-0.733-0.019
		c-0.245,0.006-0.49,0.019-0.734,0.019c-15.768,0-28.564-12.784-28.564-28.572c0-15.771,12.797-28.564,28.564-28.564
		c0.244,0,0.489,0.013,0.734,0.019c0.243-0.006,0.488-0.019,0.733-0.019c15.775,0,28.566,12.793,28.566,28.564
		C755.008,238.142,742.217,250.927,726.441,250.927z M802.493,250.927c-0.245,0-0.49-0.013-0.734-0.019
		c-0.244,0.006-0.489,0.019-0.733,0.019c-15.769,0-28.565-12.784-28.565-28.572c0-15.771,12.796-28.564,28.565-28.564
		c0.244,0,0.489,0.013,0.733,0.019c0.244-0.006,0.489-0.019,0.734-0.019c15.772,0,28.571,12.793,28.571,28.564
		C831.064,238.142,818.266,250.927,802.493,250.927z"/>
	<path fill="#676767" d="M564.844,188.234h-1.47c10.5,0,19.005,8.514,19.005,19.008v35.653c0,10.493-8.506,19.01-19.005,19.01h1.47
		c10.5,0,19.003-8.518,19.003-19.01v-35.652C583.848,196.749,575.344,188.234,564.844,188.234z"/>
	<path fill="#676767" d="M279.675,193.79c-0.247,0-0.489,0.013-0.734,0.019c15.435,0.392,27.83,13.021,27.83,28.547
		c0,15.541-12.395,28.163-27.83,28.553c0.245,0.006,0.487,0.019,0.734,0.019c15.775,0,28.565-12.784,28.565-28.572
		C308.242,206.583,295.451,193.79,279.675,193.79z"/>
	<path fill="#676767" d="M726.441,193.79c-0.245,0-0.49,0.013-0.733,0.019c15.435,0.392,27.831,13.021,27.831,28.547
		c0,15.541-12.396,28.163-27.831,28.553c0.243,0.006,0.488,0.019,0.733,0.019c15.775,0,28.566-12.784,28.566-28.572
		C755.008,206.583,742.217,193.79,726.441,193.79z"/>
	<path fill="#676767" d="M203.623,193.79c-0.247,0-0.49,0.013-0.735,0.019c15.432,0.392,27.831,13.021,27.831,28.547
		c0,15.541-12.399,28.163-27.831,28.553c0.245,0.006,0.488,0.019,0.735,0.019c15.772,0,28.565-12.784,28.565-28.572
		C232.188,206.583,219.395,193.79,203.623,193.79z"/>
	<path fill="#676767" d="M802.493,193.79c-0.245,0-0.49,0.013-0.734,0.019c15.433,0.392,27.838,13.021,27.838,28.547
		c0,15.541-12.404,28.163-27.838,28.553c0.244,0.006,0.489,0.019,0.734,0.019c15.772,0,28.571-12.784,28.571-28.572
		C831.064,206.583,818.266,193.79,802.493,193.79z"/>
	<path fill="#676767" d="M311.912,112.332v21.808v3.396h62.964v-24.67c0-0.295-0.242-0.534-0.541-0.534H311.912z"/>
	<path fill="#676767" d="M633.484,112.867v24.67h62.965v-3.145v-22.06h-62.432C633.724,112.332,633.484,112.571,633.484,112.867z"/>
	<path fill="#676767" d="M227.917,112.867v24.67h62.964v-3.145v-22.06h-62.432C228.156,112.332,227.917,112.571,227.917,112.867z"/>
	<path fill="#676767" d="M717.48,112.332v21.808v3.396h62.961v-24.67c0-0.295-0.237-0.534-0.538-0.534H717.48z"/>
	<path fill="#676767" d="M112.002,137.538h95.596V99.164c0-4.133,3.361-7.494,7.492-7.494h172.607c4.13,0,7.492,3.361,7.492,7.494
		v38.373h217.976V99.164c0-4.133,3.36-7.494,7.492-7.494h172.609c4.132,0,7.492,3.361,7.492,7.494v38.373h90.419
		c18.938,0,34.287-15.359,34.287-34.296V37.667c0-18.935-15.35-34.289-34.287-34.289H112.002c-18.932,0-34.289,15.354-34.289,34.289
		v65.573C77.713,122.18,93.071,137.538,112.002,137.538z"/>
</g>
</svg>
