<?xml version="1.0" encoding="utf-8"?>
<!-- Generator: Adobe Illustrator 16.0.4, SVG Export Plug-In . SVG Version: 6.00 Build 0)  -->
<!DOCTYPE svg PUBLIC "-//W3C//DTD SVG 1.1//EN" "http://www.w3.org/Graphics/SVG/1.1/DTD/svg11.dtd">
<svg version="1.1" id="Layer_1" xmlns="http://www.w3.org/2000/svg" xmlns:xlink="http://www.w3.org/1999/xlink" x="0px" y="0px"
	 width="1000px" height="1000px" viewBox="0 0 1000 1000" enable-background="new 0 0 1000 1000" xml:space="preserve">
<g>
	<path fill="#676767" d="M120.932,582.935l-11.551,133.682L2.74,815.378l21.25-257.11l40.871-37.018L120.932,582.935z
		 M421.299,834.492H19.827l107.247-98.695h204.056L421.299,834.492z M34.628,446.284l22.181-256.836l90.552,98.737l-11.519,133.466
		l-67.789,62.594L34.628,446.284z M479.189,170.126l-107.248,98.704H167.887l-90.161-98.704H479.189z M350.111,452.958
		l45.558,49.353l-54.093,49.359H130.872l-44.611-49.359l53.154-49.353H350.111z"/>
	<path fill="#676767" d="M653.236,583.017l-13.247,152.796l-107.646,98.68l23.95-276.174l40.872-37.012L653.236,583.017z
		 M566.019,446.267l22.27-256.818l90.526,98.737L667.23,421.651l-67.787,62.582L566.019,446.267z M939.489,219.004l-54.099,49.826
		H699.367l-90.16-98.704h284.725L939.489,219.004z M881.593,452.958l45.558,49.353l-54.093,49.359H662.354l-44.611-49.359
		l53.153-49.353H881.593z M691.771,644.68l6.616-70.24l70.904,0.299L943.18,763.404l-6.621,71.088h-71.096L691.771,644.68z
		 M986.943,446.313l-40.879,37.962l-56.104-62.654l11.227-133.84l54.292-49.322l44.753,49.352L986.943,446.313z"/>
</g>
</svg>
