<?xml version="1.0" encoding="utf-8"?>
<!-- Generator: Adobe Illustrator 16.0.0, SVG Export Plug-In . SVG Version: 6.00 Build 0)  -->
<!DOCTYPE svg PUBLIC "-//W3C//DTD SVG 1.1//EN" "http://www.w3.org/Graphics/SVG/1.1/DTD/svg11.dtd">
<svg version="1.1" id="Layer_1" xmlns="http://www.w3.org/2000/svg" xmlns:xlink="http://www.w3.org/1999/xlink" x="0px" y="0px"
	 width="200px" height="200px" viewBox="0 0 200 200" enable-background="new 0 0 200 200" xml:space="preserve">
<path fill-rule="evenodd" clip-rule="evenodd" fill="#666766" d="M86.814,144.569c-3.773,4.632-7.418,9.106-11.308,13.885
	c2.262,3.914,4.609,7.976,6.956,12.034c-0.103,0.146-0.203,0.292-0.304,0.438c-4.117-1.729-8.233-3.455-12.581-5.282
	c-2.095,2.48-3.899,5.233-6.301,7.289c-2.417,2.067-5.429,3.441-8.399,5.257c0.939,2.771,2.961,4.99,4.286,8.104
	c-1.081-0.353-1.837-0.55-2.551-0.848c-2.102-0.873-4.252-1.667-6.256-2.734c-1.378-0.731-2.401-0.563-3.668,0.193
	c-7.253,4.335-14.55,8.594-21.835,12.876c-0.893,0.525-1.798,1.026-3.085,1.765c0.262-1.028,0.384-1.698,0.605-2.334
	c1.617-4.662,3.137-9.367,4.936-13.96c0.884-2.256,0.937-4.085-0.653-6.033c-1.118-1.37-1.905-3.014-3.1-4.958
	c2.427,0.929,4.359,1.672,6.609,2.535c0.895-2.506,1.52-4.998,2.641-7.241c1.975-3.955,2.054-7.529-1.152-10.857
	c-0.303-0.316-0.442-0.795-0.989-1.814c2.157,0.809,3.769,1.413,5.421,2.033c3.103-5.894,7.842-10.347,11.708-15.472
	c0.735-0.976,1.539-1.9,2.431-2.996c-2.417-3.86-4.753-7.587-7.09-11.319c0.124-0.143,0.248-0.286,0.371-0.432
	c3.988,1.611,7.977,3.224,12.088,4.886c4.055-4.979,8.048-9.883,12.18-14.957c-2.816-4.487-5.626-8.964-8.821-14.055
	c5.493,2.233,10.337,4.201,15.246,6.198c3.883-4.768,7.637-9.376,11.474-14.087c-2.809-4.476-5.562-8.864-8.314-13.254
	c0.112-0.159,0.226-0.319,0.339-0.478c4.747,1.931,9.497,3.861,14.367,5.843c3.413-4.19,6.753-8.29,10.285-12.624
	c-2.797-4.473-5.642-9.025-8.801-14.081c5.477,2.227,10.377,4.221,15.389,6.258c1.214-1.488,2.446-2.713,3.307-4.16
	c0.528-0.889,0.745-2.13,0.675-3.186c-0.965-14.695-2.01-29.385-3.025-44.08c-0.257-3.685-0.488-7.373-0.761-11.457
	c2.014,0.21,3.794,0.291,5.537,0.598c6.041,1.065,11.657,3.39,17.088,6.138c8.244,4.171,15.945,9.212,23.212,14.914
	c0.576,0.451,1.076,0.997,1.828,1.701c-4.385,5.388-8.676,10.657-13.09,16.073c2.624,2.139,5.014,4.082,7.677,6.254
	c4.349-5.335,8.635-10.598,12.856-15.782c4.257,1.916,16.095,13.767,22.432,22.386c4.565,6.208,8.685,12.662,10.489,20.551
	c-0.892,0.192-1.591,0.405-2.304,0.486c-17.938,2.045-35.873,4.101-53.817,6.076c-1.929,0.211-3.338,0.844-4.543,2.415
	c-2.65,3.455-5.472,6.781-8.331,10.289c2.835,4.868,5.585,9.588,8.336,14.306c-0.107,0.15-0.214,0.303-0.318,0.452
	c-4.889-2.059-9.774-4.118-14.759-6.218c-3.318,4.071-6.535,8.024-9.879,12.122c2.812,4.814,5.623,9.632,8.734,14.964
	c-5.497-2.326-10.447-4.427-15.527-6.579c-3.719,4.564-7.346,9.018-11.086,13.61c2.764,4.741,5.514,9.455,8.263,14.171
	c-0.114,0.14-0.229,0.277-0.346,0.413C96.686,148.736,91.788,146.67,86.814,144.569z"/>
</svg>
