<?xml version="1.0" encoding="utf-8"?>
<!-- Generator: Adobe Illustrator 16.0.0, SVG Export Plug-In . SVG Version: 6.00 Build 0)  -->
<!DOCTYPE svg PUBLIC "-//W3C//DTD SVG 1.1//EN" "http://www.w3.org/Graphics/SVG/1.1/DTD/svg11.dtd">
<svg version="1.1" id="Layer_1" xmlns="http://www.w3.org/2000/svg" xmlns:xlink="http://www.w3.org/1999/xlink" x="0px" y="0px"
	 width="200px" height="110px" viewBox="0 0 200 110" enable-background="new 0 0 200 110" xml:space="preserve">
<g>
	<path fill="#244A97" d="M157.195,84.592h-2.137v-4.554c0-1.153-0.796-2.776-2.385-4.865c-1.601-2.097-2.993-3.738-4.188-4.931
		c-0.5-0.502-2.581-4.237-6.245-8.54c-3.671-4.302-5.597-6.568-5.792-6.8c-0.849-0.92-1.855-1.66-3.025-2.218
		c-1.177-0.555-2.3-0.833-3.375-0.833l-10.828-0.349c-0.468,0-0.877,0.107-1.277,0.242v-6.75c0-0.963-0.345-1.791-1.038-2.481
		c-0.687-0.692-1.513-1.035-2.473-1.035H68.772c-0.962,0-1.786,0.343-2.48,1.035c-0.688,0.69-1.037,1.518-1.037,2.481v34.06h-0.288
		c-1.072,0-1.989,0.391-2.741,1.158c-0.745,0.769-1.119,1.688-1.119,2.763v1.615h-1.789c-0.264,0-0.511,0.111-0.721,0.342
		c-0.211,0.235-0.315,0.499-0.315,0.812v6.274c0,0.312,0.104,0.578,0.315,0.811c0.209,0.231,0.457,0.344,0.721,0.344h1.789v2.075
		c0.113,0.965,0.542,1.768,1.29,2.424c0.753,0.655,1.608,0.975,2.57,0.975h8.271c0.053,2.978,1.122,5.534,3.255,7.67
		c2.211,2.208,4.87,3.311,7.983,3.311c3.107,0,5.761-1.095,7.949-3.284c2.127-2.124,3.21-4.695,3.288-7.696h23.537
		c0.072,2.978,1.141,5.534,3.255,7.67c2.189,2.208,4.84,3.311,7.95,3.311c3.111,0,5.77-1.092,7.983-3.284
		c2.144-2.124,3.228-4.695,3.289-7.696h9.411c1.005,0,1.863-0.319,2.595-0.975c0.732-0.656,1.154-1.459,1.271-2.424v-2.075h2.192
		c0.265,0,0.506-0.112,0.716-0.344c0.211-0.232,0.319-0.498,0.319-0.806v-6.279c0-0.312-0.101-0.576-0.288-0.812
		C157.748,84.703,157.498,84.592,157.195,84.592z M139.514,73.154c-0.328,0.322-0.928,0.487-1.816,0.487h-17.097
		c-0.42,0-0.795-0.198-1.121-0.604c-0.329-0.404-0.485-0.872-0.485-1.41v-9.852c0-0.537,0.148-1.01,0.453-1.413
		c0.311-0.402,0.692-0.604,1.153-0.604l7.951,0.173c1.917,0,3.634,0.882,5.131,2.651l5.979,8.927
		c0.155,0.155,0.248,0.382,0.287,0.693C139.988,72.514,139.84,72.827,139.514,73.154z"/>
	<path fill="#244A97" d="M33.328,82.938C19.18,79.118,8.726,66.216,8.726,50.876c0-18.342,14.921-33.264,33.264-33.264H85V9.63
		H41.99c-22.744,0-41.248,18.503-41.248,41.246c0,19.764,14,36.245,32.585,40.241v9.197l20.188-13.338L33.328,73.642V82.938z"/>
	<path fill="#244A97" d="M198.516,50.876c0-22.743-18.503-41.247-41.248-41.247h-36.809v-9.669l-20.186,13.335l20.186,13.336v-9.02
		l36.809,0c18.341,0,33.266,14.921,33.266,33.264c0,15.036-10.061,27.705-23.785,31.792l2.767,7.502
		C186.289,84.949,198.516,69.35,198.516,50.876z"/>
</g>
</svg>
