<?xml version="1.0" encoding="utf-8"?>
<!-- Generator: Adobe Illustrator 15.1.0, SVG Export Plug-In . SVG Version: 6.00 Build 0)  -->
<!DOCTYPE svg PUBLIC "-//W3C//DTD SVG 1.1//EN" "http://www.w3.org/Graphics/SVG/1.1/DTD/svg11.dtd">
<svg version="1.1" id="Amana" xmlns="http://www.w3.org/2000/svg" xmlns:xlink="http://www.w3.org/1999/xlink" x="0px" y="0px"
	 width="99.954px" height="25.251px" viewBox="0 0 99.954 25.251" enable-background="new 0 0 99.954 25.251" xml:space="preserve">
<g>
	<path fill-rule="evenodd" clip-rule="evenodd" fill="#BF2F38" d="M12.669,14.116l3.812-5.717l-1.024,5.717H12.669L12.669,14.116z
		 M7.693,14.116H2.153l1.253,4.481h1.252L0,25.233h5.452l4.376-6.635h5.063l-1.024,6.653h7.888L25.392,0h-7.906L7.693,14.116
		L7.693,14.116z"/>
	<path fill-rule="evenodd" clip-rule="evenodd" fill="#BF2F38" d="M54.93,20.168c0-0.406,0.388-1.517,1.022-2.223
		c0.371-0.44,0.777-0.688,1.448-0.688c0.742,0,1.164,0.248,1.853,1.041c-0.847,1.323-2.277,2.665-3.53,2.665
		C55.299,20.962,54.93,20.679,54.93,20.168L54.93,20.168z M26.538,18.598c0.582,0,0.883,0.105,0.883,0.6
		c0,0.105-0.018,0.247-0.07,0.459l-1.43,4.094c-0.282,0.846-0.405,0.881-0.405,1.094c0,0.37,0.3,0.406,0.864,0.406h3.829
		c0.866,0,0.866-0.036,1.342-1.217l1.253-3.689c0.371-1.128,0.741-1.411,1.429-1.411c0.423,0,0.741,0.194,0.741,0.564l-1.253,4.254
		c-0.282,0.899-0.352,0.899-0.352,1.094c0,0.37,0.282,0.406,0.864,0.406h3.812c0.97,0,0.988-0.142,1.341-1.217l1.271-3.689
		c0.371-1.128,0.741-1.411,1.429-1.411c0.424,0,0.705,0.194,0.705,0.564l-1.252,4.254c-0.282,0.899-0.335,0.899-0.335,1.094
		c0,0.37,0.284,0.406,0.848,0.406h3.917c0.794,0,1.111,0,1.111-0.794c0-0.229-0.052-0.406-0.229-0.741l1.271-4.147
		c0.51-1.553,0.688-2.118,0.688-2.823c0-1.818-1.447-3.018-3.6-3.018c-1.288,0-2.24,0.441-3.441,1.288
		c-1.164-0.971-2.241-1.43-3.775-1.43c-1.606,0-2.735,0.496-3.741,1.289c-0.23-0.565-0.388-0.777-0.882-0.777H22.499v0.406
		l0.405,0.159l-0.177,3.353h-0.37l-0.107,0.582H26.538L26.538,18.598z M57.471,24.368c-0.178,0.37-0.178,0.458-0.178,0.511
		c0,0.317,0.248,0.372,0.742,0.372h4.253c0.547,0,0.741-0.195,0.741-0.478c0-0.176-0.089-0.37-0.124-0.776l2.718-8.329
		c0.246-0.776,0.298-1.005,0.298-1.146c0-0.389-0.281-0.424-0.846-0.424H61.6c-0.795,0-0.955,0.089-1.219,0.829
		c-1.093-1.023-2.399-1.623-3.917-1.623c-3.334,0-7.077,3.635-7.077,8.77c0,2.276,1.218,3.511,3.653,3.511
		c1.906,0,3.406-0.758,4.817-2.118L57.471,24.368L57.471,24.368z"/>
	<path fill-rule="evenodd" clip-rule="evenodd" fill="#BF2F38" d="M86.689,20.168c0-0.406,0.407-1.517,1.024-2.223
		c0.39-0.44,0.812-0.688,1.5-0.688c0.739,0,1.164,0.248,1.854,1.059c-0.865,1.305-2.313,2.646-3.583,2.646
		C87.061,20.962,86.689,20.679,86.689,20.168L86.689,20.168z M89.267,24.368c-0.16,0.37-0.194,0.458-0.194,0.511
		c0,0.317,0.284,0.372,0.759,0.372h4.27c0.547,0,0.74-0.195,0.74-0.478c0-0.176-0.086-0.37-0.123-0.776l2.684-8.329
		c0.265-0.776,0.332-1.005,0.332-1.146c0-0.389-0.279-0.424-0.846-0.424h-3.474c-0.795,0-0.989,0.089-1.237,0.829
		c-1.11-1.023-2.398-1.623-3.915-1.623c-3.336,0-7.095,3.635-7.095,8.77c0,2.276,1.236,3.511,3.67,3.511
		c1.907,0,3.369-0.758,4.799-2.118L89.267,24.368L89.267,24.368z M73.457,14.698c0-0.476-0.141-0.6-0.688-0.6h-3.018
		c-1.059,0-1.059,0-1.641,1.711l-2.77,7.942c-0.018,0.088-0.335,1.041-0.335,1.094c0,0.37,0.281,0.406,0.846,0.406h3.812
		c0.969,0,1.004-0.142,1.341-1.217l1.287-3.689c0.372-1.128,0.741-1.411,1.412-1.411c0.424,0,0.742,0.21,0.742,0.583l-1.251,4.236
		c-0.284,0.899-0.372,0.899-0.372,1.094c0,0.37,0.281,0.406,0.865,0.406h3.917c0.794,0,1.093,0,1.093-0.794
		c0-0.229-0.018-0.406-0.193-0.741l1.254-4.147c0.51-1.553,0.668-2.118,0.668-2.823c0-1.818-1.412-3.018-3.562-3.018
		c-1.29,0-2.279,0.441-3.458,1.288L73.457,14.698L73.457,14.698z"/>
	<path fill-rule="evenodd" clip-rule="evenodd" fill="#BF2F38" d="M98.972,15.862c-0.476,0-0.848-0.371-0.848-0.847
		c0-0.458,0.372-0.829,0.848-0.829s0.848,0.37,0.848,0.829C99.82,15.492,99.431,15.862,98.972,15.862L98.972,15.862z M98.972,15.987
		c0.528,0,0.951-0.441,0.951-0.971c0-0.529-0.423-0.953-0.951-0.953c-0.531,0-0.972,0.424-0.972,0.953
		C98,15.545,98.441,15.987,98.972,15.987L98.972,15.987z M99.131,15.086c0.175-0.018,0.316-0.088,0.316-0.3
		c0-0.159-0.088-0.264-0.37-0.264h-0.46v1.041h0.126v-0.476h0.246l0.3,0.476h0.158L99.131,15.086L99.131,15.086z M98.744,14.963
		v-0.335h0.299c0.142,0,0.299,0.036,0.299,0.159c0,0.194-0.248,0.177-0.407,0.177H98.744L98.744,14.963z"/>
</g>
</svg>
