<?xml version="1.0" encoding="utf-8"?>
<!-- Generator: Adobe Illustrator 15.1.0, SVG Export Plug-In . SVG Version: 6.00 Build 0)  -->
<!DOCTYPE svg PUBLIC "-//W3C//DTD SVG 1.1//EN" "http://www.w3.org/Graphics/SVG/1.1/DTD/svg11.dtd">
<svg version="1.1" id="Bosche" xmlns="http://www.w3.org/2000/svg" xmlns:xlink="http://www.w3.org/1999/xlink" x="0px" y="0px"
	 width="99.914px" height="23.028px" viewBox="0 0 99.914 23.028" enable-background="new 0 0 99.914 23.028" xml:space="preserve">
<g>
	<path fill="#FFFFFF" d="M0.368,0.602c0,0.098,0,21.811,0,21.908c0.096,0,11.197,0,11.197,0c3.278,0,6.817-2.333,6.817-6.095
		c0-3.583-2.72-4.851-3.891-5.228c-0.087-0.028-0.106-0.033-0.106-0.071c0-0.021,0.012-0.04,0.033-0.047
		c0.03-0.011,2.996-1.07,2.996-4.47c0-3.755-2.536-5.998-6.784-5.998C10.631,0.602,0.464,0.602,0.368,0.602z M5.686,9.23V5.135
		c0-0.027,0.022-0.048,0.047-0.048h4.03c1.281,0,2.142,0.855,2.142,2.129c0,1-0.784,2.062-2.239,2.062H5.734
		C5.708,9.28,5.686,9.257,5.686,9.23z M5.686,17.975v-4.322c0-0.03,0.022-0.047,0.047-0.047h3.932c1.874,0,2.95,0.797,2.95,2.193
		c0,1.475-0.961,2.226-2.854,2.226H5.731C5.708,18.021,5.686,18.001,5.686,17.975z"/>
	<path fill="#FFFFFF" d="M20.036,11.537c0,6.875,4.047,11.492,10.075,11.492c6.019,0,10.066-4.617,10.066-11.492
		c0-6.872-4.047-11.489-10.066-11.489C24.083,0.049,20.036,4.667,20.036,11.537z M25.386,11.537c0-3.818,1.854-6.289,4.725-6.289
		c2.886,0,4.751,2.47,4.751,6.289c0,3.84-1.866,6.323-4.751,6.323C27.195,17.859,25.386,15.438,25.386,11.537z"/>
	<path fill="#FFFFFF" d="M42.089,6.923c0,3.395,2.234,5.73,6.279,6.582l0.775,0.16c2.98,0.628,3.97,1.075,3.97,2.487
		c0,1.33-1.214,2.225-3.016,2.225c-2.19,0-4.118-0.968-5.576-2.803c-0.07,0.066-3.379,3.312-3.443,3.376
		c1.704,2.021,4.115,4.078,9.085,4.078c4.203,0,8.458-2.452,8.458-7.136c0-5.2-4.146-6.071-6.888-6.647l-0.775-0.163
		c-1.715-0.36-3.39-0.832-3.39-2.256c0-1.449,1.367-2.098,2.722-2.098c1.649,0,3.283,0.741,4.509,2.029
		c0.062-0.061,3.285-3.25,3.35-3.314c-1.385-1.556-3.882-3.396-7.955-3.396C45.349,0.049,42.089,2.812,42.089,6.923z"/>
	<path fill="#FFFFFF" d="M60.311,11.409c0,6.84,4.17,11.619,10.136,11.619c4.483,0,6.501-1.66,8.632-4.718
		c-0.087-0.053-4.318-2.915-4.397-2.968c-0.947,1.554-1.949,2.518-3.975,2.518c-2.418,0-5.016-2.021-5.016-6.45
		c0-4.044,2.438-6.16,4.852-6.16c1.776,0,3.018,0.76,4.009,2.452c0.081-0.054,4.284-2.848,4.371-2.902
		c-2.182-3.258-4.778-4.717-8.411-4.717C63.463,0.081,60.311,5.771,60.311,11.409z"/>
	<path fill="#FFFFFF" d="M93.578,0.602c0,0.095,0,8.044,0,8.044c0,0.027-0.021,0.048-0.046,0.048h-6.671
		c-0.028,0-0.046-0.022-0.046-0.048c0,0,0-7.949,0-8.044c-0.097,0-5.578,0-5.675,0c0,0.098,0,21.811,0,21.908
		c0.094,0,5.575,0,5.675,0c0-0.097,0-8.63,0-8.63c0-0.026,0.021-0.05,0.046-0.05h6.671c0.028,0,0.046,0.025,0.046,0.05
		c0,0,0,8.533,0,8.63c0.094,0,5.61,0,5.705,0c0-0.097,0-21.81,0-21.908C99.188,0.602,93.671,0.602,93.578,0.602z"/>
</g>
<path fill="#EC1C24" d="M12.566,15.796c0-1.268-0.935-2.144-2.9-2.144H5.734v4.322h4.03C11.406,17.975,12.566,17.388,12.566,15.796z
	 M11.856,7.217c0-1.234-0.837-2.082-2.093-2.082h-4.03V9.23h3.932C11.084,9.23,11.856,8.191,11.856,7.217z M18.431,16.415
	c0,3.706-3.417,6.142-6.865,6.142H0.32V0.554h10.311c3.966,0,6.834,1.981,6.834,6.045c0,3.477-3.029,4.517-3.029,4.517
	C14.436,11.148,18.431,12.06,18.431,16.415z"/>
<path fill="#EC1C24" d="M34.813,11.537c0-3.444-1.579-6.239-4.704-6.239c-3.129,0-4.674,2.795-4.674,6.239
	c0,3.479,1.548,6.273,4.674,6.273C33.234,17.811,34.813,15.016,34.813,11.537z M40.227,11.537c0,6.47-3.706,11.539-10.118,11.539
	c-6.384,0-10.123-5.069-10.123-11.539C19.987,5.104,23.725,0,30.109,0C36.521,0,40.227,5.104,40.227,11.537z"/>
<path fill="#EC1C24" d="M58.672,15.893c0,4.84-4.382,7.184-8.507,7.184c-4.769,0-7.219-1.822-9.152-4.129l3.513-3.445
	c1.483,1.886,3.417,2.829,5.576,2.829c1.773,0,2.965-0.88,2.965-2.179c0-1.397-1.057-1.833-3.933-2.436l-0.774-0.161
	c-3.47-0.727-6.317-2.699-6.317-6.631c0-4.325,3.513-6.923,8.154-6.923c3.931,0,6.476,1.689,8.023,3.445l-3.417,3.382
	c-1.065-1.139-2.677-2.05-4.512-2.05c-1.257,0-2.675,0.585-2.675,2.05c0,1.331,1.473,1.813,3.348,2.21l0.775,0.16
	C54.881,9.856,58.672,10.824,58.672,15.893z"/>
<path fill="#EC1C24" d="M79.146,18.297c-2.255,3.252-4.349,4.778-8.697,4.778c-6.19,0-10.186-5.139-10.186-11.668
	c0-6.208,3.609-11.375,10.247-11.375c3.642,0,6.256,1.431,8.475,4.775l-4.446,2.959c-0.903-1.56-2.064-2.469-3.997-2.469
	c-2.449,0-4.802,2.19-4.802,6.109c0,4.393,2.545,6.4,4.963,6.4c2.095,0,3.058-1.039,3.96-2.531L79.146,18.297z"/>
<polygon fill="#EC1C24" points="99.333,22.557 93.532,22.557 93.532,13.879 86.861,13.879 86.861,22.557 81.093,22.557 
	81.093,0.554 86.861,0.554 86.861,8.646 93.532,8.646 93.532,0.554 99.333,0.554 "/>
</svg>
