<?xml version="1.0" encoding="utf-8"?>
<!-- Generator: Adobe Illustrator 15.1.0, SVG Export Plug-In . SVG Version: 6.00 Build 0)  -->
<!DOCTYPE svg PUBLIC "-//W3C//DTD SVG 1.1//EN" "http://www.w3.org/Graphics/SVG/1.1/DTD/svg11.dtd">
<svg version="1.1" id="Craftsman" xmlns="http://www.w3.org/2000/svg" xmlns:xlink="http://www.w3.org/1999/xlink" x="0px" y="0px"
	 width="99.963px" height="24.144px" viewBox="0 0 99.963 24.144" enable-background="new 0 0 99.963 24.144" xml:space="preserve">
<g>
	<path fill="#231F20" d="M0,0h99.963v24.144H0V0L0,0z"/>
	<polygon fill-rule="evenodd" clip-rule="evenodd" fill="#EF3E42" points="1.928,22.202 98.034,22.202 98.034,1.942 1.928,1.942 
		1.928,22.202 	"/>
	
		<linearGradient id="SVGID_1_" gradientUnits="userSpaceOnUse" x1="-222.6963" y1="-106.5391" x2="-162.6855" y2="-106.5391" gradientTransform="matrix(1.6015 0 0 1.6015 358.5762 182.6953)">
		<stop  offset="0" style="stop-color:#CCCCCC"/>
		<stop  offset="1" style="stop-color:#000000"/>
	</linearGradient>
	<polygon opacity="0.22" fill-rule="evenodd" clip-rule="evenodd" fill="url(#SVGID_1_)" points="1.928,22.202 98.034,22.202 
		98.034,1.942 1.928,1.942 1.928,22.202 	"/>
	<g>
		<path fill="#FFFFFF" d="M96.386,7.739c0,0.292-0.073,0.563-0.221,0.815c-0.144,0.25-0.342,0.45-0.595,0.594
			c-0.254,0.145-0.524,0.217-0.815,0.217s-0.562-0.072-0.813-0.217c-0.254-0.145-0.451-0.344-0.598-0.594
			c-0.145-0.251-0.218-0.522-0.218-0.815c0-0.29,0.073-0.562,0.218-0.812c0.146-0.252,0.344-0.451,0.598-0.596
			c0.251-0.145,0.522-0.217,0.813-0.217s0.562,0.072,0.815,0.217c0.253,0.145,0.451,0.343,0.595,0.596
			C96.312,7.178,96.386,7.449,96.386,7.739z M96.07,7.739c0-0.361-0.129-0.67-0.385-0.926c-0.258-0.256-0.569-0.385-0.931-0.385
			c-0.362,0-0.672,0.128-0.93,0.385c-0.255,0.256-0.384,0.565-0.384,0.926c0,0.362,0.129,0.671,0.384,0.928
			c0.258,0.255,0.567,0.384,0.93,0.384c0.361,0,0.673-0.128,0.931-0.384C95.941,8.41,96.07,8.102,96.07,7.739z M94.015,6.87h0.782
			c0.22,0,0.38,0.044,0.478,0.133c0.1,0.089,0.148,0.208,0.148,0.358c0,0.116-0.035,0.217-0.11,0.302
			c-0.076,0.086-0.196,0.147-0.358,0.186c0.067,0.027,0.116,0.053,0.147,0.082c0.044,0.04,0.091,0.099,0.138,0.177
			c0.004,0.005,0.098,0.173,0.282,0.502H95.01c-0.169-0.331-0.279-0.528-0.335-0.593c-0.058-0.065-0.116-0.097-0.172-0.097
			c-0.013,0-0.03,0.002-0.053,0.006V8.61h-0.436V6.87z M94.45,7.608h0.188c0.125,0,0.211-0.02,0.265-0.061
			c0.051-0.041,0.078-0.093,0.078-0.156s-0.027-0.116-0.073-0.156c-0.052-0.041-0.136-0.061-0.254-0.061H94.45V7.608z"/>
	</g>
	<path fill-rule="evenodd" clip-rule="evenodd" fill="#EF3E42" d="M12.908,6.681H8.502L6.961,8.235v7.881l1.541,1.555h4.406v-2.443
		H9.824V9.123h3.084V6.681L12.908,6.681z M31.524,6.681h-4.186l-1.542,1.333v9.657h2.644v-3.663h1.984v3.663h2.641V8.014
		L31.524,6.681L31.524,6.681z M30.424,9.011H28.44v2.554h1.984V9.011L30.424,9.011z M80.542,6.681h-4.187l-1.543,1.333v9.657h2.646
		v-3.663h1.982v3.663h2.643V8.014L80.542,6.681L80.542,6.681z M79.44,9.011h-1.982v2.554h1.982V9.011L79.44,9.011z M22.711,8.014
		l-1.982-1.333h-5.176v10.99h2.862v-4.441l2.425,4.441h2.973l-2.643-4.552l1.542-0.997V8.014L22.711,8.014z M18.527,9.123h1.542
		v2.331h-1.542V9.123L18.527,9.123z M35.931,17.67h2.974v-3.885h2.257v-2.442h-2.257V9.235h2.534V6.681h-5.508V17.67L35.931,17.67z
		 M45.513,17.67h2.864V9.346h1.818l0.826-2.665h-6.994L43.2,9.346h2.313V17.67L45.513,17.67z M51.352,17.67h7.104l0.826-2.552
		l-4.295-5.883h3.523l0.772-2.554h-6.5l-0.66,2.774l3.966,5.772h-3.966L51.352,17.67L51.352,17.67z M61.484,17.67h2.866v-6.438
		l1.652,3.886h1.211l1.652-3.886v6.438h2.865V6.681h-3.525l-1.542,3.773h-0.111L65.01,6.681h-3.526V17.67L61.484,17.67z
		 M84.948,17.67h2.864v-4.773h0.218l1.984,4.773h2.643V6.681h-2.643v4.996h-0.22l-2.26-4.996h-2.587V17.67L84.948,17.67z"/>
	<path opacity="0.65" fill-rule="evenodd" clip-rule="evenodd" fill="#231F20" d="M12.908,6.681H8.502L6.961,8.235v7.881
		l1.541,1.555h4.406v-2.443H9.824V9.123h3.084V6.681L12.908,6.681z M31.524,6.681h-4.186l-1.542,1.333v9.657h2.644v-3.663h1.984
		v3.663h2.641V8.014L31.524,6.681L31.524,6.681z M30.424,9.011H28.44v2.554h1.984V9.011L30.424,9.011z M80.542,6.681h-4.187
		l-1.543,1.333v9.657h2.646v-3.663h1.982v3.663h2.643V8.014L80.542,6.681L80.542,6.681z M79.44,9.011h-1.982v2.554h1.982V9.011
		L79.44,9.011z M22.711,8.014l-1.982-1.333h-5.176v10.99h2.862v-4.441l2.425,4.441h2.973l-2.643-4.552l1.542-0.997V8.014
		L22.711,8.014z M18.527,9.123h1.542v2.331h-1.542V9.123L18.527,9.123z M35.931,17.67h2.974v-3.885h2.257v-2.442h-2.257V9.235h2.534
		V6.681h-5.508V17.67L35.931,17.67z M45.513,17.67h2.864V9.346h1.818l0.826-2.665h-6.994L43.2,9.346h2.313V17.67L45.513,17.67z
		 M51.352,17.67h7.104l0.826-2.552l-4.295-5.883h3.523l0.772-2.554h-6.5l-0.66,2.774l3.966,5.772h-3.966L51.352,17.67L51.352,17.67z
		 M61.484,17.67h2.866v-6.438l1.652,3.886h1.211l1.652-3.886v6.438h2.865V6.681h-3.525l-1.542,3.773h-0.111L65.01,6.681h-3.526
		V17.67L61.484,17.67z M84.948,17.67h2.864v-4.773h0.218l1.984,4.773h2.643V6.681h-2.643v4.996h-0.22l-2.26-4.996h-2.587V17.67
		L84.948,17.67z"/>
	<path fill-rule="evenodd" clip-rule="evenodd" fill="#FFFFFF" d="M12.559,6.326H8.151L6.609,7.881v7.882l1.542,1.555h4.407v-2.443
		H9.474V8.769h3.085V6.326L12.559,6.326z M31.172,6.326h-4.185l-1.543,1.333v9.658h2.645v-3.664h1.982v3.664h2.644V7.659
		L31.172,6.326L31.172,6.326z M30.071,8.657h-1.982v2.554h1.982V8.657L30.071,8.657z M80.19,6.326h-4.187l-1.541,1.332v9.659h2.642
		v-3.664h1.983v3.664h2.643V7.658L80.19,6.326L80.19,6.326z M79.089,8.657h-1.983v2.554h1.983V8.657L79.089,8.657z M22.361,7.659
		l-1.982-1.333H15.2v10.991h2.866v-4.442l2.423,4.442h2.974l-2.643-4.552l1.542-1V7.659L22.361,7.659z M18.177,8.769h1.541V11.1
		h-1.541V8.769L18.177,8.769z M35.578,17.317h2.977v-3.886h2.257v-2.442h-2.257V8.881h2.531V6.326h-5.508V17.317L35.578,17.317z
		 M45.163,17.317h2.864V8.989h1.816l0.827-2.663h-6.995l-0.826,2.663h2.313V17.317L45.163,17.317z M51,17.317h7.105l0.825-2.554
		l-4.296-5.882h3.524l0.771-2.555h-6.498l-0.664,2.776l3.968,5.772h-3.968L51,17.317L51,17.317z M61.134,17.317h2.864v-6.44
		l1.651,3.886h1.212l1.654-3.886v6.44h2.862V6.326h-3.524L66.311,10.1H66.2l-1.541-3.774h-3.525V17.317L61.134,17.317z
		 M84.595,17.317h2.865v-4.775h0.22l1.981,4.775h2.645V6.326h-2.642l-0.003,4.996h-0.22l-2.258-4.996h-2.589V17.317L84.595,17.317z"
		/>
</g>
</svg>
