<?xml version="1.0" encoding="utf-8"?>
<!-- Generator: Adobe Illustrator 15.1.0, SVG Export Plug-In . SVG Version: 6.00 Build 0)  -->
<!DOCTYPE svg PUBLIC "-//W3C//DTD SVG 1.1//EN" "http://www.w3.org/Graphics/SVG/1.1/DTD/svg11.dtd">
<svg version="1.1" id="Dewalt" xmlns="http://www.w3.org/2000/svg" xmlns:xlink="http://www.w3.org/1999/xlink" x="0px" y="0px"
	 width="99.913px" height="30.94px" viewBox="0 0 99.913 30.94" enable-background="new 0 0 99.913 30.94" xml:space="preserve">
<g>
	<g>
		<rect x="0" y="0" fill="#FDBC18" width="99.913" height="30.94"/>
	</g>
	<polygon fill="#231F20" points="4.264,4.261 95.609,4.261 95.609,5.992 4.264,5.992 4.264,4.261 	"/>
	<polygon fill="#231F20" points="4.264,24.619 95.606,24.619 95.606,26.351 4.264,26.351 4.264,24.619 	"/>
	<polygon fill="#231F20" points="81.75,6.86 95.609,6.86 95.609,11.628 91.853,11.628 91.853,23.715 85.495,23.715 85.495,11.628 
		81.75,11.628 81.75,6.86 	"/>
	<polygon fill="#231F20" points="72.221,6.861 72.221,23.715 83.77,23.715 83.77,18.691 78.572,18.691 78.572,6.861 72.221,6.861 	
		"/>
	<path fill="#231F20" d="M59.217,6.858h6.976l5.349,16.856h-6.215l-0.636-2.565h-3.896l-0.578,2.565h-6.487L59.217,6.858
		L59.217,6.858z M61.66,17.4h2.166l-1.058-4.909L61.66,17.4L61.66,17.4z"/>
	<polyline fill="#231F20" points="55.868,6.858 49.661,6.858 47.929,15.088 46.051,6.858 40.563,6.858 38.794,15.088 37.101,6.858 
		30.901,6.858 35.535,23.715 41.29,23.715 43.225,15.49 45.211,23.715 51.105,23.715 55.868,6.858 	"/>
	<polygon fill="#231F20" points="21.763,10.467 31.009,10.467 31.009,13.937 26.533,13.937 26.533,15.376 30.429,15.376 
		30.429,18.845 26.533,18.845 26.533,20.284 31.009,20.284 31.009,23.715 21.763,23.715 21.763,10.467 	"/>
	<path fill="#231F20" d="M4.267,23.715V6.858h7.896c4.663,0,8.372,2.54,8.372,8.463c0,5.765-3.591,8.394-8.402,8.394H4.267
		L4.267,23.715z M10.785,18.667c2.001,0,3.323-0.841,3.323-3.402c0-2.812-1.31-3.562-3.31-3.562h-0.511v6.964H10.785L10.785,18.667z
		"/>
	<path fill="#231F20" d="M92.712,22.312c0-0.792,0.644-1.378,1.402-1.378c0.754,0,1.396,0.585,1.396,1.378
		c0,0.8-0.642,1.384-1.396,1.384C93.356,23.696,92.712,23.112,92.712,22.312L92.712,22.312z M94.115,23.467
		c0.626,0,1.118-0.491,1.118-1.155c0-0.654-0.492-1.146-1.118-1.146c-0.631,0-1.125,0.491-1.125,1.146
		C92.99,22.976,93.484,23.467,94.115,23.467L94.115,23.467z M93.847,22.491h0.225L94.373,23h0.346l-0.355-0.529
		c0.239-0.029,0.403-0.177,0.403-0.467c0-0.243-0.191-0.422-0.573-0.422h-0.609V23h0.264V22.491L93.847,22.491z M93.847,22.254
		v-0.457h0.307c0.172,0,0.365,0.011,0.365,0.22c0,0.239-0.157,0.236-0.365,0.236H93.847L93.847,22.254z"/>
</g>
</svg>
