<?xml version="1.0" encoding="utf-8"?>
<!-- Generator: Adobe Illustrator 15.1.0, SVG Export Plug-In . SVG Version: 6.00 Build 0)  -->
<!DOCTYPE svg PUBLIC "-//W3C//DTD SVG 1.1//EN" "http://www.w3.org/Graphics/SVG/1.1/DTD/svg11.dtd">
<svg version="1.1" id="Electrolux" xmlns="http://www.w3.org/2000/svg" xmlns:xlink="http://www.w3.org/1999/xlink" x="0px" y="0px"
	 width="99.963px" height="12.734px" viewBox="0 0 99.963 12.734" enable-background="new 0 0 99.963 12.734" xml:space="preserve">
<g>
	<path fill-rule="evenodd" clip-rule="evenodd" fill="#005295" d="M94.131,9.798l0.979,1.391c0.438,0.439,0.152,1.071-0.309,1.208
		c-0.106,0.031-0.173,0.083-0.173,0.165l-0.002,0.177l5.337-0.001V12.54c0-0.055-0.025-0.119-0.086-0.141
		c-0.029-0.012-0.068-0.02-0.103-0.031c-0.544-0.182-1.022-0.458-1.47-1.034L95.696,7.89l1.171-1.453
		c0.769-0.866,1.737-1.455,2.318-1.574c0.106-0.021,0.136-0.074,0.136-0.171V4.537H99.14l-3.014,0.001c0,0,0.002,0,0,0L95.95,4.539
		c0,0-0.002,0.083-0.002,0.153c0,0.088,0.041,0.144,0.106,0.181c0.023,0.018,0.025,0.02,0.049,0.036
		c0.222,0.137,0.416,0.508-0.097,1.11c0.002,0.013-0.367,0.463-0.892,1.095l-0.002-0.009l-0.757-1.022
		c-0.45-0.452-0.136-1.111,0.348-1.221c0.108-0.021,0.137-0.073,0.137-0.17V4.536l-0.18,0.001h-5.034c0,0-0.004,0.085-0.004,0.155
		c0,0.125,0.086,0.188,0.204,0.219c0.539,0.182,1.013,0.457,1.456,1.028l2.266,3.076l-1.472,1.767
		c-0.759,0.854-1.411,1.5-1.942,1.616c-0.112,0.024-0.169,0.082-0.169,0.164l-0.002,0.177l3.093-0.001v-0.194
		c0.003-0.056-0.027-0.11-0.087-0.141c-0.036-0.019-0.057-0.026-0.088-0.049c-0.213-0.145-0.388-0.511,0.114-1.098
		c0-0.012,0.607-0.834,1.131-1.468L94.131,9.798L94.131,9.798z"/>
	<path fill="#005295" d="M26.785,2.78c-0.267-0.659-0.984-0.939-1.741-0.939h-3.06v4.107l2.413,0.004
		c0.821,0,1.569-0.152,1.708-0.772c0.018-0.073,0.071-0.127,0.141-0.128h0.144v2.894h-0.144c-0.073,0.001-0.111-0.062-0.143-0.143
		c-0.195-0.537-0.929-0.793-1.706-0.793h-2.413v3.292c0,0.979,0.351,1.247,1.333,1.247h1.731c0.806,0,1.712-0.399,2.022-1.172
		c0.023-0.059,0.075-0.088,0.133-0.088h0.119v2.439H18.2l0-0.159c-0.004-0.079,0.055-0.155,0.178-0.164
		c0.552-0.042,0.996-0.623,0.996-1.517V2.442c0-0.895-0.443-1.48-0.996-1.521c-0.123-0.01-0.182-0.083-0.178-0.164l0-0.159h8.834
		l0.001,2.271H26.92C26.867,2.867,26.804,2.83,26.785,2.78L26.785,2.78z"/>
	<path fill="#005295" d="M32.849,12.729l0.002-0.159c0.003-0.079-0.056-0.155-0.18-0.164c-0.55-0.042-0.993-0.629-0.993-1.523V2.125
		c0-0.675-0.002-2.003-0.002-2.003l-3.529,0.476v0.159c-0.003,0.081,0.056,0.154,0.179,0.164c0.551,0.041,0.995,0.625,0.995,1.518
		c0-0.02,0.004,8.447,0.004,8.447c0,0.893-0.442,1.479-0.994,1.521c-0.123,0.009-0.182,0.085-0.178,0.164l0.003,0.159H32.849
		L32.849,12.729z"/>
	<path fill="#005295" d="M79.554,12.729V12.57c0.003-0.079-0.054-0.155-0.181-0.164c-0.55-0.042-0.992-0.629-0.992-1.523V2.125
		c0-0.675,0-2.003,0-2.003L74.85,0.598l0.002,0.159c-0.006,0.081,0.055,0.154,0.177,0.164c0.551,0.041,0.997,0.625,0.997,1.518
		c0-0.02,0.003,8.447,0.003,8.447c0,0.893-0.44,1.479-0.993,1.521c-0.124,0.009-0.184,0.085-0.179,0.164l0.003,0.159H79.554
		L79.554,12.729z"/>
	<path fill="#005295" d="M61.447,4.394c0,0,0,1.159,0,1.832c0.37-0.675,1.093-1.989,2.647-1.989c0.278,0,0.512,0.063,0.678,0.123
		l-0.656,2.256c-0.078,0-0.692,0-1,0c-1.004,0-1.63,0.653-1.63,1.457l-0.002,2.809c0,0.893,0.442,1.482,0.993,1.524
		c0.125,0.009,0.183,0.085,0.179,0.164l-0.003,0.159h-4.655l-0.002-0.159c-0.004-0.079,0.054-0.155,0.178-0.164
		c0.551-0.042,0.997-0.629,0.997-1.523c0-0.654-0.001-3.39-0.001-4.176c0-0.893-0.377-1.43-0.992-1.516
		c-0.087-0.014-0.18-0.113-0.18-0.201c0-0.086,0-0.121,0-0.121L61.447,4.394L61.447,4.394z"/>
	<path fill="#005295" d="M89.462,12.737h-2.16c-0.731,0-0.948-0.462-0.948-0.845c-0.938,0.727-1.629,1.037-2.864,1.08
		c-1.395,0.044-2.666-0.816-2.666-2.356l-0.002-3.902c0-0.893-0.446-1.475-0.996-1.518c-0.123-0.01-0.181-0.084-0.177-0.164
		l-0.003-0.159l3.606-0.476l0.002,5.074c0,2.271,2.239,2.026,3.1,1.388l0.001-4.146c0-0.894-0.442-1.474-0.996-1.517
		c-0.124-0.01-0.182-0.084-0.179-0.164l-0.001-0.159l3.607-0.476l-0.002,6.478c0,0.699,0.135,1.419,0.687,1.536
		c0.096,0.02,0.161,0.059,0.161,0.186c0,0.067,0,0.142,0,0.142H89.462L89.462,12.737z"/>
	<path fill="#005295" d="M50.419,6.964V4.831c0,0-1.238-0.563-3.239-0.563c-2.589,0-4.396,1.317-4.414,4.512
		c-0.021,2.526,1.456,4.215,4.316,4.215c1.889,0,2.983-0.933,3.394-1.308c0.24-0.188,0.245-0.358,0.245-0.572
		c0-0.214,0.016-0.591,0.016-0.591c-0.773,0.556-1.808,0.939-2.824,0.939c-2.063,0-2.676-1.467-2.676-3.094
		c0-0.67,0.214-2.959,2.158-2.981c1.249,0,1.96,0.378,2.691,1.599c0.123,0.185,0.202,0.225,0.333,0.198V6.964L50.419,6.964z"/>
	<path fill="#005295" d="M69.669,5.373c-1.548,0-1.982,1.21-1.982,3.111c0,1.53,0.019,3.453,2,3.453
		c1.906-0.042,1.885-1.642,1.885-3.39c0-2.039-0.504-3.162-1.901-3.174H69.669L69.669,5.373z M69.533,4.228
		c1.998-0.033,4.726,0.473,4.748,4.232c0,2.935-1.096,4.535-4.71,4.535c-2.511,0-4.552-0.562-4.552-4.34
		c-0.02-3.843,2.788-4.406,4.512-4.428H69.533L69.533,4.228z"/>
	<path fill="#005295" d="M41.725,8.332h-5.713c-0.117,2.59,1.298,3.107,2.653,3.13c1.165,0,2.041-0.397,2.8-0.927
		c0,0,0,0.522,0,0.655c0,0.135-0.066,0.243-0.112,0.305c-0.515,0.694-1.82,1.501-3.631,1.501c-2.472,0-4.199-1.275-4.199-4.19
		c0-3.203,1.768-4.522,4.241-4.536h-0.002c2.556,0,3.87,1.203,3.96,3.827L41.725,8.332L41.725,8.332z M37.741,5.222L37.741,5.222
		c-0.785,0.044-1.51,0.389-1.729,2.096h3.379c0.02-1.751-0.864-2.052-1.669-2.096H37.741L37.741,5.222z"/>
	<path fill="#005295" d="M57.169,4.916V4.543h-2.628l-0.007-2.436l-3.479,3.602h1.111v4.781c0,0.814,0.256,2.532,2.551,2.554
		c1.017,0,1.741-0.362,2.301-0.856c0.209-0.167,0.209-0.275,0.22-0.441c0.01-0.142,0.004-0.309,0.004-0.59
		c-1.459,0.819-2.701,0.305-2.701-1.285V5.709h1.861C56.763,5.651,57.169,5.452,57.169,4.916L57.169,4.916z"/>
	<path fill="#005295" d="M0.012,0.593v12.142h12.144V0.593H0.012L0.012,0.593z M7.15,1.349c0,2.749-2.58,4.951-5.326,4.951
		L0.675,6.299c0.187-2.82,2.543-5.055,5.406-5.055C6.448,1.244,6.808,1.279,7.15,1.349L7.15,1.349z M7.15,11.978
		c-0.342,0.071-0.702,0.107-1.069,0.107c-2.862,0-5.219-2.237-5.406-5.056h1.149C4.571,7.029,7.15,9.23,7.15,11.978L7.15,11.978z
		 M7.876,1.551c2.11,0.74,3.623,2.752,3.623,5.111c0,2.363-1.513,4.377-3.622,5.116C7.877,11.283,7.876,2.045,7.876,1.551
		L7.876,1.551z"/>
</g>
</svg>
