<?xml version="1.0" encoding="utf-8"?>
<!-- Generator: Adobe Illustrator 15.1.0, SVG Export Plug-In . SVG Version: 6.00 Build 0)  -->
<!DOCTYPE svg PUBLIC "-//W3C//DTD SVG 1.1//EN" "http://www.w3.org/Graphics/SVG/1.1/DTD/svg11.dtd">
<svg version="1.1" id="Fridgidare" xmlns="http://www.w3.org/2000/svg" xmlns:xlink="http://www.w3.org/1999/xlink" x="0px" y="0px"
	 width="99.963px" height="11.383px" viewBox="0 0 99.963 11.383" enable-background="new 0 0 99.963 11.383" xml:space="preserve">
<g>
	<path fill-rule="evenodd" clip-rule="evenodd" fill="#536270" d="M71.766,5.887v5.477h1.92V5.887V0.426h-1.92V5.887z M33.352,6.739
		h2.795v2.047c-0.669,0.5-1.609,0.827-2.64,0.827c-2.234,0-3.72-1.655-3.72-3.906c0-2.125,1.531-3.89,3.547-3.89
		c1.392,0,2.219,0.453,3.063,1.171l1.219-1.456c-1.123-0.952-2.298-1.483-4.204-1.483c-3.298,0-5.643,2.595-5.643,5.657
		c0,3.22,2.252,5.656,5.673,5.656c1.939,0,3.485-0.779,4.565-1.703V5.065h-4.656V6.739z M91.646,9.646V6.707h6.189V4.988h-6.189
		V2.145h6.189V0.426h-8.113v10.938h8.115V9.646H91.646z M-0.043,11.363h1.921V6.911h6.22V5.163h-6.22V2.176h6.223v-1.75h-8.144
		V11.363z M17.086,7.223c1.53-0.437,2.609-1.516,2.609-3.312c0-0.986-0.327-1.798-0.906-2.393c-0.704-0.686-1.782-1.092-3.156-1.092
		h-4.877v10.938h1.922V7.552h2.377l2.719,3.811h2.267L17.086,7.223z M12.678,5.849V2.176h2.799c1.42,0,2.266,0.64,2.266,1.812
		c0,1.142-0.875,1.86-2.25,1.86H12.678z M22.863,5.704v5.66h1.923V5.794V0.426h-1.923V5.704z M41.451,5.887v5.477h1.924V5.977V0.426
		h-1.924V5.887z M51.349,0.426h-4.082v10.938h4.082c3.438,0,5.817-2.389,5.817-5.469C57.166,2.786,54.787,0.426,51.349,0.426z
		 M55.146,5.926c0,2.141-1.503,3.687-3.798,3.687h-2.158V2.176h2.158c2.295,0,3.798,1.578,3.798,3.719V5.926z M83.918,7.223
		c1.531-0.437,2.611-1.516,2.611-3.312c0-0.986-0.33-1.798-0.906-2.393c-0.705-0.686-1.781-1.092-3.158-1.092h-4.877v10.938h1.924
		V7.552h2.375l2.719,3.811h2.268L83.918,7.223z M79.512,5.849V2.176h2.797c1.422,0,2.268,0.64,2.268,1.812
		c0,1.142-0.877,1.86-2.25,1.86H79.512z M98.232,10.549c0-0.46,0.371-0.842,0.842-0.842c0.469,0,0.836,0.378,0.836,0.835
		c0,0.459-0.369,0.841-0.84,0.841S98.232,11.006,98.232,10.549z M99.82,10.544c0-0.417-0.322-0.753-0.746-0.753
		c-0.43,0-0.752,0.339-0.752,0.753c0,0.419,0.322,0.755,0.748,0.755C99.498,11.299,99.82,10.959,99.82,10.544z M98.732,10.082h0.393
		c0.115,0,0.203,0.034,0.268,0.095c0.045,0.045,0.07,0.107,0.07,0.184c0,0.145-0.082,0.234-0.203,0.267l0.236,0.332h-0.199
		l-0.213-0.303H98.9v0.303h-0.168V10.082z M99.117,10.511c0.109,0,0.174-0.054,0.174-0.136c0-0.094-0.064-0.143-0.174-0.143H98.9
		v0.279H99.117z M57.938,11.363h11.583L63.73,0L57.938,11.363z"/>
	<polygon fill-rule="evenodd" clip-rule="evenodd" fill="#EC174C" points="60.854,9.611 63.718,3.853 66.604,9.611 	"/>
</g>
</svg>
