<?xml version="1.0" encoding="utf-8"?>
<!-- Generator: Adobe Illustrator 15.1.0, SVG Export Plug-In . SVG Version: 6.00 Build 0)  -->
<!DOCTYPE svg PUBLIC "-//W3C//DTD SVG 1.1//EN" "http://www.w3.org/Graphics/SVG/1.1/DTD/svg11.dtd">
<svg version="1.1" id="GE" xmlns="http://www.w3.org/2000/svg" xmlns:xlink="http://www.w3.org/1999/xlink" x="0px" y="0px"
	 width="50.054px" height="50px" viewBox="0 0 50.054 50" enable-background="new 0 0 50.054 50" xml:space="preserve">
<g>
	<path fill="#375C8F" d="M50.054,24.919c0-13.742-11.143-24.88-24.879-24.88c-13.743,0-24.882,11.139-24.882,24.88
		c0,13.735,11.14,24.875,24.882,24.875C38.912,49.794,50.054,38.654,50.054,24.919L50.054,24.919z"/>
	<path fill="#FFFFFF" d="M25.159,1.009c-13.22,0-23.938,10.719-23.938,23.938c0,13.223,10.718,23.939,23.938,23.939
		c13.223,0,23.94-10.716,23.94-23.939C49.1,11.729,38.382,1.009,25.159,1.009L25.159,1.009z M47.908,25.989l-0.031-0.356
		c-0.667-6.145-3.592-4.583-3.592-4.583c-1.499,0.711-1.33,2.676-0.196,3.826c1.106,1.113,1.459,3.613,1.459,3.613
		c0.407,7.672-3.249,11.644-3.249,11.644c-4.191,4.731-10.319,7.714-17.139,7.714l-1.846-0.08l0.807-0.069l0.359-0.034
		c6.142-0.669,4.582-3.596,4.582-3.596c-0.713-1.495-2.676-1.333-3.824-0.19c-1.117,1.098-3.616,1.452-3.616,1.452
		c-7.669,0.411-11.645-3.248-11.645-3.248C5.243,37.89,2.263,31.769,2.263,24.947l0.076-1.847l0.072,0.807l0.031,0.355
		c0.674,6.147,3.596,4.587,3.596,4.587c1.497-0.715,1.331-2.679,0.196-3.83c-1.105-1.113-1.459-3.607-1.459-3.607
		c-0.408-7.675,3.249-11.65,3.249-11.65c4.192-4.725,10.317-7.709,17.135-7.709l1.852,0.073L26.203,2.2l-0.357,0.03
		c-6.144,0.672-4.586,3.597-4.586,3.597c0.716,1.497,2.677,1.33,3.826,0.195c1.114-1.102,3.617-1.457,3.617-1.457
		c7.667-0.41,11.641,3.247,11.641,3.247c4.734,4.195,7.716,10.317,7.716,17.135l-0.079,1.852L47.908,25.989L47.908,25.989z"/>
	<path fill="#FFFFFF" d="M34.911,26.507c-5.267-0.191-4.973,4.195-4.973,4.195c0.204,1.745,0.796,2.62,1.348,3.154
		c1.086,1.039,2.16,0.359,2.16,0.359c0.944-1.074-0.096-1.758-0.096-1.758c-2.147-2.434,0.587-3.318,0.587-3.318
		c2.922-0.289,3.024,3.318,3.024,3.318c0.192,4.293-4.687,4-4.687,4c-4.779-0.68-4.388-5.462-4.388-5.462
		c-0.486-3.51,3.417-6.729,3.417-6.729c5.459,0.977,5.262-1.656,5.262-1.656c0.395-1.95-4.645-0.91-4.645-0.91
		c-0.46-0.326-0.651-1.233-0.651-1.233c1.163-0.197,3.442-2.638,3.442-2.638c4.033-4.842-0.194-6.823-0.194-6.823
		c-3.511-0.588-5.072,3.021-5.072,3.021c-0.912,2.798-0.585,6.112-0.585,6.112l-6.241,3.836l0.095-1.661
		c4.585-3.118,2.444-4.581,2.444-4.581c-2.727-1.073-3.71,3.413-3.71,3.413c-3.71,3.802-4.486,0.585-4.486,0.585
		c2.598-0.555,4.486-3.12,4.486-3.12c4.391-4.879,1.266-7.216,1.266-7.216c-3.316-1.563-6.241,2.731-6.241,2.731
		c-1.654,2.565-1.559,5.657-1.559,5.657c-1.565-0.413-1.706-2.67-1.647-4.001c0,0,0.727-2.146-0.766-0.829
		c-0.938,0.833-0.904,2.683-0.904,2.683c0.194,3.119,3.222,4.126,3.222,4.126c0.486,2.927,2.251,3.03,3.022,3.186
		c1.265,0.264,3.218-1.169,3.218-1.169l-0.098,1.562c-5.43,1.818-7.578,4.484-7.578,4.484c-3.704,3.803-1.884,7.508-1.884,7.508
		c1.042,2.309,2.929,2.243,2.929,2.243c0.746,0,1.104,0.071,1.624-0.062c0.399-0.108,0.974-0.194,1.432-0.521
		c0.655-0.467,1.376-0.894,1.925-1.468c3.849-4.007,3.406-11.603,3.406-11.603l6.729-4.096c0.037,0.519,0.357,0.782,0.357,0.782
		c-4.876,2.861-5.234,8.193-5.234,8.193c-0.422,7.605,7.379,8.712,7.379,8.712c1.82,0,2.931-0.362,3.9-0.782
		c4.216-1.818,3.839-6.176,3.839-6.176C39.656,27.03,34.911,26.507,34.911,26.507L34.911,26.507z M33.804,13.376
		c1.038,0.713,0.452,1.76-0.064,2.601c-0.865,1.396-2.537,2.728-2.537,2.728C31.332,13.049,33.804,13.376,33.804,13.376
		L33.804,13.376z M21.061,13.311c0.518,0.195,0.359,0.913,0.359,0.913c0.076,2.294-4.261,5.067-4.261,5.067
		C17.645,13.634,21.061,13.311,21.061,13.311L21.061,13.311z M19.889,32.266c-2.439,5.949-5.169,4.678-5.169,4.678
		c-0.44-0.293-0.914-0.473-1.138-0.943c-0.224-0.471-0.198-1.236-0.198-1.236c0.098-3.61,7.383-7.185,7.383-7.185
		C20.864,29.825,19.889,32.266,19.889,32.266L19.889,32.266z"/>
</g>
</svg>
