<?xml version="1.0" encoding="utf-8"?>
<!-- Generator: Adobe Illustrator 15.1.0, SVG Export Plug-In . SVG Version: 6.00 Build 0)  -->
<!DOCTYPE svg PUBLIC "-//W3C//DTD SVG 1.1//EN" "http://www.w3.org/Graphics/SVG/1.1/DTD/svg11.dtd">
<svg version="1.1" id="Husqvarna" xmlns="http://www.w3.org/2000/svg" xmlns:xlink="http://www.w3.org/1999/xlink" x="0px" y="0px"
	 width="99.913px" height="17.827px" viewBox="0 0 99.913 17.827" enable-background="new 0 0 99.913 17.827" xml:space="preserve">
<g>
	<path fill-rule="evenodd" clip-rule="evenodd" fill="#00539F" d="M50.592,11.139c0-2.247,1.035-2.827,1.918-2.827
		c0.505,0,2.044,0.252,2.044,2.675c0,1.843-0.834,2.626-1.943,2.626C51.224,13.613,50.592,12.73,50.592,11.139z M48.22,11.139
		c0,2.221,1.187,4.518,3.762,4.518c1.185,0,2.018-0.555,2.472-1.389v3.559h2.321V6.571h-2.22v1.287
		c-0.404-0.757-1.086-1.539-2.473-1.539C49.835,6.319,48.22,8.008,48.22,11.139z"/>
	<path fill-rule="evenodd" clip-rule="evenodd" fill="#00539F" d="M66.303,13.081c0,1.919,1.64,2.576,2.902,2.525
		c1.288-0.05,2.119-0.555,2.85-1.287c0.052,0.479,0.153,0.732,0.252,1.035h2.55V15c-0.479-0.15-0.531-0.782-0.531-1.387V8.842
		c0-0.631-0.15-2.523-3.834-2.523c-2.5,0-3.736,0.934-3.887,3.079h2.271c0.153-1.035,0.783-1.236,1.617-1.236
		c0.731,0,1.512,0.151,1.512,1.085c0,0.303-0.175,0.555-0.831,0.656l-2.246,0.276C67.59,10.381,66.303,11.139,66.303,13.081z
		 M72.005,11.038v1.136c0,1.289-1.361,1.742-2.145,1.742c-0.606,0.049-1.185-0.302-1.185-0.985
		C68.675,11.188,70.972,11.82,72.005,11.038z"/>
	<path fill-rule="evenodd" clip-rule="evenodd" fill="#00539F" d="M91.548,13.081c0,1.919,1.59,2.576,2.804,2.525
		c1.234,0,2.091-0.555,2.749-1.287c0.051,0.479,0.151,0.732,0.251,1.035h2.5V15c-0.504-0.15-0.557-0.782-0.557-1.387V8.842
		c0-0.631-0.15-2.523-3.659-2.523c-2.448,0-3.584,0.934-3.786,3.079h2.248c0.102-1.035,0.708-1.187,1.538-1.187
		c0.605,0,1.414,0.101,1.414,1.035c0,0.303-0.151,0.555-0.809,0.656l-2.144,0.329C92.787,10.432,91.548,11.139,91.548,13.081z
		 M97.05,11.038v1.136c0,1.289-1.312,1.742-2.043,1.742c-0.607,0.049-1.111-0.302-1.111-0.934
		C93.896,11.188,96.042,11.82,97.05,11.038z"/>
	<path fill-rule="evenodd" clip-rule="evenodd" fill="#00539F" d="M4.191,5.003C3.666,5.079,3.14,5.274,2.958,6.218
		c-0.506,2.373-0.688,4.805-0.089,7.217c0.29,0.985,0.815,1.486,1.613,1.505c1.85,0.348,3.735,0.443,5.601,0
		c0.689-0.213,1.071-0.619,1.216-1.505c0.507-2.412,0.542-4.785-0.055-7.16c-0.2-0.887-0.598-1.196-1.36-1.33
		C7.979,4.599,6.312,4.482,4.191,5.003z M0.439,1.336C1.345,0.951,2.27,0.622,3.23,0.468C3.048,1.819,2.996,2.918,4.299,2.823
		c1.542-0.155,1.27-1.583,1.396-2.722c0.87-0.173,1.777-0.116,2.702-0.059c0.018,1.062-0.309,2.239,0.815,2.625
		c0.817,0.385,1.377,0.135,1.687-0.676l0.053-1.484c0.87,0.231,1.759,0.519,2.666,0.868c0,1.042,0.036,2.103-0.834,2.835
		c0.834,1.467,1.251,3.551,1.359,5.579c-0.108,2.275-0.037,4.61-1.649,6.291c-0.87,1.157-2.811,1.408-4.877,1.543
		c-2.501-0.077-5.038-0.212-6.507-2.066c-1.106-2.103-1.161-4.187-1.088-6.252C0.095,6.933,0.511,5.254,1.4,4.309
		C0.602,3.883,0.294,2.918,0.439,1.336z"/>
	<g>
		<polygon fill-rule="evenodd" clip-rule="evenodd" fill="#00539F" points="3.539,5.966 3.539,13.938 5.602,13.938 5.602,10.742 
			8.599,10.742 8.599,13.938 10.573,13.938 10.573,5.966 8.599,5.966 8.599,8.797 5.602,8.797 5.602,5.966 		"/>
	</g>
	<g>
		<polygon fill-rule="evenodd" clip-rule="evenodd" fill="#00539F" points="18.995,15.354 21.517,15.354 21.517,10.054 
			26.086,10.054 26.086,15.354 28.56,15.354 28.56,3.492 26.086,3.492 26.086,7.959 21.517,7.959 21.517,3.492 18.995,3.492 		"/>
	</g>
	<g>
		<path fill-rule="evenodd" clip-rule="evenodd" fill="#00539F" d="M38.022,6.571H35.85v5.048c0,1.541-0.984,1.995-1.69,1.995
			c-0.707,0-1.413-0.253-1.413-1.641V6.571h-2.222v5.805c0,2.196,1.238,3.23,2.828,3.23c1.185,0,2.069-0.555,2.599-1.438v1.187h2.07
			V6.571z"/>
	</g>
	<g>
		<path fill-rule="evenodd" clip-rule="evenodd" fill="#00539F" d="M39.457,12.578c0,2.069,1.868,3.028,4.089,3.028
			c2.195,0,3.685-1.136,3.685-3.028c0-3.281-5.299-2.298-5.299-3.686c0-0.53,0.479-0.782,1.336-0.782
			c1.136,0,1.389,0.48,1.514,1.086h2.196c-0.076-0.934-0.428-2.877-3.81-2.877c-2.323,0-3.433,1.288-3.433,2.927
			c0,3.332,5.25,2.196,5.25,3.685c0,0.378-0.328,0.883-1.438,0.883c-0.934,0-1.792-0.252-1.792-1.235H39.457z"/>
	</g>
	<g>
		<polygon fill-rule="evenodd" clip-rule="evenodd" fill="#00539F" points="60.922,15.354 63.192,15.354 63.319,15 66.17,6.571 
			63.898,6.571 62.107,12.477 60.391,6.571 57.968,6.571 58.069,6.924 		"/>
	</g>
	<g>
		<path fill-rule="evenodd" clip-rule="evenodd" fill="#00539F" d="M76.227,15.354h2.248v-4.569c0-1.488,0.756-2.144,2.019-2.144
			c0.2,0,0.401,0,0.63,0.05V6.369c-0.102,0-0.275-0.05-0.43-0.05c-1.463,0-1.942,1.034-2.271,1.741l-0.05-1.489h-2.146V15.354z"/>
	</g>
	<g>
		<path fill-rule="evenodd" clip-rule="evenodd" fill="#00539F" d="M82.466,15.354h2.248V10.28c0-0.983,0.45-1.968,1.79-1.968
			c1.438,0,1.438,0.934,1.438,1.742v5.3h2.25V9.246c0-1.893-1.136-2.927-2.979-2.927c-1.137,0-2.018,0.556-2.522,1.488l-0.053-1.236
			h-2.171V15.354z"/>
	</g>
</g>
</svg>
