<?xml version="1.0" encoding="utf-8"?>
<!-- Generator: Adobe Illustrator 15.1.0, SVG Export Plug-In . SVG Version: 6.00 Build 0)  -->
<!DOCTYPE svg PUBLIC "-//W3C//DTD SVG 1.1//EN" "http://www.w3.org/Graphics/SVG/1.1/DTD/svg11.dtd">
<svg version="1.1" id="Jenn-Air" xmlns="http://www.w3.org/2000/svg" xmlns:xlink="http://www.w3.org/1999/xlink" x="0px" y="0px"
	 width="99.913px" height="19.509px" viewBox="0 0 99.913 19.509" enable-background="new 0 0 99.913 19.509" xml:space="preserve">
<g>
	<g>
		<g>
			<path fill="#231F20" d="M22.419,14.909c0,2.631-1.052,4.594-3.893,4.594c-0.245,0-0.814,0.015-1.017,0l0.024-1.923h0.517
				c2.156,0,2.342-1.08,2.342-3.274V0.614h2.026V14.909z"/>
			<path fill="#231F20" d="M32.291,2.433h-5.985v4.263h5.708v1.826h-5.708v4.4h6.177v1.816h-8.211V0.614h8.019V2.433z"/>
			<path fill="#231F20" d="M47.26,14.738h-1.739L36.068,3.861v10.877h-1.903V0.614h1.62l9.569,10.94V0.614h1.906V14.738z"/>
			<path fill="#231F20" d="M62.23,14.738h-1.738L51.044,3.861v10.877h-1.909V0.614h1.614l9.572,10.94V0.614h1.908V14.738z"/>
			<path fill="#231F20" d="M74.634,3.636l2.273,5.118h-4.389L74.634,3.636z M75.372,0.527h-1.426l-6.074,14.211h2.076l1.779-4.161
				h6.016l1.881,4.161h2.07L75.372,0.527z"/>
			<path fill="#231F20" d="M84.783,14.738h-2.034V0.614h2.034V14.738z"/>
			<path fill="#231F20" d="M67.972,10.584h-3.975l-0.003-1.82h4.755L67.972,10.584z"/>
			<path fill="#231F20" d="M95.754,14.738l-3.608-6.586c0.104-0.04,0.203-0.08,0.3-0.123c1.511-0.604,2.359-1.83,2.359-3.464
				c0-2.446-1.777-3.951-4.643-3.951h-3.562v14.125h2.033V8.609h0.85c0.194,0,0.384-0.009,0.569-0.021l3.368,6.15H95.754z
				 M88.634,6.78V2.353h1.304c1.972,0,2.76,0.805,2.777,2.129c0.02,1.178-0.601,2.297-2.777,2.297H88.634z"/>
		</g>
		<g>
			<path fill="#231F20" d="M0,1.043v6.215h3.218c0.539,0.803,1.214,1.506,1.934,2.034c-1.055,0.539-2.233,0.771-3.303,0.383
				C1.187,9.292,0.56,8.76,0,8.128v5.601c0.011,0.579,0.48,1.046,1.058,1.046h12.656c0.588,0,1.062-0.479,1.062-1.063V4.763
				c-0.778,0.456-1.565,1.226-2.414,2.496c-1.179,1.75-3.005,3.039-4.571,3.039H3.897c1.574,0,3.396-1.289,4.574-3.039
				c1.627-2.416,2.998-3.044,4.568-3.044h1.736V1.059C14.776,0.47,14.303,0,13.714,0H1.058C0.48,0,0.011,0.463,0,1.043z"/>
		</g>
	</g>
	<g>
		<path fill="#231F20" d="M97.309,13.716c0-0.682,0.553-1.239,1.244-1.239c0.683,0,1.242,0.557,1.242,1.239
			c0,0.691-0.56,1.246-1.242,1.246C97.862,14.962,97.309,14.407,97.309,13.716z M99.466,13.716c0-0.552-0.382-0.946-0.913-0.946
			c-0.543,0-0.915,0.394-0.915,0.946c0,0.561,0.372,0.951,0.915,0.951C99.084,14.667,99.466,14.276,99.466,13.716z M99.168,14.396
			h-0.323l-0.3-0.567h-0.222v0.567h-0.281v-1.345h0.646c0.354,0,0.521,0.095,0.521,0.411c0,0.247-0.13,0.348-0.365,0.367
			L99.168,14.396z M98.694,13.625c0.151,0.003,0.256-0.031,0.256-0.197c0-0.183-0.194-0.169-0.324-0.169h-0.302v0.366H98.694z"/>
	</g>
	<g>
		<path fill="#231F20" d="M15.694,1.077V0.135h0.3V0.02H15.26v0.116h0.301v0.941H15.694z"/>
		<path fill="#231F20" d="M16.271,1.077h-0.111V0.02h0.198l0.319,0.846l0.311-0.846h0.194v1.057h-0.133V0.154h-0.006L16.71,1.077
			h-0.09l-0.342-0.923h-0.007V1.077z"/>
	</g>
</g>
</svg>
