<?xml version="1.0" encoding="utf-8"?>
<!-- Generator: Adobe Illustrator 16.0.4, SVG Export Plug-In . SVG Version: 6.00 Build 0)  -->
<!DOCTYPE svg PUBLIC "-//W3C//DTD SVG 1.1//EN" "http://www.w3.org/Graphics/SVG/1.1/DTD/svg11.dtd">
<svg version="1.1" id="whirlpool" xmlns="http://www.w3.org/2000/svg" xmlns:xlink="http://www.w3.org/1999/xlink" x="0px" y="0px"
	 width="100px" height="44px" viewBox="-0.019 -1.017 100 44" enable-background="new -0.019 -1.017 100 44" xml:space="preserve">
<g>
	<radialGradient id="SVGID_1_" cx="20.8306" cy="20.3381" r="22.6147" gradientUnits="userSpaceOnUse">
		<stop  offset="0.5" style="stop-color:#C30452"/>
		<stop  offset="0.735" style="stop-color:#C10451"/>
		<stop  offset="0.8348" style="stop-color:#BA034F"/>
		<stop  offset="0.909" style="stop-color:#AD024B"/>
		<stop  offset="0.9702" style="stop-color:#9C0145"/>
		<stop  offset="1" style="stop-color:#900041"/>
	</radialGradient>
	<path fill="url(#SVGID_1_)" d="M0,20.984C0,9.008,9.708-0.696,21.667-0.696c11.981,0,21.689,9.704,21.689,21.679
		c0,11.975-9.708,21.677-21.689,21.677C9.708,42.66,0,32.958,0,20.984z"/>
	
		<linearGradient id="SVGID_2_" gradientUnits="userSpaceOnUse" x1="194.6074" y1="-684.011" x2="194.6074" y2="-651.4446" gradientTransform="matrix(0.7071 -0.7071 0.7071 0.7071 353.059 627.5751)">
		<stop  offset="0" style="stop-color:#E0939D"/>
		<stop  offset="1" style="stop-color:#C30452"/>
	</linearGradient>
	<path fill="url(#SVGID_2_)" d="M5.379,30.956c-6.359-6.359-5.63-17.398,1.616-24.645c7.259-7.263,18.295-7.993,24.656-1.632
		c6.359,6.36,5.627,17.399-1.631,24.663C22.772,36.59,11.739,37.319,5.379,30.956z"/>
	<linearGradient id="SVGID_3_" gradientUnits="userSpaceOnUse" x1="7.0996" y1="9.9573" x2="33.583" y2="36.4406">
		<stop  offset="0" style="stop-color:#CB4164"/>
		<stop  offset="1" style="stop-color:#85003C"/>
	</linearGradient>
	<path fill="url(#SVGID_3_)" d="M23.218,11.738c-0.074-0.081-0.454-0.498-0.454-0.498l-1.956,0.222L20.57,30.702
		c0,0,0.441,0.519,0.509,0.603c0.069,0.082,0.154,0.141,0.28,0.141c0.124,0,6.021,0,6.14,0c0.119,0,0.192-0.059,0.192-0.178
		c0-0.118,0-1.608,0-1.76c0-0.153-0.044-0.25-0.126-0.355c-0.084-0.101-0.489-0.606-0.489-0.606l-3.738,0.407c0,0,0-16.811,0-16.931
		C23.338,11.905,23.289,11.813,23.218,11.738z M12.058,14.471c0,1.661,1.354,3.008,3.021,3.008c1.665,0,3.016-1.348,3.016-3.008
		c0-1.665-1.352-3.019-3.016-3.019C13.413,11.452,12.058,12.807,12.058,14.471z M40.588,20.505
		c-0.092-0.096-0.553-0.583-0.553-0.583l-0.354,0.317H26.926l-0.302,1.831c0,0,0.378,0.381,0.47,0.483
		c0.093,0.096,0.231,0.168,0.37,0.168c1.512,0,10.082,0,10.786,0c-0.658,8.411-7.729,14.981-16.181,14.981
		c-4.329,0-8.409-1.69-11.482-4.763C7.525,29.879,5.84,25.8,5.84,21.46c0-4.341,1.686-8.418,4.746-11.481
		c3.078-3.066,7.156-4.751,11.482-4.751c0,0,1.034,0.011,1.136,0.006c0.101,0,0.134-0.053,0.134-0.137c0-0.085,0-1.715,0-1.799
		c0-0.084-0.03-0.156-0.099-0.222c-0.07-0.064-0.475-0.463-0.475-0.463l-0.703,0.116c-10.318,0-18.714,8.401-18.714,18.732
		c0,5,1.945,9.702,5.481,13.247c3.533,3.538,8.231,5.484,13.233,5.484c5.014,0,9.72-1.946,13.254-5.484
		c3.535-3.543,5.478-8.247,5.478-13.247c0,0,0-0.278,0-0.454C40.793,20.796,40.738,20.653,40.588,20.505z"/>
	<polygon fill="#586A76" points="20.995,30.279 20.57,30.702 27.076,30.702 26.649,30.279 	"/>
	<path fill="#8699A3" d="M26.649,28.973l0.427-0.427c-0.004,0-3.898,0-4.312,0l0,0l-0.424,0.427H26.649z"/>
	<polygon fill="#8699A3" points="20.995,11.664 22.34,11.664 22.764,11.24 20.57,11.24 	"/>
	<path fill="#152631" d="M22.34,28.973l0.424-0.427c0-0.453,0-17.306,0-17.306l0,0l-0.424,0.424V28.973z"/>
	<polygon fill="#152631" points="26.649,30.279 27.076,30.702 27.076,30.702 27.076,28.546 27.076,28.546 26.649,28.973 	"/>
	<polygon fill="#ABBAC2" points="20.995,11.664 20.57,11.24 20.57,11.24 20.57,30.702 20.57,30.702 20.995,30.279 	"/>
	<linearGradient id="SVGID_4_" gradientUnits="userSpaceOnUse" x1="12.749" y1="12.0608" x2="16.75" y2="16.0617">
		<stop  offset="0" style="stop-color:#ABBAC2"/>
		<stop  offset="1" style="stop-color:#152631"/>
	</linearGradient>
	<path fill="url(#SVGID_4_)" d="M11.916,14.065c0,1.557,1.271,2.82,2.835,2.82c1.561,0,2.831-1.264,2.831-2.82
		c0-1.564-1.27-2.831-2.831-2.831C13.187,11.234,11.916,12.501,11.916,14.065z M17.157,14.065c0,1.322-1.083,2.394-2.407,2.394
		c-1.33,0-2.412-1.071-2.412-2.394c0-1.325,1.082-2.409,2.412-2.409C16.075,11.656,17.157,12.74,17.157,14.065z"/>
	<polygon fill="#152631" points="22.34,4.346 22.76,4.774 22.76,4.774 22.764,4.538 22.764,2.612 22.764,2.612 22.34,3.031 	"/>
	<polygon fill="#8699A3" points="39.088,19.925 26.626,19.925 27.048,20.347 39.612,20.347 40.036,19.922 40.036,19.922 	"/>
	<linearGradient id="SVGID_5_" gradientUnits="userSpaceOnUse" x1="38.2808" y1="20.9817" x2="5.0312" y2="20.9817">
		<stop  offset="0" style="stop-color:#ABBAC2"/>
		<stop  offset="1" style="stop-color:#152631"/>
	</linearGradient>
	<path fill="url(#SVGID_5_)" d="M21.663,4.34c-4.432,0-8.611,1.728-11.767,4.869c-3.137,3.141-4.864,7.32-4.864,11.769
		c0,4.449,1.728,8.628,4.864,11.767c3.151,3.147,7.331,4.882,11.767,4.882c8.723,0,16.017-6.817,16.605-15.518l0.013-0.362
		l-0.409-0.005l-0.028,0.33c-0.576,8.483-7.682,15.127-16.181,15.127c-4.322,0-8.396-1.687-11.467-4.754
		c-3.055-3.058-4.739-7.131-4.739-11.467c0-4.334,1.685-8.41,4.739-11.471c3.075-3.057,7.15-4.744,11.467-4.744l1.097,0.01
		l-0.42-0.426L21.663,4.34z"/>
	<linearGradient id="SVGID_6_" gradientUnits="userSpaceOnUse" x1="6.9404" y1="9.511" x2="33.1385" y2="35.7091">
		<stop  offset="0" style="stop-color:#ABBAC2"/>
		<stop  offset="1" style="stop-color:#152631"/>
	</linearGradient>
	<path fill="url(#SVGID_6_)" d="M39.612,20.979c0,4.792-1.867,9.3-5.254,12.695c-3.386,3.391-7.898,5.258-12.701,5.258
		c-4.792,0-9.295-1.867-12.681-5.258c-3.387-3.397-5.253-7.906-5.253-12.695c0-9.904,8.045-17.955,17.934-17.955l0.684,0.008
		l0.424-0.419l-1.108-0.015c-10.123,0-18.359,8.247-18.359,18.382c0,4.903,1.911,9.516,5.379,12.991
		c3.464,3.473,8.076,5.388,12.98,5.388c4.919,0,9.535-1.915,13.002-5.388c3.468-3.473,5.377-8.088,5.377-12.991v-1.057l-0.424,0.425
		V20.979z"/>
	<polygon fill="#C2CED5" points="27.048,20.347 26.626,19.925 26.624,19.925 26.624,22.071 26.626,22.071 27.048,21.649 	"/>
	<path fill="#445661" d="M27.048,21.647l-0.422,0.424c0.004,0,10.67,0,11.218,0l0.437-0.424H27.048z"/>
	
		<radialGradient id="SVGID_7_" cx="-449.2241" cy="-79.2166" r="16.0907" gradientTransform="matrix(1.9995 0 0 2 909.0424 164.7732)" gradientUnits="userSpaceOnUse">
		<stop  offset="0.35" style="stop-color:#FFFFFF"/>
		<stop  offset="0.5604" style="stop-color:#FCFDFD"/>
		<stop  offset="0.6869" style="stop-color:#F4F6F7"/>
		<stop  offset="0.7912" style="stop-color:#E6EAED"/>
		<stop  offset="0.8835" style="stop-color:#D2DADE"/>
		<stop  offset="0.9669" style="stop-color:#B8C4CB"/>
		<stop  offset="1" style="stop-color:#ABBAC2"/>
	</radialGradient>
	<path fill="url(#SVGID_7_)" d="M20.802,11.472V30.47h6.041v-1.695h-4.311V11.472H20.802z M22.533,2.84
		c-0.227-0.007-0.659-0.011-0.876-0.011c-9.988,0-18.127,8.14-18.127,18.149c0,4.851,1.888,9.4,5.309,12.827
		c3.424,3.432,7.983,5.319,12.818,5.319c4.856,0,9.413-1.888,12.841-5.319c3.421-3.427,5.309-7.977,5.309-12.827v-0.828
		l-0.717,0.004H26.856v1.686h11.227c-0.003,0.037-0.004,0.216-0.009,0.249c-0.577,8.553-7.712,15.346-16.411,15.346
		c-4.383,0-8.515-1.716-11.63-4.828c-3.1-3.101-4.808-7.235-4.808-11.628c0-4.399,1.708-8.53,4.808-11.633
		c3.115-3.101,7.247-4.813,11.63-4.813c0.192,0,0.663,0,0.87,0.006V2.84z"/>
	
		<radialGradient id="SVGID_8_" cx="-447.7964" cy="-75.866" r="2.0347" gradientTransform="matrix(1.9995 0 0 2 909.0424 164.7732)" gradientUnits="userSpaceOnUse">
		<stop  offset="0.35" style="stop-color:#FFFFFF"/>
		<stop  offset="0.5369" style="stop-color:#FBFCFC"/>
		<stop  offset="0.7304" style="stop-color:#EEF2F4"/>
		<stop  offset="0.9264" style="stop-color:#DAE2E6"/>
		<stop  offset="1" style="stop-color:#D0DADF"/>
	</radialGradient>
	<path fill="url(#SVGID_8_)" d="M14.75,16.653c1.428,0,2.598-1.156,2.598-2.588c0-1.443-1.17-2.603-2.598-2.603
		c-1.433,0-2.604,1.16-2.604,2.603C12.146,15.497,13.317,16.653,14.75,16.653z"/>
	<path fill="#FFFFFF" d="M15.219,11.932c0.595,0,1.141,0.21,1.583,0.551c-0.479-0.616-1.217-1.021-2.052-1.021
		c-1.433,0-2.604,1.16-2.604,2.603c0,0.829,0.4,1.559,1.011,2.033c-0.335-0.435-0.543-0.972-0.543-1.565
		C12.615,13.09,13.787,11.932,15.219,11.932z"/>
	<path fill="#FFFFFF" d="M22.533,2.84c-0.227-0.007-0.659-0.011-0.876-0.011c-9.988,0-18.127,8.14-18.127,18.149
		c0,4.851,1.888,9.4,5.309,12.827c0.11,0.111,0.224,0.217,0.336,0.321c-3.229-3.389-5.01-7.807-5.01-12.516
		C4.165,11.634,11.234,3.338,22.533,2.84z"/>
	<path fill="#FFFFFF" d="M22.534,28.775c0,0,1.242,0.363,4.309,0.363v-0.363H22.534z"/>
	<path fill="#FFFFFF" d="M22.533,12.008v-0.536h-1.73V30.47c0,0,0.536-2.892,0.536-18.462H22.533z"/>
	<path fill="#FFFFFF" d="M39.806,20.151l-12.95,0.004v1.686h0.469v-1.219C38.608,20.621,39.806,20.151,39.806,20.151z"/>
	<path fill="#FFFFFF" d="M38.083,21.84c-0.003,0.037-0.004,0.216-0.009,0.249c-0.577,8.553-7.712,15.346-16.411,15.346
		c-4.383,0-8.515-1.716-11.63-4.828c-2.027-2.028-3.459-4.497-4.208-7.193C7.77,32.498,14.25,37.63,21.95,37.63
		c8.264,0,15.873-6.474,16.348-15.79H38.083z"/>
</g>
<path fill="#77787B" d="M54.192,8.086h7.652v19.425h11.361v6.484H54.192V8.086z"/>
<path fill="#77787B" d="M93.008,31.412c-1.354,2.064-3.848,3.224-6.977,3.224c-6.731,0-11.114-5.354-11.114-13.63
	c0-8.395,4.939-13.565,13.094-13.565c3.253,0,6.035,0.867,8.182,2.517c2.169,1.715,2.978,3.396,3.327,6.816h-8.002
	c-0.224-1.996-1.71-3.278-3.685-3.278c-3.084,0-4.896,2.862-4.896,7.614c0,4.822,1.885,7.718,5.035,7.718
	c2.492,0,3.927-1.387,4.521-4.475h-4.936v-5.445H99.52v15.087h-6.512V31.412z"/>
</svg>
