<?xml version="1.0" encoding="utf-8"?>
<!-- Generator: Adobe Illustrator 15.1.0, SVG Export Plug-In . SVG Version: 6.00 Build 0)  -->
<!DOCTYPE svg PUBLIC "-//W3C//DTD SVG 1.1//EN" "http://www.w3.org/Graphics/SVG/1.1/DTD/svg11.dtd">
<svg version="1.1" id="Samsung" xmlns="http://www.w3.org/2000/svg" xmlns:xlink="http://www.w3.org/1999/xlink" x="0px" y="0px"
	 width="99.963px" height="34.101px" viewBox="0 0 99.963 34.101" enable-background="new 0 0 99.963 34.101" xml:space="preserve">
<path fill="#005AA3" d="M44.322,3.36c0,0-15.998,3.404-28.771,8.887c0.124-0.009,0.246-0.021,0.383-0.021
	c3.397,0,3.458,1.823,3.458,1.823v1.266h-2.348c0.185-1.451-0.925-1.36-0.925-1.36c-0.525,0-1.545,1.298,0.34,2.072
	c2.947,1.208,3.15,2.564,3.182,3.087c0.028,0.526,0.462,3.49-3.46,3.49c-3.924,0-3.554-3.333-3.554-3.333h2.381
	c0,0-0.217,1.082,0.461,1.359c1.206,0.493,1.575-0.403,1.515-0.928c-0.063-0.523-0.587-0.897-2.071-1.636
	c-1.482-0.743-1.852-1.577-1.945-2.413c-0.057-0.516-0.078-1.714,0.648-2.548c-8.617,3.962-15.202,8.89-13.281,14.349
	c4.428,12.608,58.85,5.371,84.043-5.859c-0.156,0.013-0.313,0.022-0.486,0.022c-3.307,0-3.46-2.07-3.46-2.07v-5.837
	c0,0-0.031-2.442,3.183-2.442c3.209,0,3.365,1.732,3.365,1.732l0.062,1.359l-2.501,0.03c0,0,0.247-1.328-0.866-1.328
	c-1.111,0-0.71,1.298-0.71,1.298v4.755c0,0-0.125,0.713,0.833,0.713c0.957,0,0.834-0.713,0.834-0.713v-1.729h-0.68v-1.295h3.09
	v3.302c0,0,0.038,0.557-0.335,1.113c1.292-0.639,2.494-1.288,3.579-1.945C111.661,5.583,98.068-5.907,44.322,3.36z M28.075,21.925
	l-1.361-7.229l-1.264,7.258h-2.473l1.73-9.512h3.924l1.945,9.482H28.075z M44.261,21.77l-2.317,0.032v-7.167l-1.669,7.229h-2.438
	l-1.794-7.229v7.229h-2.408v-9.578h4.231l1.114,5.345l1.079-5.345h4.203V21.77z M51.147,22.233c-3.922,0-3.552-3.336-3.552-3.336
	h2.378c0,0-0.214,1.083,0.465,1.359c1.204,0.495,1.575-0.401,1.512-0.927c-0.06-0.526-0.585-0.896-2.069-1.637
	c-1.482-0.741-1.852-1.575-1.945-2.41c-0.094-0.834-0.094-3.427,2.963-3.427c3.399,0,3.462,1.819,3.462,1.819v1.269h-2.348
	c0.184-1.452-0.926-1.358-0.926-1.358c-0.526,0-1.545,1.297,0.34,2.066c2.947,1.209,3.149,2.567,3.179,3.091
	C54.638,19.269,55.071,22.233,51.147,22.233z M61.336,21.986h-0.052c-3.582,0-3.34-2.07-3.34-2.07v-7.783h2.47v7.196
	c0,0,0,0.741,0.895,0.741c0.897,0,0.897-0.741,0.897-0.741v-7.196h2.47v7.783C64.677,19.917,64.917,21.986,61.336,21.986z
	 M76.817,21.492h-2.843l-3.026-5.96v5.993h-2.385l-0.022-9.575h2.963l2.904,5.712v-5.681h2.409V21.492z"/>
</svg>
