<?xml version="1.0" encoding="utf-8"?>
<!-- Generator: Adobe Illustrator 15.1.0, SVG Export Plug-In . SVG Version: 6.00 Build 0)  -->
<!DOCTYPE svg PUBLIC "-//W3C//DTD SVG 1.1//EN" "http://www.w3.org/Graphics/SVG/1.1/DTD/svg11.dtd">
<svg version="1.1" id="whirlpool" xmlns="http://www.w3.org/2000/svg" xmlns:xlink="http://www.w3.org/1999/xlink" x="0px" y="0px"
	 width="99.963px" height="38.938px" viewBox="0 0 99.963 38.938" enable-background="new 0 0 99.963 38.938" xml:space="preserve">
<g>
	<path fill="#D0D2D3" d="M98.987,9.855c0-0.38-0.231-0.537-0.681-0.537h-0.711v1.871h0.308v-0.801h0.289l0.482,0.801h0.351
		L98.5,10.366C98.779,10.334,98.987,10.194,98.987,9.855z M97.903,10.125V9.579h0.373c0.183,0,0.403,0.028,0.403,0.254
		c0,0.27-0.203,0.293-0.435,0.293H97.903z"/>
	<path fill="#D0D2D3" d="M98.238,8.529c-0.896,0-1.664,0.673-1.664,1.691c0,0.963,0.692,1.69,1.664,1.69
		c0.886,0,1.653-0.673,1.653-1.69C99.892,9.203,99.124,8.529,98.238,8.529z M98.238,11.617c-0.805,0-1.303-0.629-1.303-1.396
		c0-0.823,0.57-1.397,1.303-1.397c0.724,0,1.293,0.574,1.293,1.397C99.531,11.048,98.962,11.617,98.238,11.617z"/>
	<polygon fill="#D0D2D3" points="18.802,21.336 15.384,8.774 12.682,8.774 9.289,21.336 5.919,8.774 3.194,8.774 7.925,26.069 
		10.677,26.069 14.07,13.506 17.416,26.069 20.165,26.069 24.898,8.774 22.173,8.774 	"/>
	<path fill="#D0D2D3" d="M33.419,26.069h2.725v-7.557c0-3.792-1.487-4.783-3.692-4.783c-1.238,0-2.253,0.223-3.518,0.695h-0.099
		l0.05-1.586V8.601L26.16,8.824v17.246h2.725v-9.54c0.695-0.197,1.363-0.372,2.156-0.372c1.264,0,2.379,0.298,2.379,2.577V26.069z"
		/>
	<rect x="38.521" y="13.903" fill="#D0D2D3" width="2.727" height="12.167"/>
	<path fill="#D0D2D3" d="M39.885,12.492c1.337,0,1.635-0.843,1.635-1.76s-0.223-1.735-1.635-1.735c-1.364,0-1.61,0.818-1.61,1.735
		S38.548,12.492,39.885,12.492z"/>
	<path fill="#D0D2D3" d="M46.278,16.777c0.716-0.322,1.311-0.495,2.056-0.495c0.52,0,1.039,0.074,1.535,0.149v-2.676
		c-0.198-0.025-0.397-0.025-0.569-0.025c-1.486,0-2.627,0.545-3.345,1.165h-0.173l-0.372-0.991h-1.858v12.167h2.726V16.777z"/>
	<polygon fill="#D0D2D3" points="53.759,8.601 51.034,8.824 51.034,26.069 53.759,26.069 	"/>
	<path fill="#D0D2D3" d="M85.347,13.729c-3.865,0-5.476,2.28-5.476,6.318c0,3.789,1.411,6.269,5.425,6.269
		c4.015,0,5.402-2.48,5.402-6.269C90.698,16.009,89.212,13.729,85.347,13.729z M85.248,24.16c-2.18,0-2.627-1.908-2.627-4.112
		c0-2.377,0.548-4.188,2.751-4.188c2.179,0,2.552,1.882,2.552,4.188C87.924,22.353,87.427,24.16,85.248,24.16z"/>
	<polygon fill="#D0D2D3" points="92.507,26.069 95.23,26.069 95.23,8.601 92.507,8.824 	"/>
	<path fill="#D0D2D3" d="M73.794,0.648c-2.273-2.41-10.764,2.17-19.427,9.321v0.93c8.484-7.083,16.472-11.25,18.312-9.295
		c0.936,0.991,0.112,4.098-2.006,7.701c-0.305,0.143-0.643,0.427-0.954,0.878c-1.21,1.739-2.681,3.647-4.314,5.586
		c-0.762-1.404-1.986-2.039-3.446-2.039c-1.364,0-2.751,0.619-3.568,1.065h-0.124l-0.224-0.892h-2.056V25.36
		c-9.997,8.863-19.121,13.979-21.102,11.878c-1.234-1.308,0.791-5.539,4.483-10.561h-1.023c-3.915,5.339-6.036,9.946-4.469,11.61
		c2.403,2.547,12.296-2.641,22.155-11.021c-0.015,0.013-0.028,0.025-0.044,0.038v4.562l2.725-0.295v-5.576h0.076
		c0.767,0.148,1.61,0.246,2.377,0.246c3.172,0,5.081-2.105,5.081-6.367c0-0.815-0.066-1.542-0.186-2.184
		c-0.172,0.186-0.362,0.378-0.542,0.568c2.334-2.455,4.228-4.705,5.604-6.794c0.676-1.024,0.703-1.749,0.421-2.072
		C74.191,5.274,75.143,2.079,73.794,0.648z M58.595,22.981c0.093-2.604,0.093-3.871,0.093-6.278
		c0.669-0.223,1.337-0.347,2.032-0.347c1.406,0,2.317,0.405,2.641,1.762c-1.447,1.601-2.985,3.187-4.572,4.683
		C58.723,22.862,58.661,22.919,58.595,22.981z M63.462,20.368c-0.188,2.761-1.243,3.498-2.767,3.498
		c-0.307,0-0.58-0.006-0.846-0.012c0,0.002-0.001,0.002-0.004,0.003c0.05-0.045,0.099-0.092,0.15-0.139
		c1.238-1.167,2.403-2.291,3.49-3.375C63.479,20.352,63.47,20.359,63.462,20.368z"/>
	<path fill="#BBBDBF" d="M27.728,4.805c0.3-0.175,0.542-0.357,0.718-0.544c0.18-0.187,0.294-0.379,0.341-0.575
		c0.049-0.195,0.031-0.39-0.057-0.587c-0.087-0.196-0.239-0.392-0.461-0.583c-0.22-0.191-0.509-0.377-0.861-0.559
		c-0.351-0.18-0.767-0.353-1.241-0.517c-0.475-0.163-1.006-0.318-1.592-0.459c-0.585-0.141-1.221-0.27-1.898-0.384
		c-0.68-0.115-1.401-0.214-2.155-0.298c-0.754-0.083-1.541-0.149-2.349-0.199c-0.807-0.05-1.636-0.08-2.473-0.091
		c-0.836-0.012-1.682-0.006-2.523,0.018c-0.84,0.027-1.676,0.07-2.495,0.135c-0.817,0.063-1.62,0.145-2.389,0.246
		c-0.771,0.097-1.51,0.214-2.208,0.35C5.386,0.888,4.732,1.04,4.129,1.204C3.528,1.367,2.98,1.545,2.495,1.736
		C2.009,1.924,1.588,2.129,1.236,2.34C0.886,2.549,0.605,2.77,0.402,2.996C0.197,3.22,0.069,3.452,0.021,3.685
		c-0.048,0.234-0.016,0.469,0.097,0.703C0.23,4.622,0.424,4.855,0.697,5.083C0.968,5.31,1.321,5.531,1.748,5.747
		c0.428,0.212,0.929,0.418,1.5,0.61C3.82,6.551,4.459,6.731,5.159,6.898c0.7,0.166,1.46,0.317,2.271,0.451
		c0.81,0.132,1.669,0.248,2.562,0.345c0.895,0.097,1.824,0.173,2.785,0.229c0.138,0.008,0.277,0.018,0.416,0.024
		c0.131,0.006,0.247-0.006,0.368-0.062c0.106-0.046,0.217-0.136,0.229-0.258C13.8,7.498,13.696,7.403,13.59,7.35
		c-0.117-0.059-0.233-0.082-0.361-0.089c-0.489-0.031-0.972-0.068-1.446-0.113c-0.608-0.056-1.201-0.125-1.773-0.204
		C9.441,6.865,8.892,6.775,8.37,6.676C7.856,6.58,7.367,6.472,6.909,6.356C6.534,6.262,6.181,6.162,5.852,6.055
		C4.956,5.77,4.237,5.445,3.733,5.101C3.514,4.95,3.335,4.794,3.199,4.639C3.065,4.483,2.972,4.325,2.924,4.166
		c-0.05-0.158-0.056-0.317-0.019-0.475C2.942,3.536,3.021,3.38,3.141,3.226c0.121-0.15,0.282-0.302,0.483-0.449
		c0.198-0.144,0.437-0.284,0.711-0.42c0.272-0.134,0.583-0.264,0.927-0.389c0.187-0.067,0.385-0.133,0.594-0.196
		C6.23,1.656,6.633,1.547,7.064,1.45c0.23-0.054,0.468-0.104,0.714-0.153c0.452-0.088,0.925-0.17,1.419-0.24
		c0.494-0.071,1.005-0.134,1.53-0.186c0.521-0.051,1.052-0.093,1.594-0.126c0.539-0.03,1.086-0.052,1.636-0.064
		c0.543-0.011,1.088-0.013,1.631-0.003c0.541,0.008,1.078,0.027,1.607,0.056c0.523,0.028,1.039,0.066,1.542,0.113
		c0.498,0.046,0.983,0.103,1.451,0.169c0.463,0.063,0.909,0.137,1.332,0.217c0.835,0.159,1.583,0.347,2.214,0.562
		c0.618,0.208,1.123,0.441,1.493,0.687c0.362,0.241,0.593,0.494,0.681,0.752c0.088,0.251,0.038,0.508-0.147,0.755
		c-0.182,0.243-0.496,0.479-0.932,0.699c-0.423,0.212-0.964,0.413-1.602,0.587c-0.416,0.115-0.872,0.216-1.362,0.311
		c0.123-0.115,0.212-0.219,0.234-0.39c0.02-0.17-0.082-0.292-0.245-0.351c-0.299-0.112-0.681-0.006-0.946,0.084
		c-0.144,0.049-0.293,0.097-0.449,0.143c-0.311,0.09-0.646,0.17-0.997,0.241c-0.351,0.071-0.719,0.13-1.099,0.181
		c-0.378,0.05-0.769,0.089-1.162,0.116c-0.395,0.028-0.792,0.046-1.188,0.053c-0.118,0.001-0.237,0.001-0.356,0.001
		c-0.353,0-0.702-0.004-1.047-0.014c-0.492-0.014-0.975-0.04-1.438-0.073c-0.463-0.036-0.908-0.079-1.331-0.13
		c-0.422-0.054-0.82-0.114-1.188-0.182c-0.368-0.067-0.706-0.142-1.01-0.222C9.359,4.969,9.104,4.891,8.881,4.808
		C8.765,4.765,8.653,4.737,8.527,4.739c-0.108,0-0.257,0.029-0.316,0.135C8.15,4.983,8.22,5.108,8.292,5.187
		c0.083,0.089,0.182,0.147,0.296,0.193c0.054,0.022,0.109,0.044,0.167,0.065c0.253,0.097,0.527,0.188,0.822,0.271
		c0.299,0.085,0.619,0.164,0.955,0.235c0.339,0.071,0.696,0.136,1.067,0.194c0.373,0.058,0.763,0.105,1.161,0.148
		c0.403,0.041,0.817,0.074,1.235,0.098c0.425,0.024,0.852,0.039,1.283,0.044c0.438,0.006,0.875,0.002,1.312-0.012
		c0.438-0.013,0.875-0.036,1.302-0.068c0.316-0.022,0.627-0.052,0.934-0.086c0.076-0.006,0.151-0.018,0.226-0.024
		c0,0.158,0.203,0.252,0.329,0.292c0.158,0.05,0.311,0.063,0.474,0.05c0.67-0.049,1.326-0.115,1.957-0.193
		c0.642-0.082,1.256-0.176,1.84-0.286C24.231,6,24.778,5.876,25.284,5.742c0.506-0.135,0.967-0.281,1.377-0.439
		C27.069,5.147,27.427,4.979,27.728,4.805z"/>
	<path fill="#BBBDBF" d="M15.978,3.759c-0.049-0.073-0.136-0.144-0.258-0.208c-0.113-0.059-0.256-0.114-0.426-0.164
		c-0.153-0.042-0.328-0.079-0.52-0.109c-0.171-0.025-0.355-0.045-0.547-0.058c-0.131-0.007-0.263-0.014-0.396-0.014
		c-0.134,0-0.269,0.006-0.399,0.014c-0.191,0.013-0.376,0.032-0.546,0.058c-0.193,0.03-0.368,0.067-0.521,0.109
		c-0.17,0.05-0.314,0.105-0.426,0.164c-0.123,0.064-0.21,0.135-0.261,0.208c-0.053,0.078-0.063,0.16-0.033,0.239
		c0.035,0.086,0.115,0.171,0.239,0.252c0.132,0.085,0.313,0.167,0.53,0.239c0.233,0.079,0.51,0.148,0.815,0.204
		c0.325,0.061,0.685,0.108,1.061,0.14c0.196,0.018,0.398,0.03,0.602,0.042c0.21,0.01,0.422,0.015,0.636,0.017
		c0.044,0,0.087,0,0.13,0c0.188,0,0.377-0.003,0.564-0.008c0.239-0.006,0.474-0.017,0.708-0.033
		c0.484-0.032,0.949-0.083,1.378-0.149c0.452-0.069,0.863-0.156,1.218-0.255c0.375-0.103,0.689-0.221,0.931-0.347
		c0.257-0.131,0.436-0.273,0.533-0.418c0.06-0.089,0.09-0.18,0.09-0.272c0-0.063-0.013-0.126-0.042-0.19
		c-0.071-0.159-0.229-0.317-0.466-0.463c-0.247-0.155-0.577-0.298-0.978-0.428c-0.418-0.136-0.907-0.254-1.45-0.352
		c-0.563-0.101-1.182-0.181-1.829-0.236c-0.673-0.058-1.376-0.09-2.082-0.095c-0.072,0-0.143,0-0.212,0
		c-1.932,0-4.377,0.287-6.163,1.121c-0.13,0.059-0.245,0.131-0.348,0.228C7.426,3.075,7.313,3.22,7.385,3.349
		c0.068,0.121,0.259,0.143,0.378,0.139C7.912,3.485,8.042,3.45,8.177,3.395C9.918,2.672,12.17,2.41,14.032,2.41
		c0.028,0,0.057,0,0.083,0c0.248,0.001,0.491,0.009,0.725,0.024c0.233,0.014,0.459,0.036,0.675,0.062
		c0.213,0.025,0.416,0.059,0.605,0.094c0.188,0.038,0.362,0.078,0.519,0.123s0.297,0.092,0.421,0.143s0.229,0.103,0.316,0.158
		c0.087,0.054,0.156,0.11,0.205,0.166c0.051,0.056,0.084,0.113,0.099,0.168s0.013,0.111-0.005,0.162
		c-0.02,0.052-0.051,0.104-0.102,0.152c-0.046,0.048-0.109,0.094-0.183,0.136c-0.073,0.043-0.158,0.083-0.251,0.118
		c-0.094,0.037-0.196,0.068-0.305,0.097c-0.107,0.028-0.222,0.051-0.34,0.072c-0.117,0.019-0.237,0.035-0.359,0.046
		c-0.017,0.002-0.036,0.004-0.054,0.006c-0.059,0.004-0.116,0.009-0.175,0.011c0.05-0.048,0.087-0.098,0.106-0.149
		C16.043,3.919,16.034,3.837,15.978,3.759z"/>
	<path fill="#231F20" d="M73.133,13.729c3.865,0,5.351,2.28,5.351,6.318c0,3.789-1.387,6.269-5.402,6.269
		c-4.012,0-5.426-2.48-5.426-6.269C67.656,16.009,69.267,13.729,73.133,13.729z M75.709,20.048c0-2.306-0.372-4.188-2.552-4.188
		c-2.206,0-2.751,1.811-2.751,4.188c0,2.205,0.447,4.112,2.628,4.112S75.709,22.353,75.709,20.048z"/>
	<path fill="#231F20" d="M98.238,11.911c-0.973,0-1.664-0.727-1.664-1.69c0-1.018,0.769-1.691,1.664-1.691
		c0.886,0,1.653,0.673,1.653,1.691C99.892,11.237,99.124,11.911,98.238,11.911z M98.238,8.824c-0.732,0-1.303,0.574-1.303,1.397
		c0,0.768,0.498,1.396,1.303,1.396c0.721,0,1.293-0.569,1.293-1.396C99.531,9.397,98.959,8.824,98.238,8.824z M97.903,11.188h-0.308
		V9.318h0.711c0.449,0,0.681,0.157,0.681,0.537c0,0.339-0.208,0.479-0.487,0.511l0.525,0.823h-0.351l-0.482-0.801h-0.289V11.188z
		 M98.245,10.125c0.231,0,0.435-0.023,0.435-0.293c0-0.226-0.221-0.254-0.403-0.254h-0.373v0.547H98.245z"/>
	<path fill="#231F20" d="M24.898,8.774l-4.733,17.295h-2.75L14.07,13.506l-3.394,12.563H7.925L3.194,8.774h2.725l3.37,12.562
		l3.394-12.562h2.702l3.418,12.562l3.371-12.562H24.898z"/>
	<path fill="#231F20" d="M26.16,8.824l2.725-0.223v4.237l-0.05,1.586h0.099c1.265-0.472,2.28-0.695,3.518-0.695
		c2.206,0,3.692,0.991,3.692,4.783v7.557h-2.725v-7.335c0-2.279-1.114-2.577-2.378-2.577c-0.792,0-1.462,0.175-2.156,0.372v9.54
		H26.16V8.824z"/>
	<path fill="#231F20" d="M39.885,8.997c1.412,0,1.635,0.818,1.635,1.735s-0.298,1.76-1.635,1.76s-1.61-0.843-1.61-1.76
		S38.521,8.997,39.885,8.997z M38.521,13.903h2.727v12.167h-2.727V13.903z"/>
	<path fill="#231F20" d="M43.552,13.903h1.857l0.372,0.991h0.173c0.718-0.62,1.859-1.165,3.345-1.165c0.172,0,0.372,0,0.569,0.025
		v2.676c-0.496-0.075-1.016-0.149-1.536-0.149c-0.744,0-1.339,0.173-2.055,0.495v9.292h-2.726V13.903z"/>
	<path fill="#231F20" d="M51.032,26.069V8.824l2.727-0.223v17.468H51.032z"/>
	<path fill="#231F20" d="M85.347,13.729c3.865,0,5.352,2.28,5.352,6.318c0,3.789-1.388,6.269-5.402,6.269
		c-4.014,0-5.425-2.48-5.425-6.269C79.871,16.009,81.481,13.729,85.347,13.729z M87.924,20.048c0-2.306-0.373-4.188-2.552-4.188
		c-2.203,0-2.751,1.811-2.751,4.188c0,2.205,0.445,4.112,2.627,4.112C87.427,24.16,87.924,22.353,87.924,20.048z"/>
	<path fill="#231F20" d="M92.507,26.069V8.824l2.724-0.223v17.468H92.507z"/>
	<path fill="#EEB111" d="M73.794,0.648c-2.273-2.41-10.765,2.17-19.428,9.321v0.93c8.486-7.083,16.473-11.25,18.314-9.295
		c0.936,0.991,0.112,4.098-2.006,7.701c-0.305,0.143-0.643,0.427-0.955,0.878c-2.691,3.873-6.639,8.572-10.931,12.619
		C47.745,33.216,37.052,39.535,34.886,37.238c-1.234-1.308,0.79-5.539,4.483-10.561h-1.023c-3.915,5.339-6.036,9.946-4.468,11.61
		c2.727,2.89,15.097-4.175,26.119-14.569c4.996-4.707,8.79-8.704,11.128-12.254c0.676-1.024,0.703-1.749,0.421-2.072
		C74.191,5.274,75.143,2.079,73.794,0.648z"/>
	<path fill="#231F20" d="M58.688,16.703c0.669-0.223,1.337-0.347,2.032-0.347c1.406,0,2.317,0.405,2.641,1.764
		c0.708-0.783,1.392-1.567,2.047-2.347c-0.763-1.407-1.986-2.043-3.449-2.043c-1.364,0-2.751,0.619-3.568,1.065h-0.124l-0.224-0.892
		h-2.056V25.36c0.865-0.767,1.734-1.558,2.607-2.379C58.688,20.377,58.688,19.11,58.688,16.703z"/>
	<path fill="#231F20" d="M63.462,20.368c-0.188,2.761-1.244,3.498-2.767,3.498c-0.307,0-0.58-0.006-0.846-0.012
		c-1.275,1.2-2.568,2.353-3.862,3.451v4.562l2.725-0.295v-5.576h0.076c0.767,0.148,1.61,0.246,2.377,0.246
		c3.172,0,5.08-2.105,5.08-6.367c0-0.815-0.066-1.542-0.185-2.184C65.253,18.556,64.385,19.447,63.462,20.368z"/>
	<path fill="#231F20" d="M21.866,5.585c0.123-0.115,0.212-0.219,0.234-0.39c0.02-0.17-0.082-0.292-0.245-0.351
		c-0.299-0.112-0.681-0.006-0.946,0.084c-0.144,0.049-0.293,0.097-0.449,0.143c-0.311,0.09-0.646,0.17-0.997,0.241
		c-0.351,0.071-0.719,0.13-1.099,0.181c-0.378,0.05-0.769,0.089-1.162,0.116c-0.395,0.028-0.792,0.046-1.188,0.053
		c-0.118,0.001-0.237,0.001-0.356,0.001c-0.353,0-0.702-0.004-1.047-0.014c-0.492-0.014-0.975-0.04-1.438-0.073
		c-0.463-0.036-0.908-0.079-1.331-0.13c-0.422-0.054-0.82-0.114-1.188-0.182c-0.368-0.067-0.706-0.142-1.01-0.222
		C9.359,4.969,9.104,4.891,8.881,4.808C8.765,4.765,8.653,4.737,8.527,4.739c-0.108,0-0.257,0.029-0.316,0.135
		C8.15,4.983,8.22,5.108,8.292,5.187c0.083,0.089,0.182,0.147,0.296,0.193c0.054,0.022,0.109,0.044,0.167,0.065
		c0.253,0.097,0.527,0.188,0.822,0.271c0.299,0.085,0.619,0.164,0.955,0.235c0.339,0.071,0.696,0.136,1.067,0.194
		c0.373,0.058,0.763,0.105,1.161,0.148c0.403,0.041,0.817,0.074,1.235,0.098c0.425,0.024,0.852,0.039,1.283,0.044
		c0.438,0.006,0.875,0.002,1.312-0.012c0.438-0.013,0.875-0.036,1.302-0.068c0.316-0.022,0.627-0.052,0.934-0.086
		c0.076-0.006,0.151-0.018,0.226-0.024c0,0.158,0.203,0.252,0.329,0.292c0.158,0.05,0.311,0.063,0.474,0.05
		c0.67-0.049,1.326-0.115,1.957-0.193c0.642-0.082,1.256-0.176,1.84-0.286C24.231,6,24.778,5.876,25.284,5.742
		c0.505-0.135,0.967-0.281,1.377-0.439c0.408-0.156,0.766-0.324,1.067-0.499c0.3-0.175,0.542-0.357,0.718-0.544
		c0.18-0.187,0.293-0.379,0.341-0.575c0.049-0.195,0.031-0.39-0.057-0.587c-0.087-0.196-0.239-0.392-0.461-0.583
		c-0.221-0.191-0.509-0.377-0.861-0.559c-0.351-0.18-0.767-0.353-1.241-0.517c-0.475-0.163-1.006-0.318-1.592-0.459
		c-0.585-0.141-1.221-0.27-1.898-0.384c-0.68-0.115-1.401-0.214-2.155-0.298c-0.754-0.083-1.541-0.149-2.349-0.199
		c-0.807-0.05-1.636-0.08-2.473-0.091c-0.836-0.012-1.682-0.006-2.523,0.018c-0.84,0.027-1.676,0.07-2.495,0.135
		c-0.817,0.063-1.62,0.145-2.389,0.246c-0.771,0.097-1.51,0.214-2.208,0.35C5.386,0.888,4.732,1.04,4.129,1.204
		C3.528,1.367,2.98,1.545,2.495,1.736C2.009,1.924,1.588,2.129,1.236,2.34C0.886,2.549,0.605,2.77,0.402,2.996
		C0.197,3.22,0.069,3.452,0.021,3.685c-0.048,0.234-0.016,0.469,0.097,0.703C0.23,4.622,0.424,4.855,0.697,5.083
		C0.968,5.31,1.321,5.531,1.748,5.747c0.428,0.212,0.929,0.418,1.5,0.61C3.82,6.551,4.459,6.731,5.159,6.898
		c0.7,0.166,1.46,0.317,2.271,0.451c0.81,0.132,1.669,0.248,2.562,0.345c0.895,0.097,1.824,0.173,2.785,0.229
		c0.138,0.008,0.277,0.018,0.416,0.024c0.131,0.006,0.247-0.006,0.368-0.062c0.106-0.046,0.217-0.136,0.229-0.258
		C13.8,7.498,13.696,7.403,13.59,7.35c-0.117-0.059-0.233-0.082-0.361-0.089c-0.489-0.031-0.972-0.068-1.446-0.113
		c-0.608-0.056-1.201-0.125-1.773-0.204C9.441,6.865,8.892,6.775,8.37,6.676C7.856,6.58,7.367,6.472,6.909,6.356
		C6.534,6.262,6.181,6.162,5.852,6.055C4.956,5.77,4.237,5.445,3.733,5.101C3.514,4.95,3.335,4.794,3.199,4.639
		C3.065,4.483,2.972,4.325,2.924,4.166c-0.05-0.158-0.056-0.317-0.019-0.475C2.942,3.536,3.021,3.38,3.141,3.226
		c0.121-0.15,0.282-0.302,0.483-0.449c0.198-0.144,0.437-0.284,0.711-0.42c0.272-0.134,0.583-0.264,0.927-0.389
		c0.187-0.067,0.385-0.133,0.594-0.196C6.23,1.656,6.633,1.547,7.064,1.45c0.23-0.054,0.468-0.104,0.714-0.153
		c0.452-0.088,0.925-0.17,1.419-0.24c0.494-0.071,1.005-0.134,1.53-0.186c0.521-0.051,1.052-0.093,1.594-0.126
		c0.539-0.03,1.086-0.052,1.636-0.064c0.543-0.011,1.088-0.013,1.631-0.003c0.541,0.008,1.078,0.027,1.607,0.056
		c0.523,0.028,1.039,0.066,1.542,0.113c0.498,0.046,0.983,0.103,1.451,0.169c0.463,0.063,0.909,0.137,1.332,0.217
		c0.835,0.159,1.583,0.347,2.214,0.562c0.618,0.208,1.123,0.441,1.493,0.687c0.36,0.241,0.593,0.494,0.681,0.752
		c0.088,0.251,0.038,0.508-0.147,0.755c-0.182,0.243-0.496,0.479-0.932,0.699c-0.423,0.212-0.964,0.413-1.602,0.587
		C22.812,5.389,22.355,5.491,21.866,5.585z"/>
	<path fill="#231F20" d="M8.177,3.395C8.042,3.45,7.912,3.485,7.763,3.488c-0.119,0.004-0.31-0.019-0.378-0.139
		C7.313,3.22,7.426,3.075,7.511,2.994c0.103-0.097,0.217-0.169,0.348-0.228c1.785-0.834,4.231-1.121,6.163-1.121
		c0.069,0,0.14,0,0.212,0c0.706,0.005,1.409,0.037,2.082,0.095c0.647,0.055,1.266,0.136,1.829,0.236
		c0.543,0.098,1.032,0.216,1.45,0.352c0.401,0.13,0.731,0.273,0.978,0.428c0.238,0.146,0.396,0.304,0.466,0.463
		c0.029,0.063,0.042,0.126,0.042,0.19c0,0.092-0.031,0.183-0.09,0.272c-0.098,0.146-0.276,0.288-0.533,0.418
		c-0.242,0.126-0.557,0.244-0.931,0.347c-0.355,0.099-0.767,0.186-1.218,0.255c-0.429,0.066-0.894,0.117-1.378,0.149
		c-0.233,0.016-0.469,0.027-0.708,0.033c-0.188,0.004-0.376,0.008-0.564,0.008c-0.043,0-0.086,0-0.13,0
		c-0.213-0.001-0.425-0.006-0.636-0.017c-0.204-0.012-0.406-0.024-0.602-0.042c-0.376-0.032-0.735-0.08-1.061-0.14
		c-0.305-0.056-0.582-0.125-0.815-0.204c-0.217-0.072-0.398-0.154-0.53-0.239c-0.124-0.082-0.204-0.167-0.239-0.252
		c-0.03-0.079-0.021-0.161,0.033-0.239c0.051-0.073,0.138-0.144,0.261-0.208c0.112-0.059,0.255-0.114,0.426-0.164
		c0.152-0.042,0.328-0.079,0.521-0.109c0.17-0.025,0.355-0.045,0.546-0.058c0.13-0.007,0.265-0.014,0.399-0.014
		c0.133,0,0.265,0.006,0.396,0.014c0.192,0.013,0.376,0.032,0.547,0.058c0.192,0.03,0.367,0.067,0.52,0.109
		c0.17,0.05,0.313,0.105,0.426,0.164c0.123,0.064,0.209,0.135,0.258,0.208c0.056,0.078,0.065,0.16,0.033,0.239
		c-0.019,0.051-0.056,0.101-0.106,0.149c0.059-0.002,0.116-0.006,0.175-0.011c0.018-0.001,0.037-0.004,0.054-0.006
		c0.122-0.012,0.242-0.028,0.359-0.046c0.119-0.021,0.233-0.044,0.34-0.072c0.109-0.029,0.211-0.06,0.305-0.097
		c0.094-0.034,0.178-0.075,0.251-0.118c0.074-0.042,0.136-0.088,0.183-0.136c0.05-0.048,0.082-0.1,0.102-0.152
		c0.019-0.051,0.021-0.107,0.005-0.162s-0.048-0.112-0.099-0.168c-0.049-0.056-0.118-0.112-0.205-0.166
		c-0.087-0.055-0.192-0.107-0.316-0.158s-0.264-0.099-0.421-0.143s-0.33-0.085-0.519-0.123c-0.189-0.035-0.392-0.069-0.605-0.094
		C15.3,2.47,15.074,2.448,14.84,2.434c-0.234-0.015-0.477-0.023-0.725-0.024c-0.027,0-0.055,0-0.083,0
		C12.17,2.41,9.918,2.672,8.177,3.395z"/>
	<g>
		<path fill="#231F20" d="M63.988,30.799h-0.515v-1.026h-0.937v1.026h-0.516V28.42h0.516v0.944h0.937V28.42h0.515V30.799z"/>
		<path fill="#231F20" d="M64.645,29.608c0-0.906,0.44-1.222,1.101-1.222s1.091,0.337,1.091,1.222c0,0.884-0.433,1.225-1.099,1.225
			C65.077,30.833,64.645,30.501,64.645,29.608z M66.293,29.606c0-0.632-0.207-0.828-0.544-0.828c-0.343,0-0.552,0.228-0.562,0.828
			c-0.011,0.599,0.208,0.832,0.552,0.832C66.078,30.438,66.293,30.24,66.293,29.606z"/>
		<path fill="#231F20" d="M67.505,28.42h0.6l0.712,1.775h0.02l0.687-1.775h0.568l0.132,2.379h-0.521l-0.061-1.54h-0.035
			l-0.049,0.163l-0.54,1.377H68.56l-0.518-1.375l-0.051-0.159h-0.032l-0.088,1.534H67.37L67.505,28.42z"/>
		<path fill="#231F20" d="M70.787,28.42h1.513v0.425h-0.998v0.52h0.876v0.409h-0.876v0.6h1.022v0.426h-1.537V28.42z"/>
		<path fill="#231F20" d="M73.453,30.744l0.85-2.342h0.503l0.89,2.342v0.055h-0.569l-0.198-0.533h-0.747l-0.174,0.533h-0.555V30.744
			z M74.834,29.922l-0.239-0.821l-0.027-0.133h-0.034l-0.027,0.133l-0.249,0.821H74.834z"/>
		<path fill="#231F20" d="M76.226,28.42h0.648c0.702,0,1.044,0.161,1.044,0.769c0,0.611-0.406,0.789-0.919,0.789h-0.258v0.822
			h-0.516V28.42z M76.741,29.616h0.188c0.3,0,0.449-0.096,0.449-0.392c0-0.298-0.149-0.384-0.426-0.384h-0.211V29.616z"/>
		<path fill="#231F20" d="M78.376,28.42h0.648c0.702,0,1.042,0.161,1.042,0.769c0,0.611-0.406,0.789-0.917,0.789h-0.259v0.822
			h-0.515V28.42z M78.891,29.616h0.188c0.3,0,0.449-0.096,0.449-0.392c0-0.298-0.149-0.384-0.426-0.384h-0.212V29.616z"/>
		<path fill="#231F20" d="M80.594,28.42h0.515v1.953h1.022v0.426h-1.537V28.42z"/>
		<path fill="#231F20" d="M82.655,30.799V28.42h0.515v2.379H82.655z"/>
		<path fill="#231F20" d="M83.733,30.744l0.849-2.342h0.506l0.89,2.342v0.055h-0.569l-0.198-0.533h-0.746l-0.174,0.533h-0.557
			V30.744z M85.114,29.922l-0.238-0.821l-0.028-0.133h-0.032l-0.028,0.133l-0.248,0.821H85.114z"/>
		<path fill="#231F20" d="M86.507,28.42h0.45l0.879,1.251l0.123,0.203h0.031V28.42h0.516v2.379h-0.442L87.162,29.5l-0.102-0.174
			h-0.038v1.473h-0.516V28.42z"/>
		<path fill="#231F20" d="M90.975,30.756c-0.144,0.029-0.396,0.077-0.621,0.077c-0.771,0-1.205-0.324-1.205-1.208
			c0-0.917,0.579-1.239,1.308-1.239c0.226,0,0.375,0.04,0.49,0.073v0.435c-0.085-0.024-0.322-0.065-0.501-0.065
			c-0.423,0-0.756,0.065-0.756,0.78c0,0.707,0.347,0.786,0.729,0.786c0.206,0,0.371-0.042,0.557-0.079V30.756z"/>
		<path fill="#231F20" d="M91.541,28.42h1.514v0.425h-0.998v0.52h0.877v0.409h-0.877v0.6h1.022v0.426h-1.538V28.42z"/>
		<path fill="#231F20" d="M93.641,30.382c0.17,0.044,0.474,0.107,0.713,0.107c0.289,0,0.479-0.055,0.479-0.271
			c0-0.497-1.247-0.367-1.247-1.162c0-0.555,0.45-0.697,1.017-0.697c0.207,0,0.453,0.041,0.599,0.075v0.439
			c-0.146-0.054-0.412-0.102-0.665-0.102c-0.31,0-0.464,0.062-0.464,0.246c0,0.418,1.27,0.343,1.27,1.202
			c0,0.55-0.434,0.666-1.02,0.666c-0.245,0-0.522-0.051-0.682-0.083V30.382z"/>
	</g>
</g>
</svg>
